<?xml version="1.0" encoding="UTF-8"?>
<svg id="Layer_1" xmlns="http://www.w3.org/2000/svg" version="1.1" viewBox="0 0 5500 3519.23">
  <!-- Generator: Adobe Illustrator 29.8.2, SVG Export Plug-In . SVG Version: 2.1.1 Build 3)  -->
  <defs>
    <style>
      .st0 {
        stroke: #0886c2;
      }

      .st0, .st1, .st2, .st3, .st4, .st5, .st6, .st7 {
        fill: none;
        stroke-miterlimit: 3.86;
      }

      .st0, .st1, .st3, .st4, .st5, .st6, .st7 {
        stroke-width: 1.55px;
      }

      .st8 {
        fill: #db3e2f;
      }

      .st8, .st9, .st10, .st11, .st12, .st13, .st14, .st15, .st16 {
        fill-rule: evenodd;
      }

      .st1 {
        stroke: #bd3d30;
      }

      .st9 {
        fill: #0066a3;
      }

      .st2 {
        stroke: #0066a3;
        stroke-width: 7.8px;
      }

      .st10 {
        fill: #231f20;
      }

      .st11 {
        fill: #bd3d30;
      }

      .st12 {
        fill: #0886c2;
      }

      .st13 {
        fill: #4ea947;
      }

      .st3 {
        stroke: #08666c;
      }

      .st4 {
        stroke: #4ea947;
      }

      .st5 {
        stroke: #105488;
      }

      .st14 {
        fill: #105488;
      }

      .st15 {
        fill: #08666c;
      }

      .st16 {
        fill: #efb11e;
      }

      .st6 {
        stroke: #db3e2f;
      }

      .st7 {
        stroke: #efb11e;
      }
    </style>
  </defs>
  <path class="st12" d="M902.12,926.98s-155.03,251.51-81.53,393.92c73.02,141.48,272.77,112.12,300.88,99.91,52.83-22.96,145.79-142.7,118.29-241.18-57.42-205.57-337.64-252.65-337.64-252.65h0Z"/>
  <path class="st0" d="M902.12,926.98s-155.03,251.51-81.53,393.92c73.02,141.48,272.77,112.12,300.88,99.91,52.83-22.96,145.79-142.7,118.29-241.18-57.42-205.57-337.64-252.65-337.64-252.65h0Z"/>
  <path class="st14" d="M54.59,1622.94s570.13,384.03,1270.15,342.23c307.77-18.37,608.65-312.37,608.65-312.37,0,0-284.8,98.77-725.79,142.41-444,43.93-1153.02-172.27-1153.02-172.27h0Z"/>
  <path class="st5" d="M54.59,1622.94s570.13,384.03,1270.15,342.23c307.77-18.37,608.65-312.37,608.65-312.37,0,0-284.8,98.77-725.79,142.41-444,43.93-1153.02-172.27-1153.02-172.27h0Z"/>
  <path class="st15" d="M439.45,1970.49s267.7,276.71,478.75,387.45c372.09,195.23,799.3-57.42,799.3-57.42,0,0-211.3,50.53-633.92-66.61-429.88-119.15-644.13-263.41-644.13-263.41h0Z"/>
  <path class="st3" d="M439.45,1970.49s267.7,276.71,478.75,387.45c372.09,195.23,799.3-57.42,799.3-57.42,0,0-211.3,50.53-633.92-66.61-429.88-119.15-644.13-263.41-644.13-263.41h0Z"/>
  <path class="st11" d="M541.54,2270.65s223.83,285.08,431.8,383.59c261.83,124.03,429.5,128.63,429.5,128.63,0,0-323.85,204.42-592.57-39.05-235.08-212.98-268.73-473.16-268.73-473.16h0Z"/>
  <path class="st1" d="M541.54,2270.65s223.83,285.08,431.8,383.59c261.83,124.03,429.5,128.63,429.5,128.63,0,0-323.85,204.42-592.57-39.05-235.08-212.98-268.73-473.16-268.73-473.16h0Z"/>
  <path class="st8" d="M442.76,2826.51s241.17,78.09,512.2,52.83c271.03-25.27,450.18-101.06,450.18-101.06,0,0-119.44,271.32-463.97,273.33-395.04,2.3-498.41-225.09-498.41-225.09h0Z"/>
  <path class="st6" d="M442.76,2826.51s241.17,78.09,512.2,52.83c271.03-25.27,450.18-101.06,450.18-101.06,0,0-119.44,271.32-463.97,273.33-395.04,2.3-498.41-225.09-498.41-225.09h0Z"/>
  <path class="st12" d="M43.13,1609.15s716.35,227.62,1396.45-192.93c475.46-294,751.08-948.61,751.08-948.61,0,0,48.06,887.97-617.85,1240.31-829.17,438.71-1529.68-98.77-1529.68-98.77h0Z"/>
  <path class="st0" d="M43.13,1609.15s716.35,227.62,1396.45-192.93c475.46-294,751.08-948.61,751.08-948.61,0,0,48.06,887.97-617.85,1240.31-829.17,438.71-1529.68-98.77-1529.68-98.77h0Z"/>
  <path class="st13" d="M387.64,1912.34s367.48,160.79,918.73,84.99c304.77-41.91,622.44-335.34,622.44-335.34,0,0-51.32,528.73-645.41,560.43-645.41,34.46-895.76-310.08-895.76-310.08h0Z"/>
  <path class="st4" d="M387.64,1912.34s367.48,160.79,918.73,84.99c304.77-41.91,622.44-335.34,622.44-335.34,0,0-51.32,528.73-645.41,560.43-645.41,34.46-895.76-310.08-895.76-310.08h0Z"/>
  <path class="st16" d="M513.96,2162.71s282.61,215.26,576.52,257.25c385.86,55.12,627.03-119.44,627.03-119.44,0,0-229.68,401.96-656.89,326.15-511.43-90.74-546.65-463.96-546.65-463.96h0Z"/>
  <path class="st7" d="M513.96,2162.71s282.61,215.26,576.52,257.25c385.86,55.12,627.03-119.44,627.03-119.44,0,0-229.68,401.96-656.89,326.15-511.43-90.74-546.65-463.96-546.65-463.96h0Z"/>
  <polygon class="st10" points="2152.12 2745.5 2152.12 2504.15 2193.67 2504.15 2193.67 2599.2 2274.47 2599.2 2274.47 2504.15 2316.02 2504.15 2316.02 2745.5 2274.47 2745.5 2274.47 2639.99 2193.67 2639.99 2193.67 2745.5 2152.12 2745.5"/>
  <path class="st10" d="M2351.66,2745.5v-174.94h39.26v174.94h-39.26ZM2351.66,2546.95v-42.8h39.26v42.8h-39.26Z"/>
  <path class="st10" d="M2455.38,2654.63c0,18.74,2.19,32.29,6.57,40.66,6.33,12.13,15.16,18.18,26.52,18.18,9.03,0,16.72-4.54,23.04-13.63,6.33-9.09,9.49-22.67,9.49-40.74,0-20.17-3.07-34.68-9.22-43.55-6.14-8.88-14.01-13.31-23.59-13.31s-17.1,4.38-23.39,13.15c-6.27,8.75-9.42,21.85-9.42,39.25h0ZM2560.24,2745.5h-36.38v-25.67c-6.09,9.99-13.26,17.49-21.54,22.51-8.27,5.03-16.62,7.54-25.05,7.54-17.1,0-31.77-8.11-43.98-24.32-12.2-16.21-18.31-38.83-18.31-67.86s5.94-52.25,17.81-67.69,26.87-23.17,45.03-23.17c16.62,0,31.02,8.12,43.18,24.36v-87.05h39.25v241.35h-.01Z"/>
  <path class="st10" d="M2690.05,2745.5v-26.17c-5.41,9.34-12.55,16.76-21.38,22.28-8.83,5.52-18.16,8.28-27.98,8.28s-18.96-2.59-26.92-7.76c-7.94-5.17-13.7-12.44-17.25-21.8-3.55-9.35-5.32-22.29-5.32-38.8v-110.97h39.25v80.56c0,24.65.73,39.75,2.19,45.31,1.44,5.55,4.08,9.96,7.92,13.19,3.84,3.26,8.71,4.87,14.61,4.87,6.73,0,12.77-2.18,18.11-6.52s9-9.74,10.95-16.18c1.98-6.44,2.96-22.2,2.96-47.29v-73.95h39.25v174.94h-36.39Z"/>
  <path class="st10" d="M2797.22,2655.3c0,19.72,3.31,34.3,9.91,43.71,6.6,9.43,14.67,14.13,24.16,14.13s16.72-4.32,22.75-12.97c6.05-8.65,9.09-22.83,9.09-42.55,0-18.4-3.13-32.06-9.36-40.98-6.24-8.92-13.95-13.39-23.17-13.39s-17.56,4.38-23.88,13.14c-6.33,8.76-9.49,21.73-9.49,38.91h-.01ZM2758.54,2570.55h36.69v25.68c4.75-8.78,11.19-15.87,19.29-21.27,8.12-5.41,17.12-8.12,27.01-8.12,17.26,0,31.91,7.97,43.95,23.91,12.03,15.95,18.03,38.16,18.03,66.62s-6.05,51.98-18.2,68.19c-12.13,16.21-26.83,24.32-44.11,24.32-8.21,0-15.65-1.92-22.33-5.76-6.68-3.85-13.7-10.43-21.09-19.76v87.55h-39.25v-241.36h.01Z"/>
  <path class="st10" d="M2989.21,2667.3l40.38-4.72c2.43,15.88,7.33,27.56,14.72,35,7.41,7.45,17.37,11.17,29.92,11.17,13.3,0,23.32-3.31,30.07-9.95s10.11-14.38,10.11-23.27c0-5.7-1.41-10.55-4.24-14.56-2.85-4.01-7.79-7.49-14.85-10.44-4.83-1.98-15.84-5.5-33.03-10.57-22.11-6.49-37.62-14.47-46.54-23.94-12.55-13.31-18.8-29.55-18.8-48.72,0-12.33,2.94-23.87,8.85-34.6,5.91-10.73,14.41-18.9,25.51-24.52,11.12-5.61,24.52-8.43,40.25-8.43,25.66,0,44.97,6.71,57.94,20.13,12.98,13.41,19.79,31.31,20.45,53.7l-41.55,1.68c-1.76-12.45-5.54-21.42-11.32-26.87-5.78-5.46-14.45-8.19-26.02-8.19s-21.29,2.93-28.05,8.77c-4.33,3.74-6.53,8.75-6.53,15.04,0,5.72,2.05,10.63,6.14,14.71,5.21,5.18,17.87,10.56,37.97,16.18,20.1,5.61,34.97,11.41,44.6,17.39,9.62,5.99,17.15,14.16,22.6,24.54,5.45,10.37,8.17,23.18,8.17,38.44,0,13.84-3.27,26.78-9.8,38.86s-15.76,21.05-27.69,26.92c-11.94,5.87-26.81,8.81-44.64,8.81-25.91,0-45.83-7.03-59.73-21.1s-22.2-34.56-24.89-61.49v.03Z"/>
  <path class="st10" d="M3271.6,2643.37c-.27-13.43-3.2-23.65-8.78-30.64-5.6-6.99-12.38-10.49-20.37-10.49-8.56,0-15.64,3.69-21.21,11.07-5.6,7.38-8.34,17.39-8.23,30.06h58.6-.01ZM3269.31,2690.22l39.25,7.75c-5.03,16.92-12.98,29.79-23.85,38.64-10.86,8.84-24.45,13.27-40.78,13.27-25.82,0-44.93-9.95-57.35-29.85-9.78-15.94-14.69-36.06-14.69-60.35,0-29.03,6.44-51.76,19.29-68.2,12.86-16.43,29.11-24.65,48.79-24.65,22.09,0,39.5,8.6,52.29,25.8,12.77,17.2,18.86,43.54,18.31,79.03h-98.28c.27,13.73,3.44,24.41,9.47,32.04,6.05,7.64,13.59,11.45,22.59,11.45,6.14,0,11.3-1.97,15.49-5.91,4.17-3.94,7.33-10.29,9.47-19.04v.02Z"/>
  <path class="st10" d="M3374.3,2504.15v89.47c12.77-17.85,28.02-26.77,45.74-26.77,9.13,0,17.32,1.98,24.65,5.93,7.32,3.95,12.82,9,16.53,15.13,3.69,6.14,6.24,12.95,7.59,20.41,1.37,7.45,2.05,19.02,2.05,34.7v102.49h-39.25v-92.27c0-18.31-.75-29.93-2.27-34.87-1.52-4.94-4.17-8.85-7.99-11.76s-8.61-4.36-14.36-4.36c-6.62,0-12.51,1.87-17.7,5.6-5.18,3.73-8.98,9.35-11.39,16.86-2.4,7.51-3.6,18.61-3.6,33.3v87.5h-39.25v-241.35h39.25Z"/>
  <path class="st10" d="M3585.48,2661.9c-5.03,1.98-13,4.33-23.9,7.08-10.92,2.74-18.05,5.43-21.4,8.07-5.14,4.27-7.7,9.7-7.7,16.29s2.05,12.07,6.14,16.78c4.11,4.73,9.33,7.08,15.67,7.08,7.1,0,13.84-2.74,20.28-8.23,4.75-4.16,7.88-9.26,9.38-15.3,1.02-3.95,1.52-11.47,1.52-22.54v-9.22h.01ZM3532.77,2624.49l-35.53-7.42c4.02-17.07,10.92-29.72,20.72-37.92,9.78-8.2,24.34-12.31,43.65-12.31,17.54,0,30.6,2.44,39.19,7.33,8.58,4.87,14.61,11.07,18.12,18.58,3.49,7.52,5.25,21.31,5.25,41.38l-.59,53.96c0,15.35.64,26.67,1.88,33.97,1.24,7.29,3.58,15.11,7,23.44h-38.97c-1.02-3.03-2.27-7.53-3.77-13.5-.64-2.72-1.12-4.51-1.39-5.38-6.69,7.75-13.84,13.57-21.47,17.45s-15.76,5.82-24.41,5.82c-15.25,0-27.27-4.88-36.06-14.65-8.78-9.76-13.17-22.1-13.17-37.02,0-9.88,1.99-18.68,6-26.41,4.01-7.74,9.64-13.66,16.86-17.78,7.21-4.11,17.63-7.71,31.24-10.78,18.34-4.06,31.07-7.85,38.15-11.36v-4.66c0-9-1.87-15.41-5.6-19.25-3.75-3.83-10.81-5.75-21.18-5.75-7,0-12.47,1.65-16.4,4.94-3.91,3.29-7.1,9.06-9.53,17.31h.01Z"/>
  <path class="st10" d="M3723.72,2570.55v36.74h-26.92v70.88c0,14.36.26,22.71.77,25.09.51,2.38,1.68,4.33,3.51,5.88,1.81,1.55,4.02,2.31,6.66,2.31,3.64,0,8.92-1.47,15.84-4.44l3.31,35.95c-9.13,4.61-19.44,6.92-30.98,6.92-7.06,0-13.44-1.41-19.11-4.22-5.67-2.81-9.84-6.45-12.49-10.91-2.65-4.47-4.48-10.52-5.5-18.11-.84-5.4-1.26-16.32-1.26-32.75v-76.59h-18.05v-36.74h18.05v-34.72l39.26-27.3v62.02h26.92-.01Z"/>
  <path class="st10" d="M2247.53,2319.76v-40.78h89.12v96.32c-8.67,9.9-21.23,18.64-37.67,26.19-16.46,7.54-33.12,11.31-50,11.31-21.42,0-40.11-5.3-56.05-15.92-15.93-10.62-27.91-25.8-35.94-45.54-8.01-19.75-12.02-41.22-12.02-64.43,0-25.18,4.48-47.57,13.42-67.15,8.96-19.58,22.06-34.59,39.3-45.04,13.15-8.03,29.52-12.05,49.1-12.05,25.46,0,45.34,6.3,59.66,18.9,14.3,12.6,23.52,30.01,27.62,52.23l-41.26,9.1c-2.89-11.87-8.3-21.24-16.28-28.12-7.96-6.87-17.89-10.31-29.81-10.31-18.05,0-32.42,6.76-43.07,20.28-10.66,13.52-16,33.58-16,60.18,0,28.69,5.4,50.2,16.2,64.55,10.81,14.34,24.96,21.51,42.48,21.51,8.65,0,17.34-1.99,26.04-6.01,8.72-4.01,16.2-8.86,22.44-14.58v-30.64h-47.29.01Z"/>
  <path class="st10" d="M2455.56,2306.28c-.29-13.43-3.22-23.65-8.8-30.64s-12.38-10.49-20.37-10.49c-8.56,0-15.64,3.69-21.21,11.07-5.58,7.38-8.32,17.39-8.23,30.06h58.61ZM2453.26,2353.13l39.26,7.75c-5.05,16.92-12.98,29.79-23.87,38.64-10.86,8.84-24.45,13.27-40.76,13.27-25.84,0-44.95-9.95-57.35-29.85-9.8-15.94-14.7-36.06-14.7-60.35,0-29.03,6.44-51.76,19.29-68.2,12.86-16.43,29.13-24.65,48.79-24.65,22.09,0,39.52,8.6,52.29,25.8s18.87,43.54,18.31,79.03h-98.28c.29,13.73,3.44,24.41,9.49,32.04,6.04,7.64,13.57,11.45,22.59,11.45,6.13,0,11.28-1.97,15.47-5.91s7.35-10.29,9.47-19.04v.02Z"/>
  <path class="st10" d="M2557.11,2408.41h-39.25v-174.94h36.38v24.85c6.27-11.74,11.91-19.43,16.92-23.09,4.99-3.65,10.68-5.48,17.03-5.48,8.98,0,17.63,2.92,25.95,8.73l-12.18,40.32c-6.64-5.06-12.8-7.58-18.49-7.58s-10.19,1.78-14.03,5.35c-3.82,3.57-6.84,10-9.03,19.33-2.19,9.32-3.29,28.84-3.29,58.56v53.95h0Z"/>
  <path class="st10" d="M2705.63,2324.81c-5.05,1.98-13,4.33-23.92,7.08-10.92,2.74-18.03,5.43-21.4,8.07-5.14,4.27-7.7,9.7-7.7,16.29s2.07,12.07,6.16,16.78c4.1,4.73,9.33,7.08,15.65,7.08,7.1,0,13.84-2.74,20.28-8.23,4.75-4.16,7.88-9.26,9.38-15.3,1.02-3.95,1.54-11.47,1.54-22.54v-9.22h.01ZM2652.91,2287.4l-35.53-7.42c4.02-17.07,10.92-29.72,20.72-37.92,9.78-8.2,24.34-12.31,43.65-12.31,17.56,0,30.61,2.44,39.19,7.33,8.58,4.87,14.63,11.07,18.12,18.58,3.49,7.52,5.25,21.31,5.25,41.38l-.59,53.96c0,15.35.64,26.67,1.88,33.97,1.24,7.29,3.58,15.11,7,23.44h-38.97c-1.01-3.03-2.27-7.53-3.75-13.5-.66-2.72-1.12-4.51-1.41-5.38-6.69,7.75-13.84,13.57-21.47,17.45s-15.76,5.82-24.41,5.82c-15.25,0-27.27-4.88-36.05-14.65-8.8-9.76-13.19-22.1-13.19-37.02,0-9.88,1.99-18.68,6.02-26.41,4.01-7.74,9.62-13.66,16.84-17.78,7.22-4.11,17.63-7.71,31.24-10.78,18.36-4.06,31.09-7.85,38.17-11.36v-4.66c0-9-1.87-15.41-5.61-19.25-3.73-3.83-10.79-5.75-21.18-5.75-7,0-12.47,1.65-16.4,4.94-3.91,3.29-7.1,9.06-9.53,17.31h.01Z"/>
  <polygon class="st10" points="2774.52 2408.41 2774.52 2167.06 2813.77 2167.06 2813.77 2295.09 2859.77 2233.47 2908.19 2233.47 2857.46 2297.37 2911.92 2408.41 2869.51 2408.41 2831.97 2329.48 2813.77 2352.4 2813.77 2408.41 2774.52 2408.41"/>
  <path class="st10" d="M3010.19,2324.81c-5.03,1.98-13.02,4.33-23.92,7.08-10.9,2.74-18.03,5.43-21.4,8.07-5.12,4.27-7.7,9.7-7.7,16.29s2.05,12.07,6.16,16.78c4.1,4.73,9.33,7.08,15.65,7.08,7.1,0,13.84-2.74,20.28-8.23,4.75-4.16,7.88-9.26,9.36-15.3,1.04-3.95,1.55-11.47,1.55-22.54v-9.22h.02ZM2957.46,2287.4l-35.53-7.42c4.01-17.07,10.92-29.72,20.72-37.92s24.34-12.31,43.65-12.31c17.54,0,30.61,2.44,39.19,7.33,8.58,4.87,14.63,11.07,18.12,18.58,3.49,7.52,5.25,21.31,5.25,41.38l-.59,53.96c0,15.35.62,26.67,1.88,33.97,1.24,7.29,3.58,15.11,7,23.44h-38.97c-1.02-3.03-2.27-7.53-3.77-13.5-.64-2.72-1.12-4.51-1.39-5.38-6.69,7.75-13.86,13.57-21.47,17.45-7.63,3.88-15.76,5.82-24.41,5.82-15.25,0-27.27-4.88-36.05-14.65-8.8-9.76-13.19-22.1-13.19-37.02,0-9.88,2.01-18.68,6.02-26.41,4.01-7.74,9.62-13.66,16.83-17.78,7.22-4.11,17.65-7.71,31.25-10.78,18.36-4.06,31.07-7.85,38.17-11.36v-4.66c0-9-1.88-15.41-5.61-19.25-3.73-3.83-10.81-5.75-21.18-5.75-7,0-12.47,1.65-16.4,4.94s-7.1,9.06-9.53,17.31h.01Z"/>
  <path class="st10" d="M3215.75,2408.41h-39.25v-89.15c0-18.86-.86-31.05-2.54-36.59-1.7-5.53-4.44-9.84-8.27-12.91-3.8-3.07-8.39-4.61-13.75-4.61-6.88,0-13.04,2.19-18.49,6.58-5.45,4.38-9.2,10.2-11.23,17.44-2.01,7.23-3.04,20.61-3.04,40.13v79.11h-39.25v-174.94h36.39v25.68c13.02-19.59,29.43-29.39,49.21-29.39,8.72,0,16.68,1.85,23.9,5.51,7.22,3.69,12.69,8.37,16.39,14.07,3.69,5.7,6.27,12.17,7.74,19.4,1.44,7.25,2.18,17.6,2.18,31.1v108.57h.01Z"/>
  <polygon class="st10" points="3320.34 2408.41 3320.34 2167.06 3382.55 2167.06 3419.33 2331.7 3455.69 2167.06 3518.03 2167.06 3518.03 2408.41 3479.64 2408.41 3479.5 2218.42 3439.04 2408.41 3399.14 2408.41 3358.87 2218.42 3358.72 2408.41 3320.34 2408.41"/>
  <path class="st10" d="M3634.29,2324.81c-5.03,1.98-13,4.33-23.9,7.08-10.92,2.74-18.05,5.43-21.42,8.07-5.12,4.27-7.68,9.7-7.68,16.29s2.05,12.07,6.14,16.78c4.1,4.73,9.33,7.08,15.67,7.08,7.08,0,13.84-2.74,20.28-8.23,4.75-4.16,7.88-9.26,9.36-15.3,1.02-3.95,1.54-11.47,1.54-22.54v-9.22h0ZM3581.58,2287.4l-35.53-7.42c4.01-17.07,10.92-29.72,20.7-37.92,9.8-8.2,24.36-12.31,43.67-12.31,17.54,0,30.6,2.44,39.17,7.33,8.6,4.87,14.63,11.07,18.12,18.58,3.51,7.52,5.25,21.31,5.25,41.38l-.57,53.96c0,15.35.62,26.67,1.87,33.97,1.26,7.29,3.58,15.11,7,23.44h-38.95c-1.02-3.03-2.29-7.53-3.77-13.5-.66-2.72-1.12-4.51-1.41-5.38-6.68,7.75-13.84,13.57-21.47,17.45s-15.76,5.82-24.41,5.82c-15.23,0-27.25-4.88-36.05-14.65-8.78-9.76-13.19-22.1-13.19-37.02,0-9.88,2.01-18.68,6.02-26.41,4.01-7.74,9.62-13.66,16.84-17.78,7.22-4.11,17.65-7.71,31.25-10.78,18.34-4.06,31.07-7.85,38.15-11.36v-4.66c0-9-1.87-15.41-5.6-19.25-3.75-3.83-10.81-5.75-21.18-5.75-7.02,0-12.49,1.65-16.4,4.94-3.93,3.29-7.11,9.06-9.53,17.31h.02Z"/>
  <path class="st10" d="M3690.58,2359.2l39.54-7.08c1.68,8.93,5.08,15.73,10.22,20.36,5.12,4.63,12.31,6.94,21.54,6.94,10.17,0,17.81-2.19,22.95-6.6,3.44-3.07,5.18-7.2,5.18-12.36,0-3.52-.93-6.44-2.8-8.74-1.98-2.2-6.36-4.23-13.17-6.11-31.75-8.25-51.88-15.78-60.37-22.6-11.78-9.46-17.65-22.61-17.65-39.44,0-15.19,5.08-27.95,15.25-38.3,10.17-10.33,25.95-15.52,47.31-15.52s35.46,3.92,45.35,11.76c9.89,7.84,16.7,19.42,20.45,34.77l-36.98,8.08c-1.57-6.85-4.61-12.1-9.07-15.76-4.44-3.65-10.81-5.48-19.06-5.48-10.41,0-17.87,1.71-22.37,5.11-3,2.42-4.5,5.56-4.5,9.41,0,3.29,1.3,6.1,3.91,8.41,3.57,3.07,15.84,7.42,36.85,13.03s35.68,12.48,44,20.61c8.25,8.24,12.36,19.71,12.36,34.44,0,16.03-5.71,29.82-17.1,41.36-11.39,11.54-28.26,17.3-50.57,17.3-20.26,0-36.3-4.81-48.12-14.42-11.81-9.62-19.55-22.68-23.19-39.18h.04Z"/>
  <path class="st10" d="M3837.98,2233.47h41.83l35.68,124.1,34.82-124.1h40.67l-52.43,168.36-9.47,30.39c-3.46,10.18-6.75,17.96-9.89,23.33-3.13,5.37-6.73,9.72-10.81,13.06s-9.09,5.94-15.01,7.8c-5.96,1.87-12.67,2.8-20.15,2.8s-15.01-.93-22.33-2.79l-3.44-36.1c6.18,1.44,11.74,2.15,16.72,2.15,9.16,0,15.95-3.17,20.34-9.5,4.41-6.34,7.77-14.4,10.11-24.21l-56.62-175.28h-.02Z"/>
  <path class="st10" d="M4091.11,2324.81c-5.03,1.98-13,4.33-23.9,7.08-10.92,2.74-18.05,5.43-21.4,8.07-5.14,4.27-7.7,9.7-7.7,16.29s2.05,12.07,6.14,16.78c4.11,4.73,9.33,7.08,15.67,7.08,7.1,0,13.84-2.74,20.28-8.23,4.75-4.16,7.88-9.26,9.38-15.3,1.02-3.95,1.52-11.47,1.52-22.54v-9.22h.01ZM4038.4,2287.4l-35.53-7.42c4.02-17.07,10.92-29.72,20.72-37.92,9.78-8.2,24.34-12.31,43.65-12.31,17.54,0,30.6,2.44,39.19,7.33,8.58,4.87,14.61,11.07,18.12,18.58,3.49,7.52,5.25,21.31,5.25,41.38l-.59,53.96c0,15.35.64,26.67,1.88,33.97,1.24,7.29,3.58,15.11,7,23.44h-38.97c-1.02-3.03-2.27-7.53-3.77-13.5-.64-2.72-1.12-4.51-1.39-5.38-6.69,7.75-13.84,13.57-21.47,17.45s-15.76,5.82-24.41,5.82c-15.25,0-27.27-4.88-36.06-14.65-8.78-9.76-13.17-22.1-13.17-37.02,0-9.88,1.99-18.68,6-26.41,4.01-7.74,9.64-13.66,16.86-17.78,7.21-4.11,17.63-7.71,31.24-10.78,18.34-4.06,31.07-7.85,38.15-11.36v-4.66c0-9-1.87-15.41-5.6-19.25-3.75-3.83-10.81-5.75-21.18-5.75-7,0-12.47,1.65-16.4,4.94-3.91,3.29-7.1,9.06-9.53,17.31h.01Z"/>
  <path class="st10" d="M4198.99,2408.41h-39.26v-174.94h36.39v24.85c6.27-11.74,11.89-19.43,16.9-23.09,5.01-3.65,10.68-5.48,17.04-5.48,8.96,0,17.61,2.92,25.93,8.73l-12.16,40.32c-6.64-5.06-12.8-7.58-18.51-7.58s-10.19,1.78-14.01,5.35c-3.84,3.57-6.84,10-9.03,19.33-2.19,9.32-3.29,28.84-3.29,58.56v53.95h0Z"/>
  <path class="st10" d="M4347.49,2324.81c-5.03,1.98-13,4.33-23.9,7.08-10.92,2.74-18.05,5.43-21.4,8.07-5.14,4.27-7.7,9.7-7.7,16.29s2.05,12.07,6.14,16.78c4.11,4.73,9.33,7.08,15.67,7.08,7.08,0,13.84-2.74,20.28-8.23,4.75-4.16,7.88-9.26,9.36-15.3,1.02-3.95,1.54-11.47,1.54-22.54v-9.22h.01ZM4294.79,2287.4l-35.53-7.42c4.01-17.07,10.92-29.72,20.7-37.92,9.8-8.2,24.36-12.31,43.67-12.31,17.54,0,30.6,2.44,39.19,7.33,8.58,4.87,14.61,11.07,18.11,18.58,3.51,7.52,5.27,21.31,5.27,41.38l-.59,53.96c0,15.35.62,26.67,1.87,33.97,1.26,7.29,3.6,15.11,7.02,23.44h-38.97c-1.02-3.03-2.27-7.53-3.77-13.5-.66-2.72-1.12-4.51-1.39-5.38-6.69,7.75-13.86,13.57-21.47,17.45-7.63,3.88-15.76,5.82-24.41,5.82-15.25,0-27.27-4.88-36.06-14.65-8.78-9.76-13.19-22.1-13.19-37.02,0-9.88,2.01-18.68,6.02-26.41,4.01-7.74,9.62-13.66,16.84-17.78,7.22-4.11,17.65-7.71,31.25-10.78,18.34-4.06,31.07-7.85,38.15-11.36v-4.66c0-9-1.87-15.41-5.6-19.25-3.75-3.83-10.81-5.75-21.18-5.75-7,0-12.47,1.65-16.4,4.94-3.93,3.29-7.11,9.06-9.53,17.31h0Z"/>
  <polygon class="st10" points="4416.4 2408.41 4416.4 2167.06 4455.65 2167.06 4455.65 2295.09 4501.64 2233.47 4550.05 2233.47 4499.32 2297.37 4553.78 2408.41 4511.37 2408.41 4473.85 2329.48 4455.65 2352.4 4455.65 2408.41 4416.4 2408.41"/>
  <path class="st10" d="M4652.05,2324.81c-5.03,1.98-13,4.33-23.9,7.08-10.92,2.74-18.05,5.43-21.42,8.07-5.12,4.27-7.68,9.7-7.68,16.29s2.05,12.07,6.16,16.78c4.1,4.73,9.31,7.08,15.65,7.08,7.08,0,13.84-2.74,20.28-8.23,4.75-4.16,7.88-9.26,9.36-15.3,1.02-3.95,1.54-11.47,1.54-22.54v-9.22h.01ZM4599.32,2287.4l-35.52-7.42c4.01-17.07,10.92-29.72,20.72-37.92,9.78-8.2,24.34-12.31,43.65-12.31,17.54,0,30.6,2.44,39.17,7.33,8.6,4.87,14.63,11.07,18.14,18.58,3.49,7.52,5.23,21.31,5.23,41.38l-.57,53.96c0,15.35.62,26.67,1.88,33.97,1.24,7.29,3.57,15.11,7,23.44h-38.97c-1.02-3.03-2.29-7.53-3.77-13.5-.64-2.72-1.12-4.51-1.39-5.38-6.69,7.75-13.86,13.57-21.49,17.45-7.63,3.88-15.76,5.82-24.41,5.82-15.23,0-27.27-4.88-36.05-14.65-8.78-9.76-13.17-22.1-13.17-37.02,0-9.88,1.99-18.68,6-26.41,4.01-7.74,9.62-13.66,16.84-17.78,7.22-4.11,17.63-7.71,31.25-10.78,18.36-4.06,31.07-7.85,38.15-11.36v-4.66c0-9-1.87-15.41-5.61-19.25-3.73-3.83-10.79-5.75-21.16-5.75-7.02,0-12.49,1.65-16.4,4.94-3.93,3.29-7.1,9.06-9.55,17.31h.03Z"/>
  <path class="st10" d="M4790.29,2233.47v36.74h-26.94v70.88c0,14.36.26,22.71.79,25.09.51,2.38,1.68,4.33,3.49,5.88,1.83,1.55,4.04,2.31,6.68,2.31,3.64,0,8.92-1.47,15.84-4.44l3.29,35.95c-9.11,4.61-19.44,6.92-30.96,6.92-7.08,0-13.44-1.41-19.11-4.22s-9.84-6.45-12.49-10.91c-2.65-4.47-4.48-10.52-5.52-18.11-.82-5.4-1.24-16.32-1.24-32.75v-76.59h-18.05v-36.74h18.05v-34.72l39.25-27.3v62.02h26.94-.02Z"/>
  <path class="st9" d="M2435.33,1649.59v-90.64h232.97v214.05c-22.66,22.03-55.49,41.42-98.5,58.18-43.01,16.77-86.58,25.15-130.69,25.15-56.04,0-104.9-11.79-146.56-35.38-41.68-23.58-72.99-57.32-93.95-101.19-20.96-43.87-31.44-91.61-31.44-143.18,0-55.97,11.7-105.71,35.11-149.21,23.39-43.5,57.64-76.87,102.74-100.09,34.38-17.85,77.16-26.76,128.36-26.76,66.55,0,118.53,14,155.94,41.99,37.42,27.99,61.5,66.69,72.22,116.07l-107.86,20.23c-7.53-26.39-21.73-47.22-42.54-62.49-20.79-15.27-46.78-22.91-77.94-22.91-47.22,0-84.75,15.02-112.62,45.07-27.87,30.05-41.81,74.62-41.81,133.72,0,63.75,14.12,111.57,42.37,143.44,28.24,31.88,65.25,47.81,111.03,47.81,22.66,0,45.35-4.44,68.12-13.35s42.32-19.71,58.63-32.41v-68.11h-123.61.03Z"/>
  <path class="st2" d="M2435.33,1649.59v-90.64h232.97v214.05c-22.66,22.03-55.49,41.42-98.5,58.18-43.01,16.77-86.58,25.15-130.69,25.15-56.04,0-104.9-11.79-146.56-35.38-41.68-23.58-72.99-57.32-93.95-101.19-20.96-43.87-31.44-91.61-31.44-143.18,0-55.97,11.7-105.71,35.11-149.21,23.39-43.5,57.64-76.87,102.74-100.09,34.38-17.85,77.16-26.76,128.36-26.76,66.55,0,118.53,14,155.94,41.99,37.42,27.99,61.5,66.69,72.22,116.07l-107.86,20.23c-7.53-26.39-21.73-47.22-42.54-62.49-20.79-15.27-46.78-22.91-77.94-22.91-47.22,0-84.75,15.02-112.62,45.07-27.87,30.05-41.81,74.62-41.81,133.72,0,63.75,14.12,111.57,42.37,143.44,28.24,31.88,65.25,47.81,111.03,47.81,22.66,0,45.35-4.44,68.12-13.35s42.32-19.71,58.63-32.41v-68.11h-123.61.03Z"/>
  <polygon class="st9" points="2783.12 1846.6 2783.12 1310.26 3180.14 1310.26 3180.14 1400.9 2891.73 1400.9 2891.73 1520 3159.91 1520 3159.91 1610.64 2891.73 1610.64 2891.73 1755.96 3190.62 1755.96 3190.62 1846.6 2783.12 1846.6"/>
  <polygon class="st2" points="2783.12 1846.6 2783.12 1310.26 3180.14 1310.26 3180.14 1400.9 2891.73 1400.9 2891.73 1520 3159.91 1520 3159.91 1610.64 2891.73 1610.64 2891.73 1755.96 3190.62 1755.96 3190.62 1846.6 2783.12 1846.6"/>
  <path class="st9" d="M3405.54,1537.22h80.12c51.92,0,84.36-2.19,97.29-6.59,12.91-4.39,23.04-11.97,30.36-22.72s10.97-24.19,10.97-40.31c0-18.08-4.83-32.67-14.45-43.8-9.64-11.12-23.23-18.14-40.8-21.07-8.78-1.23-35.1-1.84-79.01-1.84h-84.49v136.33h0ZM3296.93,1846.6v-536.34h228.09c57.35,0,99.03,4.81,125.02,14.45,26.01,9.63,46.8,26.76,62.44,51.39,15.62,24.63,23.43,52.8,23.43,84.51,0,40.24-11.8,73.46-35.37,99.69-23.57,26.21-58.81,42.73-105.72,49.56,23.3,13.67,42.54,28.67,57.72,45.01,15.16,16.35,35.63,45.37,61.36,87.09l65.47,104.65h-129.48l-77.65-117.06c-27.91-41.6-47-67.81-57.28-78.63-10.26-10.82-21.16-18.24-32.66-22.26-11.5-4.01-29.74-6.03-54.7-6.03h-22.04v223.98h-108.63Z"/>
  <path class="st2" d="M3405.54,1537.22h80.12c51.92,0,84.36-2.19,97.29-6.59,12.91-4.39,23.04-11.97,30.36-22.72s10.97-24.19,10.97-40.31c0-18.08-4.83-32.67-14.45-43.8-9.64-11.12-23.23-18.14-40.8-21.07-8.78-1.23-35.1-1.84-79.01-1.84h-84.49v136.33h0ZM3296.93,1846.6v-536.34h228.09c57.35,0,99.03,4.81,125.02,14.45,26.01,9.63,46.8,26.76,62.44,51.39,15.62,24.63,23.43,52.8,23.43,84.51,0,40.24-11.8,73.46-35.37,99.69-23.57,26.21-58.81,42.73-105.72,49.56,23.3,13.67,42.54,28.67,57.72,45.01,15.16,16.35,35.63,45.37,61.36,87.09l65.47,104.65h-129.48l-77.65-117.06c-27.91-41.6-47-67.81-57.28-78.63-10.26-10.82-21.16-18.24-32.66-22.26-11.5-4.01-29.74-6.03-54.7-6.03h-22.04v223.98h-108.63Z"/>
  <polygon class="st9" points="3851.77 1846.6 3851.77 1310.26 4014.41 1310.26 4110.59 1676.11 4205.63 1310.26 4368.63 1310.26 4368.63 1846.6 4268.27 1846.6 4267.88 1424.4 4162.12 1846.6 4057.79 1846.6 3952.52 1424.4 3952.16 1846.6 3851.77 1846.6"/>
  <polygon class="st2" points="3851.77 1846.6 3851.77 1310.26 4014.41 1310.26 4110.59 1676.11 4205.63 1310.26 4368.63 1310.26 4368.63 1846.6 4268.27 1846.6 4267.88 1424.4 4162.12 1846.6 4057.79 1846.6 3952.52 1424.4 3952.16 1846.6 3851.77 1846.6"/>
  <path class="st9" d="M4777.7,1633.86l-74.56-198.51-72.37,198.51h146.93ZM4976.19,1846.6h-116.93l-46.34-122.1h-215.2l-44.51,122.1h-114.85l208.28-536.34h114.7l214.85,536.34h0Z"/>
  <path class="st2" d="M4777.7,1633.86l-74.56-198.51-72.37,198.51h146.93ZM4976.19,1846.6h-116.93l-46.34-122.1h-215.2l-44.51,122.1h-114.85l208.28-536.34h114.7l214.85,536.34h0Z"/>
  <path class="st9" d="M5020.9,1672.81l105.61-10.49c6.33,35.31,19.15,61.23,38.48,77.79s45.41,24.84,78.24,24.84c34.75,0,60.95-7.37,78.57-22.11,17.63-14.74,26.44-31.99,26.44-51.72,0-12.67-3.69-23.45-11.1-32.35-7.43-8.89-20.35-16.63-38.81-23.21-12.62-4.41-41.4-12.23-86.34-23.47-57.81-14.44-98.37-32.17-121.69-53.2-32.79-29.61-49.18-65.7-49.18-108.27,0-27.4,7.72-53.04,23.15-76.88,15.44-23.87,37.69-42.03,66.73-54.5,29.04-12.48,64.1-18.72,105.19-18.72,67.08,0,117.59,14.9,151.52,44.71,33.91,29.8,51.7,69.59,53.4,119.34l-108.61,3.75c-4.59-27.68-14.45-47.6-29.57-59.72-15.14-12.12-37.82-18.19-68.07-18.19s-55.65,6.49-73.32,19.47c-11.38,8.32-17.06,19.47-17.06,33.42,0,12.74,5.36,23.64,16.06,32.69,13.62,11.52,46.71,23.5,99.27,35.97,52.54,12.47,91.4,25.35,116.59,38.64,25.16,13.3,44.88,31.48,59.11,54.53,14.23,23.06,21.36,51.55,21.36,85.44,0,30.74-8.54,59.53-25.6,86.37-17.08,26.84-41.22,46.78-72.42,59.83-31.22,13.05-70.1,19.57-116.68,19.57-67.78,0-119.84-15.63-156.16-46.87-36.34-31.26-58.03-76.8-65.11-136.65h0Z"/>
  <path class="st2" d="M5020.9,1672.81l105.61-10.49c6.33,35.31,19.15,61.23,38.48,77.79s45.41,24.84,78.24,24.84c34.75,0,60.95-7.37,78.57-22.11,17.63-14.74,26.44-31.99,26.44-51.72,0-12.67-3.69-23.45-11.1-32.35-7.43-8.89-20.35-16.63-38.81-23.21-12.62-4.41-41.4-12.23-86.34-23.47-57.81-14.44-98.37-32.17-121.69-53.2-32.79-29.61-49.18-65.7-49.18-108.27,0-27.4,7.72-53.04,23.15-76.88,15.44-23.87,37.69-42.03,66.73-54.5,29.04-12.48,64.1-18.72,105.19-18.72,67.08,0,117.59,14.9,151.52,44.71,33.91,29.8,51.7,69.59,53.4,119.34l-108.61,3.75c-4.59-27.68-14.45-47.6-29.57-59.72-15.14-12.12-37.82-18.19-68.07-18.19s-55.65,6.49-73.32,19.47c-11.38,8.32-17.06,19.47-17.06,33.42,0,12.74,5.36,23.64,16.06,32.69,13.62,11.52,46.71,23.5,99.27,35.97,52.54,12.47,91.4,25.35,116.59,38.64,25.16,13.3,44.88,31.48,59.11,54.53,14.23,23.06,21.36,51.55,21.36,85.44,0,30.74-8.54,59.53-25.6,86.37-17.08,26.84-41.22,46.78-72.42,59.83-31.22,13.05-70.1,19.57-116.68,19.57-67.78,0-119.84-15.63-156.16-46.87-36.34-31.26-58.03-76.8-65.11-136.65h0Z"/>
</svg>