<?xml version="1.0" encoding="UTF-8"?>
<svg id="Layer_1" data-name="Layer 1" xmlns="http://www.w3.org/2000/svg" viewBox="0 0 5408.38 2607.01">
  <defs>
    <style>
      .cls-1 {
        fill: #0886c2;
      }

      .cls-1, .cls-2, .cls-3, .cls-4, .cls-5, .cls-6, .cls-7, .cls-8 {
        fill-rule: evenodd;
      }

      .cls-9 {
        stroke: #bd3d30;
      }

      .cls-9, .cls-10, .cls-11, .cls-12, .cls-13, .cls-14, .cls-15, .cls-16, .cls-17 {
        stroke-miterlimit: 3.86;
      }

      .cls-9, .cls-10, .cls-11, .cls-13, .cls-14, .cls-16, .cls-17 {
        fill: none;
        stroke-width: 1.55px;
      }

      .cls-2 {
        fill: #08666c;
      }

      .cls-10 {
        stroke: #0886c2;
      }

      .cls-3 {
        fill: #db3e2f;
      }

      .cls-4, .cls-12, .cls-15 {
        fill: #fff;
      }

      .cls-5 {
        fill: #efb11e;
      }

      .cls-11 {
        stroke: #08666c;
      }

      .cls-12 {
        stroke: #0066a3;
        stroke-width: 7.8px;
      }

      .cls-6 {
        fill: #4ea947;
      }

      .cls-7 {
        fill: #105488;
      }

      .cls-13 {
        stroke: #efb11e;
      }

      .cls-14 {
        stroke: #105488;
      }

      .cls-8 {
        fill: #bd3d30;
      }

      .cls-15 {
        stroke: #fff;
        stroke-width: 50px;
      }

      .cls-16 {
        stroke: #4ea947;
      }

      .cls-17 {
        stroke: #db3e2f;
      }
    </style>
  </defs>
  <g>
    <path class="cls-15" d="M789.17,859.13c17.61,34.11,42.61,58.24,70.8,75.06,1.82,1.09,3.65,2.14,5.49,3.16,10.14,5.64,20.65,10.37,31.33,14.33,1.94.72,3.89,1.41,5.84,2.08,1.95.67,3.91,1.31,5.87,1.93,3.92,1.24,7.86,2.38,11.8,3.43,5.91,1.57,11.84,2.94,17.75,4.12.98.2,1.97.39,2.95.57,2.95.56,5.89,1.07,8.83,1.54,2.93.47,5.86.89,8.77,1.28,1.94.26,3.88.49,5.8.71,6.75.77,13.41,1.32,19.93,1.69,1.86.11,3.72.2,5.56.27,23.01.95,44.1-.35,61.06-2.51,1.36-.17,2.69-.35,3.99-.53,5.86-.82,11.17-1.74,15.81-2.69,3.1-.63,5.9-1.28,8.38-1.92.41-.11.82-.21,1.21-.32,3.55-.96,6.37-1.9,8.33-2.75,6.57-2.86,13.77-7.22,21.28-12.86,3.76-2.82,7.59-5.96,11.46-9.39,1.94-1.71,3.88-3.5,5.83-5.36,9.75-9.28,19.63-20.28,29.01-32.56,2.82-3.68,5.59-7.48,8.3-11.38,2.71-3.9,5.36-7.91,7.94-12,8.58-13.65,16.31-28.31,22.57-43.52.63-1.52,1.24-3.05,1.83-4.58,1.19-3.06,2.32-6.15,3.39-9.25.53-1.55,1.05-3.11,1.55-4.67,3-9.35,5.38-18.85,7.01-28.38,1.09-6.35,1.85-12.73,2.23-19.09.97-15.9-.38-31.74-4.66-47.05-5.81-20.78-13.9-39.94-23.76-57.58-.76-1.36-1.53-2.71-2.31-4.05-1.56-2.68-3.16-5.32-4.79-7.93s-3.31-5.18-5.03-7.72c-5.14-7.62-10.61-14.92-16.36-21.92-2.88-3.5-5.82-6.93-8.83-10.28-6.02-6.7-12.3-13.11-18.78-19.24-1.08-1.02-2.17-2.03-3.26-3.04-2.18-2.01-4.39-3.99-6.61-5.94-2.22-1.95-4.47-3.86-6.73-5.75-3.39-2.83-6.82-5.59-10.29-8.29s-6.97-5.32-10.49-7.88c-12.93-9.39-26.23-17.9-39.58-25.59-1.21-.7-2.43-1.39-3.64-2.08-6.07-3.43-12.14-6.69-18.19-9.8-7.26-3.72-14.48-7.22-21.61-10.49-3.57-1.64-7.11-3.22-10.63-4.75-2.34-1.02-4.67-2.02-6.99-2.99-64.85-27.23-118.24-36.2-118.24-36.2,0,0-36.21,58.74-65.23,135.43-.47,1.24-.93,2.48-1.4,3.72-.93,2.49-1.85,5-2.76,7.53-2.28,6.32-4.49,12.74-6.63,19.24-1.28,3.9-2.53,7.83-3.74,11.79-.81,2.64-1.6,5.29-2.38,7.95-.78,2.66-1.54,5.33-2.28,8-5.2,18.74-9.49,37.89-12.38,56.98-.62,4.09-1.18,8.18-1.66,12.26-.49,4.08-.9,8.16-1.25,12.22-.8,9.48-1.2,18.89-1.13,28.18.02,2.65.08,5.3.18,7.93,1.07,28.96,6.93,56.53,19.5,80.9Z"/>
    <path class="cls-15" d="M2153.03,9.7s-19.36,45.98-56.66,118.99c-.55,1.07-1.1,2.15-1.66,3.24-5.56,10.85-11.51,22.29-17.85,34.24-3.17,5.98-6.43,12.08-9.79,18.31-7.39,13.7-15.24,27.99-23.54,42.79-.75,1.35-1.51,2.7-2.28,4.05-3.81,6.77-7.72,13.64-11.72,20.61-2.4,4.18-4.83,8.4-7.3,12.65-10.69,18.42-22.01,37.46-33.94,56.98-3.67,6.01-7.4,12.06-11.19,18.16-4.74,7.62-9.56,15.31-14.48,23.06-.98,1.55-1.97,3.1-2.96,4.66-3.96,6.22-7.98,12.47-12.06,18.75-1.02,1.57-2.04,3.14-3.07,4.72-2.05,3.15-4.12,6.31-6.2,9.48-9.37,14.25-19.03,28.65-28.98,43.16-5.53,8.06-11.14,16.15-16.85,24.27-1.14,1.62-2.28,3.25-3.43,4.87-3.44,4.88-6.92,9.76-10.42,14.66-2.34,3.26-4.69,6.53-7.06,9.8-2.37,3.27-4.75,6.54-7.14,9.81-3.59,4.91-7.21,9.82-10.87,14.74-6.09,8.2-12.26,16.4-18.52,24.61-5.01,6.56-10.07,13.13-15.19,19.69-2.56,3.28-5.13,6.56-7.72,9.84-2.59,3.28-5.19,6.56-7.8,9.84-2.61,3.28-5.24,6.55-7.88,9.83-1.32,1.64-2.64,3.27-3.97,4.91-2.66,3.27-5.32,6.54-8.01,9.8-2.68,3.27-5.38,6.53-8.09,9.79s-5.43,6.52-8.17,9.77c-8.21,9.76-16.54,19.48-24.99,29.15-4.23,4.84-8.48,9.66-12.77,14.47-12.86,14.44-25.98,28.75-39.38,42.9-2.98,3.14-5.97,6.28-8.97,9.41-9.01,9.38-18.13,18.68-27.38,27.9-3.08,3.07-6.18,6.13-9.28,9.18-73.02,71.68-153.21,137.51-240.11,191.24-129.59,80.13-260.5,136.63-387.47,175.59-5.18,1.59-10.36,3.15-15.53,4.68-18.09,5.36-36.1,10.38-54.01,15.05-5.12,1.34-10.22,2.64-15.32,3.93-15.3,3.85-30.52,7.45-45.66,10.82-5.05,1.12-10.08,2.22-15.11,3.3-2.51.54-5.02,1.07-7.53,1.59-5.02,1.05-10.02,2.07-15.02,3.07-2.5.5-4.99.99-7.49,1.48-9.97,1.95-19.9,3.8-29.78,5.55-4.94.88-9.87,1.73-14.79,2.56-4.92.83-9.82,1.64-14.72,2.42-4.89.79-9.78,1.55-14.64,2.29-4.87.74-9.73,1.46-14.57,2.15-2.42.35-4.84.69-7.26,1.03-4.83.67-9.65,1.33-14.45,1.96s-9.6,1.24-14.37,1.83c-4.78.59-9.54,1.16-14.29,1.7-9.5,1.1-18.94,2.11-28.33,3.04-14.08,1.4-28.02,2.63-41.82,3.69-9.2.71-18.34,1.34-27.41,1.9-4.54.28-9.06.55-13.56.79-6.75.37-13.47.7-20.15,1-4.45.2-8.88.38-13.3.54s-8.81.31-13.19.44c-4.38.13-8.74.25-13.08.35-4.34.1-8.67.19-12.97.26-10.76.18-21.41.26-31.93.26-16.84,0-33.36-.23-49.54-.65-2.02-.05-4.04-.11-6.05-.17-12.07-.35-23.95-.81-35.63-1.36-1.95-.09-3.89-.19-5.82-.29-3.87-.2-7.72-.4-11.54-.62-3.82-.22-7.63-.44-11.4-.68-18.89-1.18-37.2-2.6-54.87-4.21-1.77-.16-3.53-.32-5.28-.49-21.06-1.98-41.21-4.22-60.38-6.64-1.6-.2-3.19-.4-4.77-.61-7.92-1.02-15.66-2.07-23.22-3.14-1.51-.21-3.02-.43-4.52-.65-124.39-17.92-199.35-41.74-199.35-41.74,0,0,3.07,2.36,9.06,6.64.35.25.71.51,1.09.77,3.91,2.78,8.92,6.28,15,10.4-8.97-2.64-13.73-4.09-13.73-4.09,0,0,216.19,145.62,545.55,247.33,4.17,1.29,8.36,2.57,12.56,3.84,16.82,5.09,33.93,10.07,51.31,14.9,4.35,1.21,8.71,2.41,13.09,3.6,8.76,2.38,17.58,4.72,26.48,7.02,57.79,14.95,118.37,28.2,181.27,38.89,19.35,3.29,38.93,6.34,58.71,9.12,24.72,3.48,49.77,6.54,75.12,9.13,25.34,2.6,50.98,4.73,76.9,6.35,10.36.65,20.77,1.21,31.22,1.69,26.12,1.2,52.51,1.87,79.12,1.96,37.26.13,74.99-.88,113.1-3.16,38.3-2.29,76.49-8.86,114-18.61,2.34-.61,4.69-1.23,7.03-1.87,21.05-5.71,41.88-12.4,62.37-19.88,2.28-.83,4.55-1.67,6.82-2.52,11.35-4.25,22.59-8.74,33.71-13.43,2.22-.94,4.44-1.88,6.66-2.84,6.64-2.86,13.24-5.79,19.79-8.79,26.19-11.98,51.6-24.97,75.98-38.5,4.06-2.26,8.1-4.53,12.1-6.81,48.07-27.4,91.88-56.66,129.49-84.03,3.13-2.28,6.23-4.55,9.27-6.8,79.24-58.58,128.67-106.89,128.67-106.89,0,0-178.88,62.03-472.47,109.32,5.79-2.5,11.59-5.03,17.4-7.62,6.36-2.84,12.74-5.73,19.12-8.68,6.38-2.95,12.77-5.95,19.17-9.02,6.4-3.06,12.81-6.18,19.22-9.36,12.83-6.36,25.7-12.94,38.6-19.77,64.74-34.25,122.69-73.59,174.58-116.69,4.15-3.45,8.26-6.92,12.34-10.42,42.77-36.71,81.3-75.99,116-117.08,3.31-3.91,6.58-7.84,9.81-11.79,19.42-23.67,37.6-47.9,54.62-72.56,2.84-4.11,5.64-8.23,8.41-12.36,13.86-20.66,26.93-41.58,39.25-62.7,4.93-8.45,9.74-16.92,14.43-25.43,4.69-8.5,9.26-17.03,13.72-25.57s8.8-17.11,13.04-25.69c2.12-4.29,4.21-8.58,6.27-12.88,2.06-4.3,4.1-8.59,6.1-12.9,4.01-8.6,7.92-17.21,11.72-25.83,6.65-15.07,12.98-30.16,19-45.22,5.16-12.91,10.09-25.81,14.81-38.67,3.93-10.72,7.71-21.42,11.35-32.08.73-2.13,1.45-4.26,2.16-6.39,5.73-17.04,11.09-33.99,16.1-50.81.63-2.1,1.25-4.2,1.86-6.3,1.23-4.2,2.44-8.38,3.63-12.56.6-2.09,1.18-4.18,1.77-6.26,2.34-8.34,4.59-16.64,6.77-24.89.54-2.06,1.08-4.12,1.62-6.18,2.14-8.23,4.19-16.42,6.17-24.55.49-2.03.98-4.06,1.47-6.09,8.74-36.49,15.94-71.93,21.86-105.81.33-1.88.65-3.76.98-5.63,6.75-39.33,11.79-76.51,15.54-110.76.18-1.63.35-3.26.53-4.87,8.28-77.64,9.91-139.77,9.89-177.06-.01-24.86-.76-38.67-.76-38.67Z"/>
    <path class="cls-15" d="M1196.8,1541.6c-8.3.85-16.55,1.64-24.76,2.39-16.41,1.49-32.63,2.77-48.66,3.85-8.01.54-15.98,1.04-23.89,1.49-3.96.22-7.9.44-11.83.64-7.86.4-15.68.76-23.44,1.07-23.29.93-46.13,1.46-68.5,1.63-3.73.03-7.44.05-11.14.05-33.31.07-65.54-.65-96.64-2.03-3.46-.15-6.9-.32-10.32-.49-6.85-.34-13.65-.71-20.39-1.11s-13.42-.83-20.05-1.3c-9.94-.69-19.75-1.45-29.42-2.26-3.22-.27-6.44-.55-9.63-.84-6.39-.57-12.72-1.17-18.99-1.79-6.27-.62-12.48-1.27-18.63-1.93-6.15-.67-12.24-1.36-18.27-2.07-3.01-.36-6.01-.72-9-1.08-11.93-1.47-23.62-3.01-35.06-4.63-17.15-2.43-33.74-5.01-49.73-7.71-13.33-2.25-26.25-4.58-38.76-6.97-5-.96-9.94-1.92-14.8-2.89-4.87-.97-9.67-1.95-14.4-2.94-4.73-.99-9.39-1.98-13.99-2.98-4.59-1-9.12-2-13.57-3-4.45-1.01-8.84-2.01-13.15-3.02-8.63-2.02-16.97-4.05-25.03-6.07-32.24-8.09-59.87-16.09-82.55-23.23-2.84-.89-5.59-1.77-8.27-2.64-42.87-13.83-65.73-23.83-65.73-23.83,0,0,19.06,26.21,60.18,63.42-5.74-3.6-8.61-5.53-8.61-5.53,0,0,39.05,40.37,99.05,96.38,1.22,1.14,2.46,2.29,3.7,3.45,6.21,5.78,12.63,11.72,19.25,17.79,5.29,4.86,10.71,9.79,16.25,14.8,2.77,2.5,5.56,5.03,8.39,7.57,9.88,8.88,20.1,17.97,30.6,27.17,3,2.63,6.02,5.27,9.07,7.92,6.09,5.3,12.27,10.63,18.53,15.98,4.69,4.01,9.43,8.04,14.2,12.07,25.47,21.49,52.07,43.15,79.17,64.1,3.39,2.62,6.78,5.23,10.18,7.82,1.7,1.3,3.4,2.59,5.11,3.88,6.82,5.17,13.66,10.28,20.51,15.32,11.99,8.83,24.03,17.45,36.06,25.8,3.44,2.38,6.87,4.75,10.3,7.08,1.72,1.17,3.43,2.33,5.15,3.49,5.15,3.47,10.29,6.88,15.42,10.23,3.42,2.23,6.84,4.44,10.25,6.61,8.52,5.44,17.01,10.7,25.44,15.74,1.69,1.01,3.37,2.01,5.05,3,11.77,6.95,23.43,13.47,34.92,19.5,67.04,35.17,135.87,55.73,203.65,65.83-10.61-1.19-21.32-2.55-32.16-4.1-36.57-5.22-72.97-13.15-108.66-23-6.69-1.85-13.36-3.77-20-5.75-4.43-1.32-8.84-2.67-13.24-4.04-4.4-1.37-8.79-2.78-13.16-4.2-2.19-.71-4.37-1.43-6.55-2.16-4.36-1.45-8.7-2.93-13.03-4.43-12.98-4.5-25.81-9.2-38.47-14.07-14.77-5.68-29.3-11.59-43.56-17.66-6.11-2.6-12.17-5.23-18.17-7.89-10-4.43-19.86-8.93-29.54-13.47-7.75-3.64-15.39-7.3-22.91-10.98-3.76-1.84-7.49-3.69-11.2-5.54-5.55-2.77-11.04-5.55-16.45-8.34-10.83-5.56-21.38-11.13-31.61-16.67-1.71-.92-3.4-1.85-5.09-2.77-15.19-8.29-29.67-16.49-43.35-24.47-1.52-.89-3.03-1.77-4.53-2.65-3-1.76-5.96-3.51-8.87-5.25-18.96-11.29-36.17-22.02-51.35-31.78-2.34-1.5-4.62-2.98-6.86-4.44-13.43-8.73-25.09-16.59-34.76-23.26-2.42-1.67-4.71-3.26-6.88-4.77-2.17-1.51-4.2-2.94-6.11-4.29-1.27-.9-2.48-1.76-3.64-2.58-.58-.41-1.14-.81-1.68-1.2-1.09-.78-2.13-1.53-3.1-2.23-7.29-5.26-11.16-8.21-11.16-8.21,0,0,.94,10,4.77,27.12.36,1.63.75,3.33,1.17,5.08,1.25,5.27,2.76,11.1,4.56,17.42,5.41,18.97,13.48,42.38,25.43,68.39-5.53-6.79-8.48-10.55-8.48-10.55,0,0,3.44,26.57,15.8,69.67.3,1.05.61,2.11.92,3.18,3.75,12.85,8.27,27.09,13.71,42.47,2.72,7.69,5.66,15.67,8.86,23.9,2.66,6.86,5.49,13.89,8.5,21.09.6,1.44,1.21,2.88,1.83,4.33,1.23,2.9,2.5,5.83,3.79,8.78.65,1.48,1.3,2.96,1.96,4.44,2.65,5.95,5.41,11.99,8.3,18.11.72,1.53,1.45,3.07,2.19,4.61,1.48,3.08,2.99,6.18,4.53,9.3,6.94,14.04,14.53,28.46,22.84,43.16,5.54,9.8,11.39,19.72,17.58,29.73s12.71,20.12,19.59,30.28c3.44,5.08,6.96,10.18,10.58,15.29,8.44,11.92,17.36,23.9,26.81,35.88,2.7,3.42,5.44,6.85,8.22,10.28,1.39,1.71,2.79,3.43,4.21,5.14,2.83,3.42,5.7,6.85,8.61,10.27,1.46,1.71,2.93,3.42,4.4,5.13,22.18,25.64,46.85,51.13,74.28,75.98,62.7,56.81,128.41,89.12,192.28,105.3,2.13.54,4.26,1.06,6.38,1.56,6.37,1.51,12.73,2.86,19.06,4.07,2.11.4,4.22.79,6.32,1.15,6.31,1.1,12.6,2.06,18.85,2.88,4.17.54,8.32,1.03,12.46,1.45,4.14.42,8.26.79,12.37,1.1,2.52.19,5.03.35,7.54.5-.22.04-.44.07-.66.11-1.84.3-3.69.6-5.55.9-38.96,6.28-80.76,11.76-125.03,15.89-27.4,2.55-54.5,4.05-81.07,4.67-2.04.05-4.08.09-6.12.13-6.11.11-12.2.18-18.25.2-60.52.24-117.86-3.86-169.33-9.97-1.72-.2-3.42-.41-5.13-.62-5.11-.62-10.16-1.27-15.14-1.93-4.99-.66-9.91-1.34-14.77-2.03-29.15-4.15-55.96-8.83-79.83-13.53-1.33-.26-2.64-.52-3.95-.78-5.23-1.05-10.32-2.09-15.26-3.13-1.23-.26-2.46-.52-3.67-.78-4.86-1.04-9.56-2.07-14.11-3.08-1.14-.25-2.26-.51-3.38-.76-50.2-11.37-79.88-20.98-79.88-20.98,0,0,6.84,15.05,23.73,37.34.51.68,1.03,1.36,1.56,2.05,2.65,3.44,5.54,7.05,8.67,10.79,1.88,2.24,3.84,4.53,5.9,6.87,2.74,3.11,5.64,6.3,8.71,9.55.77.81,1.54,1.63,2.33,2.45,2.36,2.46,4.82,4.95,7.38,7.47,11.07,10.91,23.96,22.32,38.86,33.76,2.29,1.76,4.63,3.52,7.02,5.28,4.78,3.52,9.75,7.03,14.92,10.53,2.58,1.75,5.22,3.49,7.9,5.23,1.34.87,2.7,1.73,4.07,2.6,2.74,1.73,5.52,3.45,8.36,5.17,7.09,4.28,14.51,8.51,22.26,12.65,4.65,2.49,9.42,4.94,14.31,7.36,3.26,1.61,6.58,3.21,9.95,4.79,8.43,3.95,17.2,7.79,26.33,11.49,1.83.74,3.67,1.48,5.52,2.21,3.71,1.46,7.48,2.89,11.3,4.31,1.91.71,3.84,1.41,5.78,2.1,3.88,1.39,7.82,2.75,11.82,4.08,8,2.67,16.24,5.23,24.71,7.66,8.48,2.44,17.2,4.75,26.17,6.93,22.42,5.44,46.39,10.03,72,13.55,5.12.7,10.31,1.37,15.56,1.98,5.25.62,10.57,1.19,15.96,1.71,26.93,2.63,55.54,4.1,85.91,4.2,3.04,0,6.09,0,9.16-.01,16.08-.09,31.66-.78,46.76-1.99,2.52-.2,5.02-.42,7.51-.65,9.96-.93,19.71-2.09,29.25-3.47,2.38-.34,4.76-.7,7.11-1.07,9.43-1.49,18.66-3.18,27.68-5.08,2.25-.47,4.5-.96,6.73-1.46,4.46-1,8.86-2.04,13.22-3.13,4.36-1.09,8.66-2.23,12.92-3.4,8.51-2.36,16.82-4.89,24.92-7.59,2.03-.67,4.04-1.36,6.04-2.05,4-1.39,7.96-2.81,11.87-4.27,11.72-4.38,22.99-9.1,33.84-14.09,3.61-1.66,7.18-3.36,10.7-5.08,10.56-5.17,20.69-10.59,30.4-16.21,3.24-1.87,6.43-3.77,9.58-5.69,9.44-5.75,18.46-11.69,27.09-17.75,4.31-3.03,8.52-6.09,12.63-9.18,6.85-5.15,13.43-10.36,19.74-15.61,2.52-2.1,5-4.21,7.44-6.32,3.66-3.17,7.22-6.34,10.68-9.52,2.31-2.12,4.58-4.24,6.81-6.35,5.57-5.29,10.87-10.58,15.93-15.82,2.02-2.1,4-4.19,5.94-6.27.97-1.04,1.93-2.08,2.88-3.12,5.7-6.22,11.04-12.36,16.03-18.36,1.66-2,3.29-3.98,4.87-5.95,2.38-2.95,4.67-5.86,6.88-8.72.74-.95,1.46-1.9,2.18-2.85,1.43-1.89,2.83-3.75,4.19-5.59,1.36-1.84,2.68-3.66,3.96-5.45,1.93-2.69,3.77-5.31,5.53-7.88.59-.85,1.17-1.7,1.74-2.54,1.14-1.68,2.24-3.33,3.31-4.95,11.74-17.79,19.16-31.7,22.81-38.99.33-.66.63-1.27.9-1.82,1.21-2.48,1.8-3.82,1.8-3.82,0,0-3.52,1.49-10.31,4.12-18.34-1.34-67.54-6.44-141.27-25.21-1.3-.33-2.61-.67-3.93-1.01-6.58-1.7-13.36-3.51-20.32-5.43-2.78-.77-5.6-1.56-8.44-2.36-2.84-.81-5.72-1.63-8.62-2.47-1.45-.42-2.91-.85-4.37-1.28-5.86-1.73-11.84-3.53-17.93-5.42-1.52-.47-3.05-.95-4.59-1.43-59.94-18.78-130.66-45.36-210.07-82.98-55.91-26.48-112.97-66.52-166.49-110.84,20.38,10.74,42.17,20.93,65.49,30.42,6.01,2.45,12.12,4.84,18.33,7.2,6.21,2.35,12.52,4.65,18.94,6.9,12.83,4.5,26.08,8.8,39.76,12.87,6.84,2.04,13.79,4.02,20.84,5.94,3.53.96,7.08,1.91,10.67,2.84,14.33,3.72,29.1,7.21,44.32,10.43,11.42,2.42,23.09,4.69,35.02,6.81,6.64,1.18,13.24,2.24,19.79,3.19,6.55.95,13.05,1.79,19.5,2.52,6.45.73,12.86,1.35,19.21,1.86,6.36.51,12.66.92,18.92,1.22,15.65.76,30.99.88,46.03.4,15.04-.47,29.77-1.54,44.2-3.14,8.66-.96,17.2-2.11,25.64-3.45,14.06-2.23,27.81-4.96,41.25-8.15,8.06-1.91,16.02-3.99,23.86-6.22,13.07-3.71,25.82-7.85,38.27-12.36,4.98-1.8,9.9-3.67,14.78-5.58,21.95-8.63,42.88-18.4,62.78-29,4.42-2.35,8.79-4.75,13.12-7.18,21.61-12.17,41.94-25.27,60.99-38.9,1.9-1.36,3.8-2.73,5.68-4.1,26.31-19.22,50.08-39.39,71.3-59.35,3.03-2.85,6.01-5.7,8.93-8.54s5.8-5.67,8.62-8.49c1.41-1.41,2.81-2.82,4.19-4.22,5.53-5.62,10.86-11.19,15.97-16.68,3.83-4.12,7.55-8.2,11.14-12.22,2.4-2.68,4.74-5.34,7.03-7.97,2.29-2.63,4.53-5.23,6.71-7.8,4.37-5.14,8.52-10.16,12.46-15.03,2.95-3.65,5.79-7.22,8.5-10.69,1.81-2.31,3.56-4.59,5.26-6.81.85-1.11,1.69-2.21,2.51-3.3,1.65-2.18,3.24-4.31,4.78-6.39,2.31-3.12,4.5-6.13,6.56-9.01,1.38-1.92,2.7-3.78,3.97-5.59,14.58-20.76,21.96-33.68,21.96-33.68,0,0-9.91,7.17-28.91,18.14-1.46.84-2.98,1.71-4.55,2.6-.78.44-1.58.89-2.39,1.35-1.62.91-3.3,1.84-5.03,2.78-12.97,7.1-28.91,15.24-47.68,23.79-2.5,1.14-5.05,2.29-7.66,3.44-9.11,4.03-18.83,8.13-29.14,12.24-8.84,3.52-18.12,7.04-27.82,10.52-6.47,2.32-13.13,4.62-19.97,6.89-5.13,1.7-10.37,3.39-15.72,5.06-1.78.56-3.57,1.11-5.38,1.66-16.24,4.95-33.4,9.69-51.47,14.07-6.02,1.46-12.14,2.88-18.36,4.26-4.15.92-8.34,1.82-12.57,2.69-6.35,1.32-12.8,2.58-19.34,3.8-28.36,5.27-58.53,9.54-90.42,12.39-2.45.22-4.92.43-7.39.63-4.93.4-9.91.77-14.92,1.11,1.06-.1,2.12-.18,3.18-.28,2.73-.26,5.46-.53,8.17-.81,19.02-1.97,37.69-4.53,55.93-7.55,2.61-.43,5.2-.87,7.79-1.32,5.18-.9,10.32-1.84,15.42-2.81,2.55-.49,5.09-.98,7.62-1.49,25.32-5.04,49.66-10.9,72.81-17.25,2.31-.64,4.62-1.28,6.91-1.92,16.03-4.52,31.47-9.26,46.23-14.11,2.11-.69,4.2-1.39,6.28-2.09,4.16-1.39,8.27-2.8,12.31-4.2,4.05-1.41,8.04-2.82,11.96-4.24s7.8-2.83,11.6-4.25c5.71-2.13,11.28-4.25,16.71-6.37,12.66-4.94,24.54-9.82,35.54-14.54,1.57-.67,3.13-1.35,4.66-2.01,6.15-2.67,12.01-5.28,17.56-7.81,9.73-4.43,18.53-8.6,26.32-12.42,2.23-1.09,4.37-2.15,6.44-3.18,22.69-11.32,35.25-18.75,35.25-18.75,0,0-3.71.89-11.13,2.15-.87.15-1.8.3-2.77.46-1.46.24-3.04.49-4.74.74-2.26.34-4.72.69-7.4,1.05-2,.27-4.12.54-6.36.81-1.49.18-3.03.36-4.62.55-2.39.27-4.89.54-7.51.81s-5.35.53-8.2.79c-.95.09-1.91.17-2.89.25-2.93.25-5.97.49-9.13.73-5.26.39-10.85.75-16.75,1.06-7.09.38-14.64.7-22.65.93-4.01.12-8.13.21-12.36.29-5.65.1-11.5.15-17.56.16-3.03,0-6.11,0-9.24-.03s-6.32-.06-9.55-.1c-1.62-.02-3.25-.05-4.89-.08-3.29-.06-6.62-.14-10.01-.23-1.69-.05-3.4-.1-5.12-.15-3.44-.11-6.93-.23-10.48-.37-8.86-.35-18.04-.8-27.54-1.36-13.3-.79-27.23-1.8-41.79-3.08-2.08-.18-4.17-.37-6.28-.56-10.53-.96-21.38-2.07-32.55-3.31-2.23-.25-4.48-.51-6.74-.77-24.86-2.88-51.27-6.49-79.23-10.97-2.54-.41-5.1-.82-7.66-1.24-5.14-.84-10.32-1.72-15.56-2.62-2.62-.45-5.25-.91-7.9-1.38-15.87-2.8-32.2-5.87-48.99-9.24-25.19-5.05-51.42-10.77-78.69-17.23-12.12-2.87-24.45-5.89-36.98-9.06-18.8-4.76-38.05-9.85-57.78-15.32-23.18-6.42-45.72-12.92-67.64-19.46,30.76,3.73,62.77,6.57,96.1,8.33,4.45.24,8.93.45,13.43.65,22.5.99,45.58,1.49,69.25,1.47,28.4-.02,57.66-.8,87.77-2.41,101.65-5.42,187.33-25.46,259.54-54.94,9.85-4.02,19.44-8.21,28.79-12.57,6.23-2.9,12.36-5.88,18.38-8.93s11.93-6.16,17.74-9.33c14.52-7.94,28.38-16.29,41.62-24.97,2.65-1.74,5.27-3.49,7.87-5.25,5.2-3.53,10.29-7.11,15.29-10.74,2.5-1.81,4.97-3.64,7.43-5.48,4.9-3.68,9.71-7.4,14.42-11.17,2.36-1.88,4.69-3.78,7-5.68,11.54-9.52,22.5-19.3,32.9-29.27,12.48-11.97,24.16-24.22,35.09-36.64,3.64-4.14,7.2-8.3,10.68-12.48,20.87-25.06,38.8-50.68,54.2-76.02,2.57-4.22,5.06-8.44,7.49-12.64,72.84-126.13,84.06-241.78,84.06-241.78,0,0-316.23,292.11-619.62,333.82-25.72,3.54-51.04,6.56-75.94,9.1Z"/>
  </g>
  <path class="cls-1" d="M870.33,467s-154.33,250.37-81.16,392.14c72.69,140.84,271.53,111.62,299.52,99.46,52.6-22.86,145.13-142.06,117.75-240.08-57.17-204.64-336.11-251.51-336.11-251.51Z"/>
  <path class="cls-10" d="M870.33,467s-154.33,250.37-81.16,392.14c72.69,140.84,271.53,111.62,299.52,99.46,52.6-22.86,145.13-142.06,117.75-240.08-57.17-204.64-336.11-251.51-336.11-251.51Z"/>
  <path class="cls-7" d="M26.63,1159.8s567.56,382.3,1264.41,340.68c306.38-18.29,605.9-310.96,605.9-310.96,0,0-283.51,98.32-722.5,141.77-441.99,43.73-1147.8-171.49-1147.8-171.49Z"/>
  <path class="cls-14" d="M26.63,1159.8s567.56,382.3,1264.41,340.68c306.38-18.29,605.9-310.96,605.9-310.96,0,0-283.51,98.32-722.5,141.77-441.99,43.73-1147.8-171.49-1147.8-171.49Z"/>
  <path class="cls-2" d="M409.75,1505.78s266.49,275.46,476.58,385.7c370.41,194.34,795.69-57.17,795.69-57.17,0,0-210.35,50.3-631.06-66.31-427.94-118.61-641.21-262.22-641.21-262.22Z"/>
  <path class="cls-11" d="M409.75,1505.78s266.49,275.46,476.58,385.7c370.41,194.34,795.69-57.17,795.69-57.17,0,0-210.35,50.3-631.06-66.31-427.94-118.61-641.21-262.22-641.21-262.22Z"/>
  <path class="cls-8" d="M511.37,1804.59s222.82,283.79,429.85,381.85c260.65,123.47,427.56,128.05,427.56,128.05,0,0-322.38,203.49-589.89-38.88-234.01-212.01-267.51-471.02-267.51-471.02Z"/>
  <path class="cls-9" d="M511.37,1804.59s222.82,283.79,429.85,381.85c260.65,123.47,427.56,128.05,427.56,128.05,0,0-322.38,203.49-589.89-38.88-234.01-212.01-267.51-471.02-267.51-471.02Z"/>
  <path class="cls-3" d="M413.04,2357.92s240.08,77.74,509.88,52.59c269.81-25.15,448.15-100.6,448.15-100.6,0,0-118.9,270.1-461.87,272.09-393.26,2.28-496.15-224.07-496.15-224.07Z"/>
  <path class="cls-17" d="M413.04,2357.92s240.08,77.74,509.88,52.59c269.81-25.15,448.15-100.6,448.15-100.6,0,0-118.9,270.1-461.87,272.09-393.26,2.28-496.15-224.07-496.15-224.07Z"/>
  <path class="cls-1" d="M15.22,1146.08s713.11,226.59,1390.13-192.06C1878.66,661.35,2153.03,9.7,2153.03,9.7c0,0,47.84,883.96-615.05,1234.7C712.56,1681.13,15.22,1146.08,15.22,1146.08Z"/>
  <path class="cls-10" d="M15.22,1146.08s713.11,226.59,1390.13-192.06C1878.66,661.35,2153.03,9.7,2153.03,9.7c0,0,47.84,883.96-615.05,1234.7C712.56,1681.13,15.22,1146.08,15.22,1146.08Z"/>
  <path class="cls-6" d="M358.17,1447.9s365.82,160.06,914.57,84.6c303.39-41.72,619.62-333.82,619.62-333.82,0,0-51.08,526.34-642.49,557.9-642.49,34.31-891.7-308.67-891.7-308.67Z"/>
  <path class="cls-16" d="M358.17,1447.9s365.82,160.06,914.57,84.6c303.39-41.72,619.62-333.82,619.62-333.82,0,0-51.08,526.34-642.49,557.9-642.49,34.31-891.7-308.67-891.7-308.67Z"/>
  <path class="cls-5" d="M483.92,1697.13s281.33,214.29,573.91,256.09c384.12,54.87,624.19-118.9,624.19-118.9,0,0-228.64,400.14-653.92,324.68-509.12-90.33-544.18-461.86-544.18-461.86Z"/>
  <path class="cls-13" d="M483.92,1697.13s281.33,214.29,573.91,256.09c384.12,54.87,624.19-118.9,624.19-118.9,0,0-228.64,400.14-653.92,324.68-509.12-90.33-544.18-461.86-544.18-461.86Z"/>
  <polygon class="cls-4" points="2114.67 2277.28 2114.67 2037.03 2156.04 2037.03 2156.04 2131.65 2236.47 2131.65 2236.47 2037.03 2277.83 2037.03 2277.83 2277.28 2236.47 2277.28 2236.47 2172.26 2156.04 2172.26 2156.04 2277.28 2114.67 2277.28"/>
  <path class="cls-4" d="M2313.31,2277.28v-174.15h39.09v174.15h-39.09ZM2313.31,2079.64v-42.61h39.09v42.61h-39.09Z"/>
  <path class="cls-4" d="M2416.56,2186.83c0,18.65,2.18,32.14,6.54,40.48,6.3,12.07,15.09,18.1,26.4,18.1,8.99,0,16.64-4.51,22.94-13.57,6.3-9.05,9.45-22.57,9.45-40.55,0-20.08-3.06-34.53-9.18-43.36-6.12-8.84-13.95-13.25-23.49-13.25s-17.02,4.36-23.28,13.09c-6.24,8.71-9.38,21.75-9.38,39.07ZM2520.95,2277.28h-36.21v-25.55c-6.06,9.94-13.2,17.41-21.45,22.41-8.23,5.01-16.55,7.51-24.94,7.51-17.02,0-31.62-8.07-43.78-24.21-12.14-16.14-18.22-38.66-18.22-67.55s5.92-52.01,17.73-67.39c11.82-15.37,26.74-23.07,44.82-23.07,16.55,0,30.88,8.08,42.98,24.25v-86.66h39.07v240.26Z"/>
  <path class="cls-4" d="M2650.17,2277.28v-26.05c-5.39,9.29-12.49,16.69-21.28,22.17-8.79,5.5-18.08,8.25-27.85,8.25s-18.88-2.58-26.8-7.73c-7.9-5.14-13.64-12.38-17.17-21.7-3.53-9.31-5.3-22.19-5.3-38.62v-110.47h39.07v80.2c0,24.54.73,39.57,2.18,45.1,1.44,5.53,4.06,9.91,7.88,13.14,3.82,3.24,8.67,4.85,14.55,4.85,6.7,0,12.71-2.17,18.02-6.49,5.32-4.32,8.96-9.69,10.91-16.1,1.97-6.41,2.95-22.1,2.95-47.08v-73.61h39.07v174.15h-36.23Z"/>
  <path class="cls-4" d="M2756.85,2187.49c0,19.63,3.3,34.14,9.87,43.51,6.57,9.38,14.6,14.06,24.05,14.06s16.64-4.3,22.65-12.91c6.03-8.61,9.05-22.73,9.05-42.36,0-18.31-3.11-31.91-9.32-40.8-6.21-8.88-13.89-13.33-23.07-13.33s-17.48,4.36-23.78,13.08c-6.3,8.72-9.45,21.63-9.45,38.73ZM2718.35,2103.13h36.52v25.56c4.73-8.74,11.14-15.79,19.21-21.17,8.08-5.39,17.04-8.08,26.89-8.08,17.19,0,31.77,7.94,43.75,23.8,11.98,15.88,17.95,37.99,17.95,66.32s-6.03,51.74-18.11,67.88c-12.07,16.14-26.71,24.21-43.91,24.21-8.17,0-15.58-1.91-22.23-5.73-6.64-3.83-13.64-10.39-20.99-19.67v87.15h-39.07v-240.27Z"/>
  <path class="cls-4" d="M2947.97,2199.44l40.2-4.7c2.42,15.81,7.3,27.44,14.66,34.85,7.37,7.42,17.3,11.12,29.78,11.12,13.24,0,23.21-3.3,29.93-9.9,6.72-6.61,10.07-14.32,10.07-23.17,0-5.67-1.4-10.5-4.22-14.49-2.84-3.99-7.76-7.46-14.78-10.4-4.81-1.98-15.77-5.48-32.88-10.52-22.01-6.46-37.45-14.4-46.33-23.83-12.49-13.25-18.72-29.42-18.72-48.5,0-12.27,2.93-23.76,8.81-34.44,5.88-10.68,14.35-18.82,25.4-24.4,11.07-5.59,24.41-8.39,40.07-8.39,25.54,0,44.77,6.68,57.67,20.04,12.93,13.34,19.7,31.17,20.35,53.46l-41.36,1.67c-1.75-12.4-5.52-21.32-11.27-26.74-5.75-5.43-14.38-8.16-25.91-8.16s-21.19,2.91-27.93,8.73c-4.31,3.72-6.5,8.71-6.5,14.97,0,5.7,2.04,10.58,6.12,14.65,5.19,5.15,17.79,10.51,37.79,16.1,20.01,5.59,34.81,11.36,44.4,17.31,9.58,5.96,17.08,14.1,22.5,24.43,5.43,10.32,8.14,23.08,8.14,38.27,0,13.77-3.26,26.66-9.76,38.69-6.5,12.02-15.69,20.95-27.56,26.8-11.89,5.84-26.69,8.78-44.44,8.78-25.8,0-45.62-7-59.46-21-13.84-14.01-22.1-34.41-24.78-61.22Z"/>
  <path class="cls-4" d="M3229.08,2175.61c-.27-13.37-3.19-23.54-8.74-30.5-5.57-6.95-12.33-10.44-20.28-10.44-8.52,0-15.57,3.68-21.12,11.02-5.57,7.35-8.3,17.31-8.19,29.92h58.33ZM3226.81,2222.26l39.07,7.72c-5.01,16.84-12.93,29.66-23.74,38.47-10.81,8.8-24.34,13.21-40.6,13.21-25.71,0-44.73-9.9-57.09-29.71-9.74-15.87-14.62-35.9-14.62-60.08,0-28.9,6.41-51.52,19.21-67.89,12.8-16.36,28.98-24.54,48.57-24.54,21.99,0,39.32,8.57,52.05,25.69,12.71,17.12,18.77,43.35,18.22,78.67h-97.84c.27,13.67,3.42,24.3,9.43,31.9,6.03,7.6,13.53,11.4,22.48,11.4,6.12,0,11.25-1.96,15.42-5.88,4.15-3.92,7.3-10.24,9.43-18.95Z"/>
  <path class="cls-4" d="M3331.33,2037.03v89.06c12.71-17.77,27.89-26.65,45.53-26.65,9.08,0,17.24,1.98,24.54,5.9,7.28,3.93,12.76,8.96,16.46,15.07,3.68,6.12,6.21,12.89,7.56,20.32,1.37,7.42,2.04,18.93,2.04,34.54v102.02h-39.07v-91.86c0-18.22-.75-29.79-2.26-34.71-1.51-4.92-4.15-8.81-7.96-11.71-3.8-2.89-8.57-4.34-14.29-4.34-6.59,0-12.45,1.86-17.62,5.57-5.15,3.71-8.94,9.3-11.34,16.79-2.38,7.47-3.59,18.52-3.59,33.15v87.1h-39.07v-240.26h39.07Z"/>
  <path class="cls-4" d="M3541.54,2194.07c-5.01,1.97-12.94,4.31-23.79,7.05-10.87,2.73-17.97,5.41-21.3,8.03-5.12,4.25-7.66,9.66-7.66,16.21s2.04,12.02,6.12,16.7c4.1,4.71,9.28,7.05,15.6,7.05,7.06,0,13.78-2.73,20.19-8.19,4.73-4.14,7.85-9.22,9.34-15.23,1.02-3.93,1.51-11.41,1.51-22.44v-9.18ZM3489.08,2156.82l-35.37-7.38c4.01-16.99,10.87-29.58,20.63-37.75,9.74-8.17,24.23-12.25,43.46-12.25,17.46,0,30.46,2.43,39.01,7.3,8.54,4.85,14.55,11.02,18.04,18.5,3.48,7.48,5.22,21.21,5.22,41.19l-.58,53.72c0,15.28.64,26.55,1.88,33.82,1.24,7.25,3.57,15.04,6.97,23.33h-38.8c-1.02-3.01-2.26-7.5-3.75-13.44-.64-2.7-1.11-4.49-1.38-5.35-6.66,7.72-13.78,13.51-21.37,17.37-7.59,3.86-15.69,5.79-24.3,5.79-15.18,0-27.14-4.86-35.9-14.58-8.74-9.71-13.11-22-13.11-36.85,0-9.83,1.98-18.6,5.97-26.29,3.99-7.7,9.59-13.6,16.79-17.7,7.17-4.1,17.55-7.67,31.09-10.73,18.26-4.04,30.93-7.81,37.98-11.31v-4.64c0-8.96-1.86-15.34-5.57-19.16-3.73-3.81-10.76-5.73-21.08-5.73-6.97,0-12.42,1.64-16.33,4.92-3.9,3.28-7.06,9.02-9.49,17.23Z"/>
  <path class="cls-4" d="M3679.16,2103.13v36.57h-26.8v70.56c0,14.29.25,22.61.76,24.98.51,2.37,1.67,4.31,3.5,5.85,1.8,1.54,4.01,2.3,6.63,2.3,3.62,0,8.88-1.47,15.77-4.42l3.3,35.79c-9.08,4.59-19.35,6.89-30.84,6.89-7.03,0-13.38-1.4-19.02-4.21-5.64-2.79-9.79-6.42-12.43-10.86-2.64-4.45-4.46-10.47-5.48-18.03-.84-5.38-1.26-16.25-1.26-32.61v-76.24h-17.97v-36.57h17.97v-34.56l39.09-27.18v61.74h26.8Z"/>
  <path class="cls-4" d="M2209.65,1853.47v-40.6h88.72v95.89c-8.63,9.86-21.14,18.56-37.5,26.07-16.38,7.51-32.97,11.26-49.77,11.26-21.32,0-39.92-5.28-55.8-15.85-15.86-10.57-27.78-25.69-35.77-45.33-7.97-19.66-11.96-41.04-11.96-64.14,0-25.07,4.46-47.35,13.36-66.84,8.92-19.49,21.96-34.44,39.12-44.84,13.09-7.99,29.38-12,48.88-12,25.34,0,45.13,6.27,59.39,18.82,14.24,12.54,23.41,29.88,27.49,51.99l-41.07,9.06c-2.88-11.82-8.27-21.15-16.2-27.99-7.92-6.84-17.8-10.26-29.67-10.26-17.97,0-32.28,6.73-42.87,20.19-10.61,13.46-15.93,33.43-15.93,59.91,0,28.56,5.37,49.97,16.13,64.26,10.76,14.27,24.85,21.41,42.29,21.41,8.61,0,17.26-1.98,25.92-5.98,8.68-3.99,16.13-8.82,22.34-14.52v-30.5h-47.08Z"/>
  <path class="cls-4" d="M2416.74,1840.05c-.29-13.37-3.2-23.54-8.76-30.5-5.55-6.95-12.33-10.44-20.28-10.44-8.52,0-15.57,3.68-21.12,11.02-5.55,7.35-8.28,17.31-8.19,29.92h58.35ZM2414.44,1886.69l39.09,7.72c-5.02,16.84-12.93,29.66-23.76,38.47-10.81,8.8-24.34,13.21-40.58,13.21-25.72,0-44.75-9.9-57.09-29.71-9.76-15.87-14.64-35.9-14.64-60.08,0-28.9,6.41-51.52,19.21-67.89,12.8-16.36,29-24.54,48.57-24.54,21.99,0,39.34,8.57,52.05,25.69,12.71,17.12,18.79,43.35,18.22,78.67h-97.84c.29,13.67,3.42,24.3,9.45,31.9,6.01,7.6,13.51,11.4,22.48,11.4,6.1,0,11.23-1.96,15.4-5.88,4.17-3.92,7.32-10.24,9.43-18.95Z"/>
  <path class="cls-4" d="M2517.83,1941.72h-39.07v-174.15h36.21v24.74c6.24-11.69,11.85-19.34,16.84-22.98,4.97-3.63,10.63-5.45,16.95-5.45,8.94,0,17.55,2.9,25.83,8.69l-12.12,40.13c-6.61-5.03-12.74-7.55-18.41-7.55s-10.14,1.78-13.96,5.33c-3.8,3.55-6.81,9.96-8.99,19.24-2.18,9.28-3.28,28.71-3.28,58.29v53.71Z"/>
  <path class="cls-4" d="M2665.68,1858.5c-5.02,1.97-12.94,4.31-23.81,7.05-10.87,2.73-17.95,5.41-21.3,8.03-5.12,4.25-7.66,9.66-7.66,16.21s2.06,12.02,6.14,16.7c4.08,4.71,9.28,7.05,15.58,7.05,7.06,0,13.78-2.73,20.19-8.19,4.73-4.14,7.85-9.22,9.34-15.23,1.02-3.93,1.53-11.41,1.53-22.44v-9.18ZM2613.19,1821.25l-35.37-7.38c4.01-16.99,10.87-29.58,20.63-37.75,9.74-8.17,24.23-12.25,43.46-12.25,17.48,0,30.48,2.43,39.01,7.3,8.54,4.85,14.56,11.02,18.04,18.5,3.48,7.48,5.22,21.21,5.22,41.19l-.58,53.72c0,15.28.64,26.55,1.88,33.82,1.24,7.25,3.57,15.04,6.97,23.33h-38.8c-1-3.01-2.26-7.5-3.73-13.44-.66-2.7-1.11-4.49-1.4-5.35-6.66,7.72-13.78,13.51-21.37,17.37-7.59,3.86-15.69,5.79-24.3,5.79-15.18,0-27.14-4.86-35.88-14.58-8.76-9.71-13.13-22-13.13-36.85,0-9.83,1.98-18.6,5.99-26.29,3.99-7.7,9.58-13.6,16.77-17.7,7.19-4.1,17.55-7.67,31.09-10.73,18.28-4.04,30.95-7.81,37.99-11.31v-4.64c0-8.96-1.86-15.34-5.59-19.16-3.71-3.81-10.74-5.73-21.08-5.73-6.97,0-12.42,1.64-16.33,4.92-3.9,3.28-7.06,9.02-9.49,17.23Z"/>
  <polygon class="cls-4" points="2734.26 1941.72 2734.26 1701.46 2773.33 1701.46 2773.33 1828.91 2819.12 1767.57 2867.32 1767.57 2816.82 1831.19 2871.04 1941.72 2828.82 1941.72 2791.44 1863.15 2773.33 1885.97 2773.33 1941.72 2734.26 1941.72"/>
  <path class="cls-4" d="M2968.86,1858.5c-5.01,1.97-12.96,4.31-23.81,7.05s-17.95,5.41-21.3,8.03c-5.1,4.25-7.66,9.66-7.66,16.21s2.04,12.02,6.14,16.7c4.08,4.71,9.28,7.05,15.58,7.05,7.06,0,13.78-2.73,20.19-8.19,4.73-4.14,7.85-9.22,9.32-15.23,1.04-3.93,1.55-11.41,1.55-22.44v-9.18ZM2916.37,1821.25l-35.37-7.38c3.99-16.99,10.87-29.58,20.63-37.75,9.76-8.17,24.23-12.25,43.46-12.25,17.46,0,30.48,2.43,39.01,7.3,8.54,4.85,14.56,11.02,18.04,18.5,3.48,7.48,5.22,21.21,5.22,41.19l-.58,53.72c0,15.28.62,26.55,1.88,33.82,1.24,7.25,3.57,15.04,6.97,23.33h-38.8c-1.02-3.01-2.26-7.5-3.75-13.44-.64-2.7-1.11-4.49-1.38-5.35-6.66,7.72-13.8,13.51-21.37,17.37-7.59,3.86-15.69,5.79-24.3,5.79-15.18,0-27.14-4.86-35.88-14.58-8.76-9.71-13.13-22-13.13-36.85,0-9.83,2-18.6,5.99-26.29,3.99-7.7,9.58-13.6,16.75-17.7,7.19-4.1,17.57-7.67,31.11-10.73,18.28-4.04,30.93-7.81,37.99-11.31v-4.64c0-8.96-1.88-15.34-5.59-19.16-3.71-3.81-10.76-5.73-21.08-5.73-6.97,0-12.42,1.64-16.33,4.92-3.91,3.28-7.06,9.02-9.49,17.23Z"/>
  <path class="cls-4" d="M3173.48,1941.72h-39.07v-88.74c0-18.77-.86-30.91-2.53-36.43-1.69-5.51-4.42-9.79-8.23-12.85-3.79-3.06-8.36-4.59-13.69-4.59-6.85,0-12.98,2.18-18.41,6.55-5.43,4.36-9.16,10.15-11.18,17.36-2,7.2-3.02,20.52-3.02,39.95v78.75h-39.07v-174.15h36.23v25.56c12.96-19.5,29.29-29.26,48.99-29.26,8.68,0,16.6,1.84,23.79,5.49,7.19,3.67,12.63,8.33,16.31,14.01,3.68,5.67,6.24,12.12,7.7,19.32,1.44,7.22,2.17,17.52,2.17,30.96v108.08Z"/>
  <polygon class="cls-4" points="3277.6 1941.72 3277.6 1701.46 3339.54 1701.46 3376.15 1865.36 3412.34 1701.46 3474.4 1701.46 3474.4 1941.72 3436.19 1941.72 3436.04 1752.59 3395.77 1941.72 3356.05 1941.72 3315.96 1752.59 3315.82 1941.72 3277.6 1941.72"/>
  <path class="cls-4" d="M3590.14,1858.5c-5.01,1.97-12.94,4.31-23.79,7.05-10.87,2.73-17.97,5.41-21.32,8.03-5.1,4.25-7.65,9.66-7.65,16.21s2.04,12.02,6.12,16.7c4.08,4.71,9.28,7.05,15.6,7.05,7.05,0,13.78-2.73,20.19-8.19,4.73-4.14,7.85-9.22,9.32-15.23,1.02-3.93,1.53-11.41,1.53-22.44v-9.18ZM3537.67,1821.25l-35.37-7.38c3.99-16.99,10.87-29.58,20.61-37.75,9.76-8.17,24.25-12.25,43.47-12.25,17.46,0,30.46,2.43,39,7.3,8.56,4.85,14.56,11.02,18.04,18.5,3.5,7.48,5.22,21.21,5.22,41.19l-.56,53.72c0,15.28.62,26.55,1.86,33.82,1.26,7.25,3.57,15.04,6.97,23.33h-38.78c-1.02-3.01-2.28-7.5-3.75-13.44-.66-2.7-1.11-4.49-1.4-5.35-6.64,7.72-13.78,13.51-21.37,17.37-7.59,3.86-15.69,5.79-24.3,5.79-15.17,0-27.13-4.86-35.88-14.58-8.74-9.71-13.13-22-13.13-36.85,0-9.83,2-18.6,5.99-26.29,3.99-7.7,9.58-13.6,16.77-17.7,7.19-4.1,17.57-7.67,31.11-10.73,18.26-4.04,30.93-7.81,37.98-11.31v-4.64c0-8.96-1.86-15.34-5.57-19.16-3.73-3.81-10.76-5.73-21.08-5.73-6.99,0-12.43,1.64-16.33,4.92-3.91,3.28-7.08,9.02-9.49,17.23Z"/>
  <path class="cls-4" d="M3646.17,1892.73l39.36-7.05c1.67,8.89,5.06,15.66,10.18,20.27,5.1,4.61,12.25,6.91,21.45,6.91,10.12,0,17.73-2.18,22.85-6.57,3.42-3.06,5.15-7.16,5.15-12.31,0-3.5-.93-6.41-2.79-8.7-1.97-2.19-6.34-4.21-13.11-6.08-31.6-8.21-51.65-15.71-60.1-22.5-11.72-9.42-17.57-22.51-17.57-39.26,0-15.12,5.06-27.83,15.18-38.12,10.12-10.29,25.83-15.45,47.1-15.45s35.3,3.91,45.15,11.71c9.85,7.8,16.62,19.33,20.35,34.61l-36.81,8.05c-1.57-6.82-4.59-12.04-9.03-15.68-4.42-3.63-10.76-5.45-18.97-5.45-10.36,0-17.79,1.7-22.27,5.09-2.99,2.41-4.48,5.53-4.48,9.37,0,3.28,1.29,6.07,3.9,8.37,3.55,3.06,15.77,7.38,36.68,12.97,20.92,5.59,35.52,12.43,43.8,20.52,8.21,8.2,12.31,19.63,12.31,34.28,0,15.96-5.68,29.68-17.02,41.17-11.34,11.49-28.13,17.22-50.34,17.22-20.17,0-36.14-4.79-47.9-14.36-11.76-9.58-19.46-22.57-23.08-39.01Z"/>
  <path class="cls-4" d="M3792.91,1767.57h41.64l35.52,123.54,34.66-123.54h40.49l-52.2,167.6-9.43,30.26c-3.44,10.13-6.72,17.88-9.85,23.22-3.11,5.34-6.7,9.68-10.76,13-4.06,3.32-9.05,5.92-14.95,7.76-5.93,1.86-12.62,2.79-20.06,2.79s-14.95-.93-22.23-2.78l-3.42-35.94c6.15,1.43,11.69,2.14,16.64,2.14,9.12,0,15.88-3.16,20.24-9.46,4.39-6.31,7.74-14.34,10.07-24.1l-56.36-174.49Z"/>
  <path class="cls-4" d="M4044.89,1858.5c-5.01,1.97-12.94,4.31-23.79,7.05-10.87,2.73-17.97,5.41-21.3,8.03-5.12,4.25-7.66,9.66-7.66,16.21s2.04,12.02,6.12,16.7c4.1,4.71,9.28,7.05,15.6,7.05,7.06,0,13.78-2.73,20.19-8.19,4.73-4.14,7.85-9.22,9.34-15.23,1.02-3.93,1.51-11.41,1.51-22.44v-9.18ZM3992.42,1821.25l-35.37-7.38c4.01-16.99,10.87-29.58,20.63-37.75,9.74-8.17,24.23-12.25,43.46-12.25,17.46,0,30.46,2.43,39.01,7.3,8.54,4.85,14.55,11.02,18.04,18.5,3.48,7.48,5.22,21.21,5.22,41.19l-.58,53.72c0,15.28.64,26.55,1.88,33.82,1.24,7.25,3.57,15.04,6.97,23.33h-38.8c-1.02-3.01-2.26-7.5-3.75-13.44-.64-2.7-1.11-4.49-1.38-5.35-6.66,7.72-13.78,13.51-21.37,17.37-7.59,3.86-15.69,5.79-24.3,5.79-15.18,0-27.14-4.86-35.9-14.58-8.74-9.71-13.11-22-13.11-36.85,0-9.83,1.98-18.6,5.97-26.29,3.99-7.7,9.59-13.6,16.79-17.7,7.17-4.1,17.55-7.67,31.09-10.73,18.26-4.04,30.93-7.81,37.98-11.31v-4.64c0-8.96-1.86-15.34-5.57-19.16-3.73-3.81-10.76-5.73-21.08-5.73-6.97,0-12.42,1.64-16.33,4.92-3.9,3.28-7.06,9.02-9.49,17.23Z"/>
  <path class="cls-4" d="M4152.28,1941.72h-39.09v-174.15h36.23v24.74c6.24-11.69,11.83-19.34,16.82-22.98,4.99-3.63,10.63-5.45,16.97-5.45,8.92,0,17.53,2.9,25.82,8.69l-12.11,40.13c-6.61-5.03-12.74-7.55-18.42-7.55s-10.14,1.78-13.95,5.33c-3.82,3.55-6.81,9.96-8.99,19.24-2.18,9.28-3.28,28.71-3.28,58.29v53.71Z"/>
  <path class="cls-4" d="M4300.11,1858.5c-5.01,1.97-12.94,4.31-23.79,7.05-10.87,2.73-17.97,5.41-21.3,8.03-5.12,4.25-7.66,9.66-7.66,16.21s2.04,12.02,6.12,16.7c4.1,4.71,9.28,7.05,15.6,7.05,7.05,0,13.78-2.73,20.19-8.19,4.73-4.14,7.85-9.22,9.32-15.23,1.02-3.93,1.53-11.41,1.53-22.44v-9.18ZM4247.64,1821.25l-35.37-7.38c3.99-16.99,10.87-29.58,20.61-37.75,9.76-8.17,24.25-12.25,43.47-12.25,17.46,0,30.46,2.43,39.01,7.3,8.54,4.85,14.55,11.02,18.02,18.5,3.5,7.48,5.24,21.21,5.24,41.19l-.58,53.72c0,15.28.62,26.55,1.86,33.82,1.26,7.25,3.59,15.04,6.99,23.33h-38.8c-1.02-3.01-2.26-7.5-3.75-13.44-.66-2.7-1.11-4.49-1.38-5.35-6.66,7.72-13.8,13.51-21.37,17.37-7.59,3.86-15.69,5.79-24.3,5.79-15.18,0-27.14-4.86-35.9-14.58-8.74-9.71-13.13-22-13.13-36.85,0-9.83,2-18.6,5.99-26.29,3.99-7.7,9.58-13.6,16.77-17.7,7.19-4.1,17.57-7.67,31.11-10.73,18.26-4.04,30.93-7.81,37.98-11.31v-4.64c0-8.96-1.86-15.34-5.57-19.16-3.73-3.81-10.76-5.73-21.08-5.73-6.97,0-12.42,1.64-16.33,4.92-3.91,3.28-7.08,9.02-9.49,17.23Z"/>
  <polygon class="cls-4" points="4368.71 1941.72 4368.71 1701.46 4407.78 1701.46 4407.78 1828.91 4453.57 1767.57 4501.76 1767.57 4451.25 1831.19 4505.47 1941.72 4463.25 1941.72 4425.89 1863.15 4407.78 1885.97 4407.78 1941.72 4368.71 1941.72"/>
  <path class="cls-4" d="M4603.29,1858.5c-5.01,1.97-12.94,4.31-23.79,7.05-10.87,2.73-17.97,5.41-21.32,8.03-5.1,4.25-7.65,9.66-7.65,16.21s2.04,12.02,6.14,16.7c4.08,4.71,9.27,7.05,15.58,7.05,7.05,0,13.78-2.73,20.19-8.19,4.73-4.14,7.85-9.22,9.32-15.23,1.02-3.93,1.53-11.41,1.53-22.44v-9.18ZM4550.8,1821.25l-35.36-7.38c3.99-16.99,10.87-29.58,20.63-37.75,9.74-8.17,24.23-12.25,43.46-12.25,17.46,0,30.46,2.43,39,7.3,8.56,4.85,14.56,11.02,18.06,18.5,3.48,7.48,5.21,21.21,5.21,41.19l-.56,53.72c0,15.28.62,26.55,1.88,33.82,1.24,7.25,3.55,15.04,6.97,23.33h-38.8c-1.02-3.01-2.28-7.5-3.75-13.44-.64-2.7-1.11-4.49-1.38-5.35-6.66,7.72-13.8,13.51-21.39,17.37-7.59,3.86-15.69,5.79-24.3,5.79-15.17,0-27.14-4.86-35.88-14.58-8.74-9.71-13.11-22-13.11-36.85,0-9.83,1.98-18.6,5.97-26.29,3.99-7.7,9.58-13.6,16.77-17.7,7.19-4.1,17.55-7.67,31.11-10.73,18.28-4.04,30.93-7.81,37.98-11.31v-4.64c0-8.96-1.86-15.34-5.59-19.16-3.71-3.81-10.74-5.73-21.06-5.73-6.99,0-12.43,1.64-16.33,4.92-3.91,3.28-7.06,9.02-9.5,17.23Z"/>
  <path class="cls-4" d="M4740.9,1767.57v36.57h-26.82v70.56c0,14.29.25,22.61.78,24.98.51,2.37,1.67,4.31,3.48,5.85,1.82,1.54,4.02,2.3,6.64,2.3,3.62,0,8.88-1.47,15.77-4.42l3.28,35.79c-9.07,4.59-19.35,6.89-30.82,6.89-7.05,0-13.38-1.4-19.02-4.21-5.64-2.79-9.79-6.42-12.43-10.86-2.64-4.45-4.46-10.47-5.5-18.03-.82-5.38-1.24-16.25-1.24-32.61v-76.24h-17.97v-36.57h17.97v-34.56l39.07-27.18v61.74h26.82Z"/>
  <path class="cls-4" d="M2396.6,1186.33v-90.23h231.92v213.09c-22.56,21.93-55.24,41.24-98.05,57.92-42.82,16.69-86.18,25.03-130.1,25.03-55.78,0-104.43-11.73-145.9-35.22-41.49-23.48-72.66-57.06-93.52-100.73-20.86-43.67-31.3-91.19-31.3-142.53,0-55.72,11.65-105.23,34.95-148.54,23.28-43.3,57.38-76.52,102.28-99.64,34.23-17.77,76.81-26.64,127.78-26.64,66.25,0,117.99,13.94,155.24,41.8,37.25,27.86,61.22,66.39,71.89,115.54l-107.38,20.14c-7.5-26.27-21.63-47.01-42.35-62.21-20.7-15.2-46.57-22.8-77.59-22.8-47.01,0-84.36,14.96-112.11,44.87-27.75,29.91-41.62,74.28-41.62,133.12,0,63.46,14.05,111.06,42.18,142.79,28.11,31.73,64.96,47.59,110.53,47.59,22.56,0,45.15-4.42,67.82-13.29s42.13-19.63,58.37-32.26v-67.8h-123.05Z"/>
  <path class="cls-12" d="M2396.6,1186.33v-90.23h231.92v213.09c-22.56,21.93-55.24,41.24-98.05,57.92-42.82,16.69-86.18,25.03-130.1,25.03-55.78,0-104.43-11.73-145.9-35.22-41.49-23.48-72.66-57.06-93.52-100.73-20.86-43.67-31.3-91.19-31.3-142.53,0-55.72,11.65-105.23,34.95-148.54,23.28-43.3,57.38-76.52,102.28-99.64,34.23-17.77,76.81-26.64,127.78-26.64,66.25,0,117.99,13.94,155.24,41.8,37.25,27.86,61.22,66.39,71.89,115.54l-107.38,20.14c-7.5-26.27-21.63-47.01-42.35-62.21-20.7-15.2-46.57-22.8-77.59-22.8-47.01,0-84.36,14.96-112.11,44.87-27.75,29.91-41.62,74.28-41.62,133.12,0,63.46,14.05,111.06,42.18,142.79,28.11,31.73,64.96,47.59,110.53,47.59,22.56,0,45.15-4.42,67.82-13.29s42.13-19.63,58.37-32.26v-67.8h-123.05Z"/>
  <polygon class="cls-4" points="2742.82 1382.45 2742.82 848.54 3138.04 848.54 3138.04 938.76 2850.94 938.76 2850.94 1057.33 3117.9 1057.33 3117.9 1147.56 2850.94 1147.56 2850.94 1292.22 3148.47 1292.22 3148.47 1382.45 2742.82 1382.45"/>
  <polygon class="cls-12" points="2742.82 1382.45 2742.82 848.54 3138.04 848.54 3138.04 938.76 2850.94 938.76 2850.94 1057.33 3117.9 1057.33 3117.9 1147.56 2850.94 1147.56 2850.94 1292.22 3148.47 1292.22 3148.47 1382.45 2742.82 1382.45"/>
  <path class="cls-4" d="M3362.42,1074.48h79.76c51.69,0,83.98-2.18,96.85-6.56,12.85-4.37,22.94-11.92,30.22-22.62,7.28-10.7,10.92-24.08,10.92-40.12,0-18-4.81-32.52-14.38-43.6-9.59-11.07-23.12-18.06-40.62-20.97-8.74-1.22-34.94-1.83-78.65-1.83h-84.11v135.71ZM3254.3,1382.45v-533.91h227.06c57.09,0,98.58,4.79,124.45,14.38,25.89,9.59,46.59,26.64,62.15,51.16,15.55,24.52,23.32,52.56,23.32,84.13,0,40.06-11.74,73.13-35.21,99.24-23.47,26.09-58.55,42.54-105.25,49.34,23.19,13.61,42.35,28.54,57.46,44.8,15.09,16.28,35.46,45.17,61.08,86.69l65.18,104.17h-128.89l-77.3-116.53c-27.78-41.41-46.79-67.51-57.02-78.27-10.21-10.77-21.06-18.16-32.51-22.16-11.45-4-29.6-6-54.45-6h-21.94v222.96h-108.12Z"/>
  <path class="cls-12" d="M3362.42,1074.48h79.76c51.69,0,83.98-2.18,96.85-6.56,12.85-4.37,22.94-11.92,30.22-22.62,7.28-10.7,10.92-24.08,10.92-40.12,0-18-4.81-32.52-14.38-43.6-9.59-11.07-23.12-18.06-40.62-20.97-8.74-1.22-34.94-1.83-78.65-1.83h-84.11v135.71ZM3254.3,1382.45v-533.91h227.06c57.09,0,98.58,4.79,124.45,14.38,25.89,9.59,46.59,26.64,62.15,51.16,15.55,24.52,23.32,52.56,23.32,84.13,0,40.06-11.74,73.13-35.21,99.24-23.47,26.09-58.55,42.54-105.25,49.34,23.19,13.61,42.35,28.54,57.46,44.8,15.09,16.28,35.46,45.17,61.08,86.69l65.18,104.17h-128.89l-77.3-116.53c-27.78-41.41-46.79-67.51-57.02-78.27-10.21-10.77-21.06-18.16-32.51-22.16-11.45-4-29.6-6-54.45-6h-21.94v222.96h-108.12Z"/>
  <polygon class="cls-4" points="3806.63 1382.45 3806.63 848.54 3968.54 848.54 4064.28 1212.74 4158.89 848.54 4321.16 848.54 4321.16 1382.45 4221.25 1382.45 4220.86 962.17 4115.58 1382.45 4011.72 1382.45 3906.93 962.17 3906.56 1382.45 3806.63 1382.45"/>
  <polygon class="cls-12" points="3806.63 1382.45 3806.63 848.54 3968.54 848.54 4064.28 1212.74 4158.89 848.54 4321.16 848.54 4321.16 1382.45 4221.25 1382.45 4220.86 962.17 4115.58 1382.45 4011.72 1382.45 3906.93 962.17 3906.56 1382.45 3806.63 1382.45"/>
  <path class="cls-4" d="M4728.38,1170.67l-74.22-197.61-72.04,197.61h146.26ZM4925.96,1382.45h-116.41l-46.13-121.55h-214.22l-44.31,121.55h-114.33l207.34-533.91h114.18l213.88,533.91Z"/>
  <path class="cls-12" d="M4728.38,1170.67l-74.22-197.61-72.04,197.61h146.26ZM4925.96,1382.45h-116.41l-46.13-121.55h-214.22l-44.31,121.55h-114.33l207.34-533.91h114.18l213.88,533.91Z"/>
  <path class="cls-4" d="M4970.47,1209.45l105.14-10.44c6.3,35.15,19.06,60.95,38.3,77.44,19.24,16.49,45.2,24.72,77.88,24.72,34.59,0,60.68-7.34,78.21-22.01,17.55-14.67,26.33-31.84,26.33-51.49,0-12.62-3.68-23.35-11.05-32.21-7.39-8.85-20.26-16.56-38.63-23.1-12.56-4.39-41.22-12.17-85.95-23.37-57.55-14.37-97.93-32.02-121.14-52.96-32.64-29.47-48.95-65.4-48.95-107.78,0-27.28,7.68-52.8,23.05-76.54,15.37-23.76,37.52-41.84,66.43-54.25,28.91-12.43,63.81-18.63,104.72-18.63,66.78,0,117.06,14.84,150.83,44.5,33.75,29.67,51.47,69.27,53.16,118.8l-108.12,3.73c-4.57-27.55-14.38-47.38-29.44-59.45-15.07-12.06-37.65-18.11-67.76-18.11s-55.4,6.46-72.99,19.38c-11.32,8.28-16.99,19.38-16.99,33.27,0,12.68,5.33,23.53,15.98,32.54,13.56,11.47,46.5,23.39,98.82,35.81,52.3,12.42,90.99,25.23,116.06,38.47,25.05,13.24,44.68,31.34,58.84,54.28,14.16,22.96,21.26,51.31,21.26,85.06,0,30.6-8.5,59.26-25.49,85.98-17,26.72-41.04,46.57-72.09,59.56-31.08,12.99-69.78,19.48-116.15,19.48-67.47,0-119.3-15.56-155.46-46.66-36.17-31.12-57.77-76.45-64.81-136.03Z"/>
  <path class="cls-12" d="M4970.47,1209.45l105.14-10.44c6.3,35.15,19.06,60.95,38.3,77.44,19.24,16.49,45.2,24.72,77.88,24.72,34.59,0,60.68-7.34,78.21-22.01,17.55-14.67,26.33-31.84,26.33-51.49,0-12.62-3.68-23.35-11.05-32.21-7.39-8.85-20.26-16.56-38.63-23.1-12.56-4.39-41.22-12.17-85.95-23.37-57.55-14.37-97.93-32.02-121.14-52.96-32.64-29.47-48.95-65.4-48.95-107.78,0-27.28,7.68-52.8,23.05-76.54,15.37-23.76,37.52-41.84,66.43-54.25,28.91-12.43,63.81-18.63,104.72-18.63,66.78,0,117.06,14.84,150.83,44.5,33.75,29.67,51.47,69.27,53.16,118.8l-108.12,3.73c-4.57-27.55-14.38-47.38-29.44-59.45-15.07-12.06-37.65-18.11-67.76-18.11s-55.4,6.46-72.99,19.38c-11.32,8.28-16.99,19.38-16.99,33.27,0,12.68,5.33,23.53,15.98,32.54,13.56,11.47,46.5,23.39,98.82,35.81,52.3,12.42,90.99,25.23,116.06,38.47,25.05,13.24,44.68,31.34,58.84,54.28,14.16,22.96,21.26,51.31,21.26,85.06,0,30.6-8.5,59.26-25.49,85.98-17,26.72-41.04,46.57-72.09,59.56-31.08,12.99-69.78,19.48-116.15,19.48-67.47,0-119.3-15.56-155.46-46.66-36.17-31.12-57.77-76.45-64.81-136.03Z"/>
</svg>