<?xml version="1.0" encoding="UTF-8"?>
<svg xmlns="http://www.w3.org/2000/svg" version="1.1" xmlns:inkscape="http://www.inkscape.org/namespaces/inkscape" xmlns:sodipodi="http://sodipodi.sourceforge.net/DTD/sodipodi-0.dtd" xmlns:svg="http://www.w3.org/2000/svg" viewBox="0 0 75.58 100.8">
  <!-- Generator: Adobe Illustrator 29.8.2, SVG Export Plug-In . SVG Version: 2.1.1 Build 3)  -->
  <defs>
    <style>
      .st0 {
        fill: #039;
      }

      .st0, .st1, .st2, .st3, .st4, .st5, .st6, .st7, .st8, .st9 {
        fill-rule: evenodd;
      }

      .st1 {
        fill: #d9dadb;
      }

      .st2 {
        fill: #fff;
      }

      .st10 {
        fill: none;
      }

      .st3 {
        fill: #fc0;
      }

      .st4 {
        fill: #e30016;
      }

      .st6 {
        fill: #0cf;
      }

      .st7 {
        fill: #3c3;
      }

      .st8 {
        fill: #093;
      }

      .st9 {
        fill: #ff0;
      }
    </style>
  </defs>
  <g id="svg1130" sodipodi:docname="logo-provinsi-jawa-timur.svg">
    <sodipodi:namedview id="namedview1132" bordercolor="#ffffff" borderopacity="1" inkscape:current-layer="svg1130" inkscape:cx="81.356951" inkscape:cy="36.592864" inkscape:deskcolor="#505050" inkscape:document-units="pt" inkscape:pagecheckerboard="1" inkscape:pageopacity="0" inkscape:showpageshadow="0" inkscape:window-height="715" inkscape:window-maximized="1" inkscape:window-width="1366" inkscape:window-x="-8" inkscape:window-y="-8" inkscape:zoom="2.8147564" pagecolor="#505050" showgrid="false"/>
    <path id="path447" class="st10" d="M-37.43,0H106.56v81.56H-37.43V0Z"/>
    <g id="Layer1016">
      <path id="path557" class="st5" d="M70.55,56.89c0,7.34-2.44,14.14-6.55,19.61.42-.03.82.03,1.16.28l4.99,3.63.25.2c1.57,1.22-.28,3.35-1.32,4.01-1.34.85-3.65,3.42-4.05,6.34l-1.39-3.58c-7.15,6.02-16.42,9.58-25.86,9.58s-18.71-3.56-25.86-9.58l-1.39,3.58c-.4-2.92-2.71-5.49-4.05-6.34-1.04-.66-2.89-2.79-1.32-4.01l.25-.2,4.99-3.63c.34-.25.74-.31,1.16-.28-4.11-5.47-6.55-12.26-6.55-19.61V16.69c5.23-.71,9.46-4.54,10.6-9.48,6.46-2.13,14.05-3.37,22.16-3.37s15.7,1.23,22.16,3.37c1.14,4.94,5.37,8.77,10.6,9.48v40.2Z"/>
      <path id="path559" class="st2" d="M38.01,5.92c7.31.02,14.18,1.02,20.11,2.76,1.53,4.84,5.68,8.55,10.78,9.48v35.29h-1.66V19.43c-4.9-1.32-8.84-5.01-10.52-9.74-3.15-.8-6.55-1.42-10.12-1.8.67,1.14,1.06,2.42,1.06,3.78,0,.81-.13,1.59-.39,2.33l-4.44-1.19-.35,1.3,4.24,1.14c-.22.41-.49.8-.78,1.16.43.89.67,1.86.67,2.87,0,1.63-.61,3.14-1.65,4.37.27.66.41,1.37.41,2.11,0,.81-.17,1.58-.49,2.29v-.49h-.7v-1.78h-1.41v6.52c-.46,1.89-1.41,3.44-2.62,4.34l-.83-13.58c.09-.02.31-.05.31-.15v-.96l-.39-.49h0c-.18-1.14-.68-2.2-1.34-2.72v-1.29l-.11-.69-.11.69v1.29c-.66.51-1.16,1.58-1.34,2.72h0s-.39.49-.39.49v.96c0,.09.23.13.31.15l-.83,13.59c-1.21-.89-2.16-2.45-2.62-4.34v-6.52h-1.41v1.78h-.7v.49c-.32-.71-.49-1.49-.49-2.29,0-.74.15-1.45.41-2.11-1.04-1.23-1.65-2.74-1.65-4.37,0-1.02.24-1.99.67-2.87-.3-.37-.56-.76-.78-1.16l4.24-1.14-.35-1.3-4.44,1.19c-.25-.74-.39-1.52-.39-2.33,0-1.36.38-2.64,1.06-3.78-3.57.38-6.97.99-10.12,1.8-1.69,4.74-5.63,8.42-10.52,9.74v34.02h-1.66V18.16c5.1-.93,9.24-4.64,10.78-9.48,5.94-1.74,12.8-2.74,20.11-2.76l.22-.69.22.69Z"/>
      <path id="path561" class="st5" d="M42.21,16.51l-.96.81,3.43,4.06.96-.81-3.43-4.06Z"/>
      <path id="path563" class="st5" d="M42.19,16.78l-.67.57,3.18,3.76.67-.57-3.18-3.76Z"/>
      <path id="path565" class="st5" d="M33.37,16.51l.96.81-3.43,4.06-.96-.81,3.43-4.06Z"/>
      <path id="path567" class="st5" d="M37.79,6l1.34,4.15h4.36s-3.53,2.55-3.53,2.55l1.35,4.14-3.52-2.57-3.52,2.57,1.35-4.14-3.53-2.56h4.36s1.34-4.14,1.34-4.14Z"/>
      <path id="path569" class="st7" d="M51.15,71.52l.84-.21c.05-.35.16-.7.31-1.06-.37.44-.76.86-1.15,1.27Z"/>
      <path id="path571" class="st7" d="M49.94,72.71l3.06-.84c1.45-.4,2.97-1.18,4.2-2.21,2.04-1.73,2.85-3.94,3.06-5.72-.16.67-.47,1.37-.9,2.08-1.54-.13-3.41.45-4.96,1.65-.1.08-.2.16-.29.24.3-.44.59-.88.87-1.34.78-.47,1.71-.95,2.47-1.42,1.2-.75,2.4-1.82,3.26-3.07,1.42-2.09,1.6-4.3,1.35-5.97.02.65-.08,1.36-.3,2.12-1.38.27-2.88,1.2-3.97,2.59.1-.26.2-.52.29-.79.64-.55,1.4-1.12,2.01-1.66.77-.69,1.51-1.57,2.08-2.53h4.59v1.87l-2.7-.08c-.06,1.97-.34,3.89-.82,5.73l2.61.68-.53,1.79-2.56-.84c-.61,1.85-1.43,3.62-2.42,5.26l2.33,1.39-1.01,1.57-2.24-1.54c-1.1,1.59-2.38,3.06-3.79,4.37l1.84,2-1.41,1.22-1.71-2.11c-.32.26-.64.51-.96.75-.56-.55-1.12-1.1-1.72-1.6-.36-.3-.74-.6-1.12-.88.11-.11.23-.21.35-.32l.12-.1c.45-.38.68-.85.09-1.38l-.1-.09c-.32-.29-.67-.56-1.03-.83Z"/>
      <path id="path573" class="st7" d="M32.56,77c.99.43,2,.84,2.99,1.21-2.08.51-4.04.79-5.64.77.74.44,1.4.92,1.94,1.44,1.63-.14,3.76-.65,6.01-1.4,2.28.75,4.37,1.27,5.86,1.4.54-.52,1.19-1.01,1.94-1.44-1.47.02-3.38-.28-5.47-.79.95-.37,1.9-.77,2.81-1.2.17.11.36.22.57.31l.35.15c1.44.63,2.75,1.49,3.96,2.5l-2.02.9c-.51.23-.85.69-.95,1.21-.83.24-1.68.43-2.55.58l.07.41-.71.15c-.22-.66-.84-1.14-1.57-1.14h-4.74c-.73,0-1.35.48-1.57,1.14l-.71-.15.07-.41c-.86-.15-1.71-.35-2.55-.58-.1-.52-.44-.98-.95-1.21l-2.02-.9c1.21-1.01,2.53-1.88,3.96-2.5l.35-.15c.21-.09.39-.19.56-.3Z"/>
      <path id="path575" class="st7" d="M8.83,55.83h4.2c-.02.12-.04.24-.03.37-.38.19-.68.53-.88.98.23-.18.53-.31.86-.39-.03.27-.02.54.04.8.25,1.23,1.32,2.11,2.66,2.34-.19.36-.26.79-.16,1.2-.7.33-1.07,1.12-.91,1.88-.36.27-.61.69-.74,1.2.21-.23.49-.43.83-.57.02.28.09.56.19.83.49,1.22,1.76,1.92,3.18,1.91-.21.48-.2,1.05.06,1.53-.63.53-.81,1.43-.45,2.17-.3.38-.45.87-.45,1.43.15-.29.39-.57.7-.81.1.28.23.55.41.8.84,1.15,2.4,1.52,3.9,1.07.68.2,1.38.13,1.91-.28.01,0,.02-.02.03-.03.04.03.08.07.12.1h0c.26.22.55.45.88.68-.2.16-.4.32-.59.49l-.1.09c-.59.53-.36,1,.09,1.38l.12.1c.12.1.24.21.35.32-.38.28-.76.57-1.12.88-.6.51-1.16,1.05-1.72,1.6-.33-.24-.65-.49-.96-.75l-1.71,2.11-1.41-1.22,1.84-2c-1.42-1.31-2.69-2.78-3.79-4.37l-2.24,1.54-1.01-1.57,2.32-1.39c-.99-1.65-1.8-3.41-2.42-5.26l-2.56.84-.53-1.79,2.61-.68c-.48-1.84-.76-3.76-.82-5.73l-2.7.08v-1.87Z"/>
      <path id="path577" class="st7" d="M55.73,65.27c.22-.13.45-.25.67-.38-.03-.29-.03-.59,0-.9-.22.43-.44.86-.67,1.28Z"/>
      <path id="path579" class="st7" d="M58.49,58.79c.19-.16.39-.32.58-.48-.09-.3-.14-.62-.16-.96-.13.49-.27.97-.42,1.44Z"/>
      <path id="path581" class="st8" d="M38.14,78.94c2.05.66,3.94,1.12,5.41,1.26.32-.35.73-.69,1.21-.99-1.39-.05-3.12-.36-5-.85-.54.21-1.08.4-1.62.58Z"/>
      <path id="path583" class="st8" d="M17.88,61.24c.78-.08,1.53.09,2.1.47.11-.6.47-1.11,1-1.34.43-.18.91-.15,1.33.05-.71-.02-1.44.56-1.71,1.2.18-.33.52-.64.95-.86.2.22.37.47.48.75.43,1.06.05,2.31-.86,3.24-.02,0-.04-.01-.06-.02.02-.32-.02-.65-.13-.98.07.32.08.64.04.95-.23-.07-.47-.08-.7-.05-.61-.45-1.36-.54-1.87-.15-.41.31-.58.86-.5,1.43-.22-.18-.41-.41-.57-.67.15.31.36.58.59.8,0,.02,0,.03,0,.04-1.3,0-2.45-.6-2.88-1.68-.11-.28-.17-.58-.17-.88.45-.16.91-.18,1.27-.07-.64-.27-1.55-.16-2.05.37.16-.45.48-.82.91-1,.54-.23,1.14-.12,1.63.23.15-.68.56-1.34,1.17-1.85Z"/>
      <path id="path585" class="st8" d="M16.33,55.13c.73.06,1.39.35,1.85.8.2-.54.62-.95,1.15-1.06.43-.09.86.02,1.22.28-.65-.14-1.42.26-1.78.81.23-.27.59-.5,1.02-.62.15.24.26.5.31.78.2,1.02-.31,2.06-1.23,2.76-.04-.03-.09-.05-.14-.07.05-.25.06-.52.02-.8,0,.26-.02.52-.09.77-.13-.05-.27-.09-.41-.1-.45-.56-1.11-.81-1.67-.58-.56.24-.85.89-.79,1.62-.26-.25-.48-.57-.61-.93.09.34.25.64.45.89-1.22-.21-2.18-.99-2.4-2.07-.06-.28-.06-.57-.01-.84.44-.07.87,0,1.18.16-.54-.36-1.4-.42-1.95-.02.23-.39.58-.67,1.01-.76.53-.11,1.07.09,1.46.5.25-.6.75-1.14,1.4-1.5Z"/>
      <path id="path587" class="st8" d="M15.71,49.23c.67.16,1.23.52,1.6,1.01.26-.47.7-.79,1.21-.82.41-.02.79.14,1.08.44-.58-.23-1.34.04-1.75.49.25-.22.61-.38,1.02-.43.1.24.17.5.18.76.05.96-.56,1.84-1.49,2.36-.04-.03-.09-.06-.13-.09.08-.22.12-.47.13-.72-.03.24-.09.47-.18.69-.08-.04-.16-.07-.24-.1-.32-.6-.89-.95-1.44-.83-.55.12-.94.68-1.01,1.36-.02.02-.05.04-.07.06-.22-.27-.38-.61-.46-.98.04.33.14.63.29.89-1.09-.37-1.88-1.23-1.93-2.26-.01-.27.03-.53.11-.78.42,0,.8.12,1.07.32-.45-.41-1.24-.59-1.8-.3.26-.33.63-.54,1.04-.56.51-.03.97.24,1.28.67.32-.52.85-.95,1.49-1.19h0Z"/>
      <path id="path589" class="st8" d="M15.98,43.62c.59.25,1.06.66,1.33,1.16.31-.39.75-.62,1.22-.58.38.04.71.25.93.56-.5-.29-1.24-.16-1.68.2.26-.17.61-.26,1-.25.06.23.08.48.06.73-.09.91-.8,1.65-1.76,1.98-.02-.02-.05-.04-.08-.06.12-.21.2-.45.25-.7-.07.24-.17.47-.3.66-.06-.04-.13-.08-.19-.12-.21-.6-.69-1.01-1.22-.98-.53.03-.96.49-1.12,1.11,0,0,0,0-.01,0-.17-.29-.28-.64-.3-1,0,.31.04.6.14.86-.95-.5-1.55-1.4-1.45-2.35.03-.25.1-.49.21-.7.39.06.72.23.94.44-.35-.44-1.05-.72-1.61-.53.29-.26.65-.4,1.03-.37.47.05.86.36,1.08.8.36-.43.91-.75,1.54-.88Z"/>
      <path id="path591" class="st8" d="M16.94,38.39c.51.3.88.74,1.06,1.24.33-.32.77-.47,1.19-.36.34.08.61.32.78.64-.42-.33-1.11-.31-1.56-.04.26-.12.59-.16.94-.1.03.22.02.45-.04.68-.21.84-.98,1.43-1.94,1.59-.01-.01-.02-.02-.03-.03.15-.19.28-.41.36-.66-.1.23-.24.45-.41.62-.02-.02-.05-.04-.07-.06-.11-.59-.49-1.03-.98-1.08-.49-.05-.95.31-1.18.86-.15-.31-.22-.67-.19-1.04-.05.28-.04.55.02.81-.81-.58-1.24-1.49-1.02-2.35.06-.22.15-.43.28-.62.34.11.63.3.8.53-.27-.45-.87-.8-1.4-.7.3-.2.65-.28.99-.2.42.1.74.44.88.88.39-.35.93-.57,1.52-.6Z"/>
      <path id="path593" class="st8" d="M18.45,33.57c.42.34.71.79.82,1.26.34-.25.75-.33,1.13-.18.3.12.52.37.63.68-.34-.36-.97-.42-1.41-.23.25-.08.56-.07.87.03,0,.21-.04.41-.12.61-.3.76-1.1,1.2-2.01,1.21.18-.16.33-.36.44-.59-.13.22-.3.41-.49.55-.05-.52-.33-.95-.76-1.06-.43-.1-.88.14-1.16.58-.13-.32-.16-.7-.08-1.07-.08.25-.1.5-.08.74-.66-.63-.95-1.51-.65-2.27.08-.2.19-.37.33-.53.3.14.53.35.66.58-.19-.45-.69-.84-1.19-.81.29-.15.62-.18.92-.06.37.15.62.49.7.91.4-.27.91-.4,1.45-.36Z"/>
      <path id="path595" class="st8" d="M20.46,29.21c.34.36.55.8.59,1.24.33-.18.72-.21,1.04-.03.26.14.42.4.49.69-.27-.36-.83-.5-1.24-.38.23-.04.51,0,.78.13-.03.19-.08.37-.18.54-.36.65-1.13.95-1.96.85.18-.12.34-.28.47-.48-.16.2-.36.36-.57.47-.02-.42-.23-.78-.56-.91-.34-.13-.73-.01-1.03.28-.1-.32-.09-.69.04-1.04-.1.22-.15.44-.16.66-.52-.65-.68-1.48-.32-2.13.09-.17.21-.32.36-.44.25.16.44.39.53.61-.12-.43-.53-.84-.98-.88.28-.1.58-.09.84.06.32.18.5.52.52.91.39-.2.87-.25,1.35-.14Z"/>
      <path id="path597" class="st8" d="M24.41,27.46c-.29.58-.81.91-1.38,1-.37.06-.76.02-1.13-.11.06-.31.02-.61-.12-.83.04-.05.08-.1.12-.15.65.48,1.49.55,2.21.24-.68.25-1.48.14-2.13-.35.32-.4.64-.81.96-1.22.49.34,1.19.29,1.83-.07-.6.3-1.26.31-1.75-.04.6-.78,1.12-1.49,1.49-2.03-.45.49-1.02,1.14-1.64,1.91-.43-.41-.57-1.07-.4-1.73-.22.71-.12,1.41.32,1.83-.33.4-.65.8-.97,1.2-.6-.54-.88-1.32-.78-2.04-.15.78.1,1.6.7,2.14-.03.04-.06.08-.09.12-.03-.03-.07-.06-.11-.08-.24-.14-.54-.11-.81.03-.16-.3-.25-.63-.27-.96-.03-.58.18-1.17.68-1.58.05.23.15.48.28.72.2-.66.64-1.26,1.21-1.65.05.34.18.67.4.97.49-.79,1.25-1.46,2.14-1.7-.05.94-.54,1.84-1.19,2.48.33.15.68.21,1.02.19-.25.64-.73,1.21-1.33,1.55.26.08.52.13.75.13Z"/>
      <path id="path599" class="st8" d="M20.57,67.39c.78-.29,1.6-.32,2.29-.09-.04-.65.19-1.27.69-1.64.4-.3.9-.4,1.39-.3-.74.17-1.34.96-1.45,1.69.1-.39.37-.8.75-1.13.26.17.5.38.69.64.73,1,.65,2.42-.09,3.64-.06-.36-.19-.72-.4-1.06.52,1.03.4,2.32-.42,2.95-.82.62-2.07.38-2.89-.43.26.3.56.53.88.69-1.35.38-2.71.06-3.45-.94-.19-.26-.33-.55-.41-.86.43-.29.89-.43,1.29-.41-.73-.11-1.64.26-2.02.93.05-.51.28-.97.68-1.27.49-.38,1.14-.43,1.74-.2-.02-.74.23-1.53.73-2.21Z"/>
      <path id="path601" class="st8" d="M30.38,75.78c1.76.86,3.64,1.67,5.47,2.36.53-.13,1.07-.28,1.62-.44-2.04-.64-4.16-1.45-6.14-2.34-.3.13-.62.27-.95.42Z"/>
      <path id="path603" class="st8" d="M24.32,72.16c.32.25.67.5,1.04.76.19-.14.38-.28.57-.42-.44-.29-.86-.57-1.23-.86-.1.19-.23.36-.38.51Z"/>
      <path id="path605" class="st1" d="M44.18,55.52h6.41v-.9h-2.16v-.15h.42v-.78h-2.1v-.15h.36v-.78h-2.04v-.15h.31v-.78h-1.21v3.69Z"/>
      <path id="path607" class="st1" d="M55.63,55.52h0s0,0,0,0c0,0,0,0,0,0Z"/>
      <path id="path609" class="st1" d="M45.59,29.73h-.93v-1.98h-.48v23.86h1.43v.93h1.74v.93h1.74v.93h1.74v1.13h4.81s.01-.01.02-.02c-.06-.29-.11-.59-.14-.89h-2.84v-.15h.44v-.78h-2.64v-.15h.36v-.78h-2.04v-.15h.31v-.78h-1.98v-.15h.25v-.78h-2.12v-.2h.38v-3.75h-.15v-.22h1.4v-1.11h-.84v-.22h1.67v-1.11h-.78v-.22h1.78v-1.11h-1.78v-.22h.78v-1.11h-1.67v-.22h.84v-1.11h-1.4v-.22h.61v-1.11h-.84v-.22h.38v-1.11h-.38v-.22h1.49v-1.11h-1.49v-.22h.38v-1.11h-.66v-1.54h.66v-1.11h-.66v-1.54h.66v-1.11Z"/>
      <path id="path611" class="st1" d="M32.59,25.99v29.33c-.31.09-.63.16-.97.2v-29.53h.97Z"/>
      <path id="path613" class="st1" d="M29.99,29.73v1.11h.66v1.54h-.66v1.11h.66v1.54h-.66v1.11h.38v.22h-1.49v1.11h1.49v.22h-.38v1.11h.38v.22h-.84v1.11h.61v.22h-1.4v1.11h.84v.22h-1.67v1.11h.78v.22h-1.78v1.11h1.78v.22h-.78v1.11h1.67v.22h-.84v1.11h1.4v.22h-.15v3.75h.38v.2h-2.12v.78h.25v.15h-1.98v.78h.31v.15h-2.04v.78h.36v.15h-2.64v.78h.44v.15h-3.22s.04.08.05.12c.42.01.82.21,1.19.54-.28-.07-.6-.07-.94,0,.04.08.08.16.12.24h4.64v-1.13h1.74v-.93h1.74v-.93h1.74v-.93h1.43v-23.86h-.48v1.98h-.93Z"/>
      <path id="path615" class="st1" d="M31.4,55.52v-3.69h-1.21v.78h.31v.15h-2.04v.78h.36v.15h-2.1v.78h.42v.15h-2.16v.9h6.41Z"/>
      <path id="path617" class="st1" d="M42.99,25.99h.97v29.53c-.33-.04-.66-.11-.97-.2v-29.33Z"/>
      <path id="path619" class="st6" d="M53.58,78.11c.25-.18.49-.37.74-.57l1.71,2.11,1.83-1.59-1.85-1.99c1.29-1.22,2.47-2.57,3.5-4.03l2.23,1.55,1.31-2.04-2.33-1.39c.9-1.53,1.65-3.15,2.23-4.85l2.56.85.68-2.32-2.61-.67c.42-1.7.68-3.47.76-5.28l2.7.09v-2.42h-4.72c.1-.19.19-.37.28-.56.16-.34.28-.68.38-1.02h5.93v5.59l-3.65-.31c-.09.97-.22,1.92-.41,2.86l3.59.73-1.57,5.36-3.42-1.32c-.36.9-.76,1.77-1.21,2.62l3.25,1.72-3.02,4.7-2.92-2.24c-.59.76-1.22,1.49-1.89,2.18l2.64,2.57-3.04,2.63c-.6-.34-1.18-.77-1.66-1.15-.71-.56-1.36-1.19-2-1.82h0Z"/>
      <path id="path621" class="st6" d="M42.7,83.01l-.02-.12c.75-.14,1.49-.31,2.21-.51,0,.06,0,.11,0,.17l-2.2.47Z"/>
      <path id="path623" class="st6" d="M30.69,82.37c.73.2,1.46.37,2.21.51l-.02.12-2.2-.47c0-.06,0-.11,0-.17Z"/>
      <path id="path625" class="st6" d="M59.13,53.32c-.56-.1-1.12-.22-1.66-.35-.32-.65-.74-1.2-1.22-1.61.13-.59.33-1.11.58-1.55.33.82.79,1.59,1.3,2.24.34.42.67.85,1.01,1.27Z"/>
      <path id="path627" class="st6" d="M44.88,28.8c.55-.92.86-1.96.86-3.06,0-.72-.13-1.41-.37-2.05,1.02-1.26,1.61-2.78,1.61-4.42,0-.99-.22-1.95-.62-2.82.27-.36.52-.73.73-1.12l2.4.64.35-1.3-2.2-.59c.26-.77.4-1.58.4-2.42,0-1.18-.28-2.31-.78-3.34,3.23.37,6.3.92,9.18,1.63,1.72,4.68,5.59,8.32,10.41,9.73v33.76h-3.73c.35-1.58.14-3.05-.25-4.18.13.59.15,1.27.07,2-.98.37-1.95,1.15-2.7,2.18h-.34c.48-.56,1.04-1.12,1.48-1.67.78-.97,1.46-2.21,1.81-3.49.54-2.02.12-3.8-.52-5.09.1-.35.17-.7.22-1.05.27-2.03-.42-3.68-1.22-4.78.03-.29.05-.57.05-.86,0-1.86-.82-3.26-1.69-4.16,0-.3,0-.59-.04-.88-.21-1.72-1.13-2.91-2.04-3.62.31.31.59.72.82,1.2-.63.82-1,2.05-.9,3.31.03.42.11.81.23,1.16-.24-.66-.49-1.3-.77-1.93l.46-1.77c.23-.87.21-1.89,0-2.81-.34-1.53-1.3-2.51-2.19-3.06.31.25.6.59.86,1-.5.8-.73,1.95-.52,3.09.18,1.01.66,1.79,1.27,2.19l-.18.7c-.65-1.43-1.4-2.77-2.22-4.02l-.05-.28c-.18-.98-.7-1.97-1.33-2.77-1.04-1.33-2.38-1.81-3.45-1.91.4.09.83.28,1.26.55-.08,1.05.3,2.35.98,3.3.69.96,1.46,1.2,2.45,1.51.77,1.19,1.46,2.47,2.08,3.82l-.44-.15c0-.64-.35-1.36-1-1.98-.73-.69-1.68-1.08-2.51-1.09-.18-.38-.29-.76-.32-1.1-.02.92.24,2.08,1.19,3.07.57.59,1.33,1.05,2.06,1.34l1.27.5c.57,1.32,1.06,2.7,1.47,4.14-.17-.08-.34-.16-.51-.25.06-.7-.23-1.54-.87-2.29-.72-.85-1.7-1.39-2.6-1.51-.15-.44-.23-.87-.23-1.25-.12,1,.03,2.31.96,3.51.56.72,1.33,1.32,2.09,1.73.45.24.89.48,1.34.72.39,1.46.69,2.97.9,4.53-.17-.11-.34-.22-.5-.33.15-.75-.05-1.7-.64-2.61-.66-1.02-1.66-1.74-2.61-2-.11-.5-.14-.97-.09-1.39-.26,1.07-.26,2.51.59,3.94.14.23.29.45.46.66-.42,1.11-.62,2.64.07,4.29.42,1,1.1,1.93,1.84,2.64.41.39.81.78,1.22,1.17,0,.29-.02.58-.03.87-.07,1.49-.23,2.96-.46,4.38-.14-.17-.29-.33-.43-.5.4-.8.46-1.94.09-3.15-.42-1.36-1.3-2.5-2.27-3.09.04-.6.15-1.14.33-1.6-.61,1.12-1.05,2.75-.55,4.63.08.28.17.56.28.84-.52.69-1,1.59-1.23,2.68-3.72-1.11-7.02-2.89-9.65-5.52h1.12v-1.32h.84v-1.32h1.01v-1.56h-1.01v-1.32h-.84v-1.32h-.8v-1.32h-.46v-1.09h1.11v-1.56h-1.11v-1.32h-.67v-1.09h.67v-1.56h-.67v-1.09h.67v-1.56h-.93v-.71Z"/>
      <path id="path629" class="st6" d="M40.43,36.81c1.01-.81,1.83-2.07,2.33-3.59v9.54c-.98-1.74-1.77-3.71-2.33-5.95Z"/>
      <path id="path631" class="st6" d="M32.81,33.22c.5,1.52,1.32,2.78,2.33,3.59-.56,2.24-1.35,4.21-2.33,5.95v-9.54Z"/>
      <path id="path633" class="st6" d="M8.74,19.69c4.81-1.41,8.69-5.06,10.41-9.73,2.87-.71,5.95-1.26,9.18-1.63-.5,1.03-.78,2.16-.78,3.34,0,.84.14,1.65.4,2.42l-2.2.59.35,1.3,2.4-.64c.21.39.46.76.73,1.12-.4.88-.62,1.83-.62,2.82,0,1.64.6,3.16,1.61,4.42-.24.65-.37,1.34-.37,2.05,0,1.1.31,2.14.86,3.06v.71h-.93v1.56h.67v1.09h-.67v1.56h.67v1.09h-.67v1.32h-1.11v1.56h1.11v1.09h-.46v1.32h-.8v1.32h-.84v1.32h-1.01v1.56h1.01v1.32h.84v1.32h1.12c-3.08,3.08-7.07,4.98-11.57,6.03.76-.59,1.22-1.44,1.17-2.35-.01-.26-.06-.5-.15-.74.32-.02.62.03.87.13-.29-.36-.63-.6-1.02-.67-.15-.67-.73-1.15-1.41-1.14-.04-.23-.14-.44-.28-.62.97-.39,1.68-1.2,1.78-2.18.02-.24.01-.47-.03-.7.3.03.57.12.78.25-.22-.37-.5-.64-.85-.76-.04-.64-.51-1.17-1.13-1.26-.01-.27-.1-.52-.24-.73.96-.22,1.73-.87,1.95-1.78.05-.22.07-.43.06-.65.27.07.5.18.68.33-.15-.37-.38-.66-.68-.82.04-.59-.32-1.14-.88-1.3.03-.31-.05-.61-.22-.85.94-.06,1.75-.56,2.08-1.38.07-.19.12-.39.13-.59.24.09.44.23.58.39-.09-.36-.26-.65-.52-.83.11-.53-.15-1.08-.64-1.3.08-.36,0-.72-.21-.99.92.13,1.81-.23,2.23-.98.09-.16.15-.34.19-.52.2.11.37.26.48.42-.04-.34-.16-.62-.37-.82.16-.47-.01-1-.43-1.26.1-.26.09-.54,0-.78.43.15.87.15,1.26.05.64-.17,1.17-.62,1.39-1.24-.17.02-.36.01-.57-.03.51-.42.91-1,1.08-1.65-.29.04-.59.01-.89-.09.63-.71,1.15-1.67,1.13-2.71-1.01.19-1.83.91-2.38,1.69-.16-.28-.25-.57-.27-.87-.6.31-1.07.82-1.36,1.42-.08-.19-.13-.38-.14-.56-.55.35-.88.97-.91,1.64-.02.4.08.82.3,1.21-.07.04-.13.1-.19.16-.31,0-.62.15-.83.42-.44-.22-.97-.09-1.29.3-.28-.08-.58-.03-.88.11.19.01.41.08.61.19-.13.13-.24.27-.33.44-.42.77-.24,1.73.37,2.46.01.11.04.22.07.32-.34.05-.65.26-.83.57-.51-.18-1.07.04-1.35.51-.31-.04-.63.05-.94.25.21-.01.45.02.69.12-.12.16-.23.33-.3.52-.35.89-.02,1.91.75,2.61.02.07.04.13.06.19-.3.12-.55.37-.69.7-.57-.11-1.15.2-1.39.75-.34,0-.67.15-.98.41.23-.05.49-.04.76.02-.11.18-.2.39-.25.6-.25,1.01.25,2.06,1.18,2.69.01.03.02.05.04.08-.28.18-.5.47-.59.82-.63-.03-1.19.4-1.37,1.01-.37.05-.7.26-.99.58.24-.09.52-.12.81-.09-.09.21-.15.44-.18.68-.12,1.11.58,2.15,1.66,2.69-.27.24-.44.58-.48.96-.67.07-1.21.62-1.29,1.3-.38.12-.7.39-.95.78.24-.13.53-.22.85-.23-.06.24-.09.49-.08.75.05,1.06.76,1.95,1.78,2.41h-5.33V19.69Z"/>
      <path id="path635" class="st6" d="M59.89,46.63c.01-1.66-.07-3.3-.26-4.89-.44-.31-.87-.62-1.31-.93-.56-.4-1.11-.91-1.57-1.49-.1.43-.14.93-.1,1.47.97.42,1.92,1.35,2.48,2.55.5,1.07.58,2.12.3,2.9.15.13.3.27.45.4Z"/>
      <path id="path637" class="st6" d="M60.27,44.65c.03.6.05,1.2.05,1.81.15-.22.3-.44.44-.66-.22-.32-.39-.71-.49-1.15Z"/>
      <path id="path639" class="st6" d="M60.02,41.7c.05.45.1.9.14,1.35.01-.18.04-.36.07-.55.26-1.48,1.03-2.78,1.98-3.52-.12-.62-.31-1.17-.56-1.62-.1.86-.35,1.7-.67,2.44-.26.6-.67,1.28-.96,1.9Z"/>
      <path id="path641" class="st6" d="M58.75,35.56c.08-.21.15-.43.23-.64-.35-.3-.65-.73-.85-1.26.22.62.43,1.26.62,1.9Z"/>
      <path id="path643" class="st6" d="M59.32,37.71c0-.17-.01-.35,0-.53.05-1.39.6-2.67,1.38-3.47-.18-.52-.41-.98-.68-1.35-.01.75-.15,1.51-.36,2.18-.19.6-.48,1.23-.67,1.84.12.44.23.89.33,1.33Z"/>
      <path id="path645" class="st6" d="M59.89,40.76c.11-.22.21-.43.32-.65-.24-.26-.44-.6-.6-.98.1.54.19,1.08.28,1.63Z"/>
      <path id="path647" class="st6" d="M60.28,48.42s.03-.09.04-.14c.48-1.55,1.48-2.82,2.6-3.48-.03-.57-.13-1.09-.28-1.56-.24.84-.6,1.64-1.02,2.33-.36.59-.91,1.34-1.32,1.97,0,.29-.02.58-.03.88Z"/>
      <path id="path649" class="st6" d="M59.91,52.46c.17-.19.34-.39.51-.58-.15-.3-.25-.63-.32-1-.05.53-.12,1.05-.19,1.58Z"/>
      <path id="path651" class="st6" d="M6.68,53.97h7.58c-.08.2-.11.42-.1.65-.49.13-.86.49-1.04.94h-4.56v2.42l2.7-.09c.08,1.81.33,3.58.76,5.29l-2.61.67.68,2.32,2.56-.85c.58,1.7,1.33,3.32,2.23,4.85l-2.33,1.39,1.31,2.04,2.23-1.54c1.03,1.46,2.2,2.81,3.5,4.03l-1.85,1.99,1.83,1.59,1.71-2.11c.24.19.49.38.73.56-.64.63-1.29,1.26-2,1.82-.48.38-1.05.81-1.66,1.15l-3.04-2.63,2.64-2.57c-.67-.69-1.3-1.42-1.89-2.18l-2.92,2.24-3.02-4.7,3.25-1.72c-.45-.85-.85-1.72-1.21-2.62l-3.42,1.32-1.58-5.36,3.59-.73c-.19-.94-.32-1.89-.41-2.86l-3.65.31v-5.59Z"/>
      <path id="path653" class="st9" d="M49.11,81.05c.35.33.69.68,1.04,1.03l-2.89,1.28c.12-.17.18-.38.13-.6-.08-.38-.45-.64-.83-.59l2.54-1.13Z"/>
      <path id="path655" class="st9" d="M35.53,83.57c.37.11.6.49.52.87-.05.22-.18.39-.36.5h4.22c-.18-.1-.32-.28-.36-.5-.08-.38.15-.76.52-.87h-4.53Z"/>
      <path id="path657" class="st9" d="M25.42,82.09c.35-.35.7-.7,1.04-1.03l2.54,1.13c-.38-.05-.75.2-.83.59-.05.22,0,.43.13.6l-2.89-1.28Z"/>
      <path id="path659" class="st9" d="M53.48,62.9c-.28-.1-.55-.23-.81-.37.21-.24.43-.47.66-.66.03.35.08.69.15,1.03Z"/>
      <path id="path661" class="st9" d="M58.16,55.84h.58c-.26,1.06-.57,2.1-.92,3.11-.12-.2-.24-.4-.36-.59.45-.61.7-1.5.7-2.51Z"/>
      <path id="path663" class="st9" d="M55.39,55.84h.32c.21.8.52,1.58.89,2.25.31.56.61,1.12.92,1.68-.46,1.22-.97,2.4-1.54,3.53-.11,0-.21,0-.32,0-.04,0-.08,0-.12,0,.24-.58.39-1.27.42-2.02.07-1.63-.43-3.2-1.25-4.21.2-.46.42-.88.67-1.23Z"/>
      <path id="path665" class="st9" d="M44.6,55.84h10.7c-.95.99-1.82,2.46-1.98,4.43-.04.49-.04,1,0,1.5-.3.18-.6.39-.89.63-.12-.07-.23-.14-.35-.22-1.06.72-2.28,1.13-3.57,1.13-3.95,0-7.19-3.83-7.3-8.57.89.69,2.08,1.11,3.39,1.11Z"/>
      <path id="path667" class="st9" d="M30.98,55.84c1.31,0,2.5-.42,3.39-1.11-.11,4.74-3.34,8.57-7.3,8.57-1.3,0-2.52-.41-3.57-1.13-.35.24-.72.44-1.1.61.05-.47,0-.94-.19-1.38-.11-.27-.26-.51-.43-.73.34-.14.68-.2.98-.19-.44-.27-.9-.39-1.35-.32-.41-.65-1.21-.95-1.93-.68-.1-.18-.23-.33-.38-.45.92-.77,1.42-1.88,1.2-2.98-.01-.07-.03-.13-.05-.2h10.73Z"/>
      <path id="path669" class="st9" d="M53.34,85.16c-3.65,2.02-7.77,3.13-12.07,3.82-1.4.23-2.3.66-3.48,1.43-1.18-.77-2.08-1.2-3.48-1.43-4.3-.7-8.42-1.8-12.07-3.82.68-.57,1.37-1.24,2.06-1.93l3.64,1.62c.83.37,1.81,0,2.18-.84l.02-.05,3.63.77v.06c0,.91.74,1.65,1.65,1.65h4.74c.91,0,1.65-.74,1.65-1.65v-.06l3.63-.77.02.05c.37.83,1.35,1.21,2.18.84l3.64-1.62c.69.7,1.38,1.37,2.06,1.94Z"/>
      <path id="path671" class="st3" d="M52.1,23.23c1.19.56,1.96,1.85,2.24,3.11-.46-1.2-1.22-2.33-2.24-3.11Z"/>
      <path id="path673" class="st3" d="M56.86,25.87c.75.92.91,2.26.62,3.39.1-1.15-.09-2.36-.62-3.39Z"/>
      <path id="path675" class="st3" d="M57.5,30.03c-.64-.3-1.16-1.07-1.35-2.09-.19-1.02.01-2.06.46-2.77,1.14,1.26,1.36,3.28.89,4.87Z"/>
      <path id="path677" class="st3" d="M56.02,31.11c-1.37-.41-2.76-1.53-3.14-2.98.74.01,1.59.36,2.25.99.66.63.97,1.38.89,1.99Z"/>
      <path id="path679" class="st3" d="M53.27,28.64c.5.88,1.3,1.6,2.19,2.07-.95-.33-1.87-1.07-2.19-2.07Z"/>
      <path id="path681" class="st3" d="M57.1,31.09l.2-.85c.05.03.17.11.2.12l-.26,1.04c-.05-.1-.09-.21-.14-.31Z"/>
      <path id="path683" class="st3" d="M56.25,31.26s.01-.15.01-.21l.54.2c.04.1.09.19.13.29l-.68-.28Z"/>
      <path id="path685" class="st3" d="M59.08,30.1c.71,1.1.74,2.58.3,3.78.23-1.25.15-2.6-.3-3.78Z"/>
      <path id="path687" class="st3" d="M59.32,34.74c-.66-.41-1.14-1.32-1.24-2.46-.09-1.15.24-2.26.8-2.98,1.1,1.52,1.12,3.76.43,5.44Z"/>
      <path id="path689" class="st3" d="M57.62,35.71c-1.45-.62-2.83-2.03-3.08-3.66.8.1,1.69.6,2.34,1.37.65.77.9,1.63.74,2.29Z"/>
      <path id="path691" class="st3" d="M54.92,32.66c.45,1.03,1.24,1.91,2.14,2.55-1-.48-1.91-1.42-2.14-2.55Z"/>
      <path id="path693" class="st3" d="M58.81,35.74c.09-.27.18-.53.27-.8.05.04.17.14.21.16l-.36,1.05c-.04-.14-.08-.27-.12-.41Z"/>
      <path id="path695" class="st3" d="M57.86,35.9s.03-.17.03-.22l.63.32c.03.11.06.22.09.33-.25-.14-.5-.28-.75-.42Z"/>
      <path id="path697" class="st3" d="M60.9,34.89c.62,1.29.47,2.9-.15,4.15.4-1.32.49-2.8.15-4.15Z"/>
      <path id="path699" class="st3" d="M60.58,39.97c-.65-.54-1.06-1.58-1.02-2.84.05-1.26.54-2.42,1.23-3.12.98,1.79.73,4.22-.21,5.96Z"/>
      <path id="path701" class="st3" d="M58.67,40.76c-1.49-.88-2.78-2.59-2.85-4.39.84.22,1.74.88,2.34,1.8.6.92.76,1.9.51,2.59Z"/>
      <path id="path703" class="st3" d="M56.14,37.09c.35,1.17,1.09,2.24,1.98,3.06-1.02-.66-1.87-1.8-1.98-3.06Z"/>
      <path id="path705" class="st3" d="M59.92,40.95c.13-.27.25-.54.38-.8.05.05.17.17.2.2l-.52,1.11c-.02-.17-.04-.33-.07-.5Z"/>
      <path id="path707" class="st3" d="M58.9,41.01s.05-.18.06-.24l.63.42c.02.12.03.24.05.36-.25-.18-.49-.36-.74-.54Z"/>
      <path id="path709" class="st3" d="M62.26,40.28c.48,1.48.08,3.19-.76,4.44.62-1.36.93-2.93.76-4.44Z"/>
      <path id="path711" class="st3" d="M61.18,45.69c-.62-.68-.9-1.87-.67-3.21.23-1.34.92-2.52,1.77-3.17.78,2.08.17,4.65-1.1,6.38Z"/>
      <path id="path713" class="st3" d="M59.03,46.25c-1.46-1.18-2.58-3.22-2.39-5.16.87.37,1.72,1.21,2.22,2.3.5,1.09.53,2.16.17,2.86Z"/>
      <path id="path715" class="st3" d="M56.88,41.9c.21,1.31.83,2.58,1.66,3.59-1-.87-1.73-2.23-1.66-3.59Z"/>
      <path id="path717" class="st3" d="M60.32,46.65c.18-.27.35-.54.53-.81.04.06.15.21.19.24l-.72,1.13c0-.19,0-.38,0-.56Z"/>
      <path id="path719" class="st3" d="M59.24,46.55l.1-.25.57.52c0,.13,0,.26,0,.39l-.67-.66Z"/>
      <path id="path721" class="st3" d="M62.78,46.2c.29,1.65-.36,3.42-1.44,4.64.85-1.37,1.4-3,1.44-4.64Z"/>
      <path id="path723" class="st3" d="M60.88,51.83c-.56-.81-.69-2.13-.26-3.53.43-1.4,1.33-2.56,2.32-3.13.54,2.33-.47,4.99-2.07,6.66Z"/>
      <path id="path725" class="st3" d="M58.52,52.11c-1.39-1.48-2.28-3.83-1.81-5.87.87.52,1.65,1.55,2.03,2.78s.26,2.38-.23,3.09Z"/>
      <path id="path727" class="st3" d="M56.85,47.15c.03,1.43.51,2.87,1.26,4.08-.94-1.08-1.52-2.64-1.26-4.08Z"/>
      <path id="path729" class="st3" d="M59.88,52.67c.21-.24.41-.49.62-.73l.17.29-.88,1.06c.03-.2.06-.41.09-.62Z"/>
      <path id="path731" class="st3" d="M58.7,52.47l.14-.25.54.64c-.02.14-.05.27-.07.4l-.61-.8Z"/>
      <path id="path733" class="st3" d="M62.55,52.73c.02,1.79-.98,3.55-2.32,4.65,1.14-1.3,2-2.93,2.32-4.65Z"/>
      <path id="path735" class="st3" d="M59.55,58.34c-.44-.96-.36-2.38.35-3.78.7-1.41,1.85-2.47,2.99-2.9.16,2.56-1.37,5.2-3.34,6.69Z"/>
      <path id="path737" class="st3" d="M57.01,58.23c-1.2-1.82-1.72-4.47-.87-6.53.82.7,1.47,1.93,1.65,3.31.18,1.38-.14,2.57-.78,3.23Z"/>
      <path id="path739" class="st3" d="M56.12,52.69c-.22,1.52.03,3.13.61,4.55-.8-1.32-1.13-3.07-.61-4.55Z"/>
      <path id="path741" class="st3" d="M58.41,59.02c.24-.21.49-.42.73-.62.03.09.09.29.12.33-.36.34-.72.68-1.08.97.08-.22.15-.45.23-.68Z"/>
      <path id="path743" class="st3" d="M57.13,58.64s.15-.17.2-.24c.15.25.29.5.44.75-.05.14-.1.27-.15.41-.16-.31-.32-.62-.49-.92Z"/>
      <path id="path745" class="st3" d="M61.09,59.7c-.31,1.89-1.68,3.54-3.3,4.45,1.44-1.15,2.64-2.71,3.3-4.45Z"/>
      <path id="path747" class="st3" d="M56.91,65.04c-.29-1.09.07-2.56,1.07-3.91,1-1.35,2.4-2.25,3.67-2.49-.31,2.72-2.4,5.2-4.74,6.4Z"/>
      <path id="path749" class="st3" d="M54.23,64.44c-.92-2.15-.97-5.02.31-7.03.73.89,1.17,2.3,1.11,3.78-.07,1.48-.63,2.67-1.42,3.24Z"/>
      <path id="path751" class="st3" d="M54.34,58.45c-.51,1.55-.55,3.29-.22,4.89-.59-1.54-.61-3.44.22-4.89Z"/>
      <path id="path753" class="st3" d="M55.58,65.53c.3-.17.59-.35.89-.52.01.1.04.32.07.37-.46.3-.9.58-1.34.81.13-.22.26-.44.39-.67Z"/>
      <path id="path755" class="st3" d="M54.28,64.89s.19-.15.25-.21c.09.25.18.51.28.76-.08.13-.15.25-.23.38-.1-.31-.2-.62-.29-.93Z"/>
      <path id="path757" class="st3" d="M58.25,67.37c-.85,1.84-2.72,3.15-4.63,3.61,1.79-.77,3.46-2.02,4.63-3.61Z"/>
      <path id="path759" class="st3" d="M52.47,71.64c.02-1.2.8-2.6,2.19-3.69,1.4-1.09,3.08-1.61,4.46-1.5-1.08,2.69-3.91,4.64-6.65,5.19Z"/>
      <path id="path761" class="st3" d="M49.85,70.25c-.34-2.47.43-5.41,2.29-7.1.49,1.12.55,2.69.07,4.19-.48,1.49-1.4,2.56-2.36,2.91Z"/>
      <path id="path763" class="st3" d="M51.65,64.15c-.96,1.44-1.49,3.21-1.6,4.94-.17-1.75.35-3.69,1.6-4.94Z"/>
      <path id="path765" class="st3" d="M50.89,71.79l1.14-.3-.04.4-1.61.4c.17-.16.34-.33.51-.49Z"/>
      <path id="path767" class="st3" d="M49.78,70.72l.31-.15.05.67c-.11.1-.22.21-.34.31l-.03-.83Z"/>
      <path id="path769" class="st3" d="M49.27,72.25c.23-.18.44-.36.64-.55,5.66-5.13,9.58-13.61,10.06-23.36.39-8.01-1.61-15.43-5.18-21,.03.01.07.02.1.03l-.05-.27c3.67,5.69,5.73,13.31,5.33,21.55-.48,9.73-4.3,18.23-9.83,23.48-.17.16-.34.32-.53.47-.18-.13-.36-.25-.55-.37h0Z"/>
      <path id="path771" class="st3" d="M30.82,79.21c3.67-.12,9-1.75,13.38-3.87.28.12.58.25.89.39-4.24,2.27-9.5,4.14-13.05,4.47-.32-.35-.73-.69-1.21-.99Z"/>
      <path id="path773" class="st3" d="M32.8,10.3h3.81s1.17,1.62,1.17,1.62v-5.24l1.17,3.63-1.17,1.61,4.99-1.62-3.09,2.24-1.9-.62,3.08,4.24-3.08-2.25v-1.99s-3.08,4.24-3.08,4.24l1.19-3.62,1.9-.62-4.99-1.62Z"/>
      <path id="path775" class="st3" d="M29.02,82.4l6.4,1.36c.29.06.47.35.41.63-.06.29-.35.47-.63.41l-6.4-1.36c-.29-.06-.47-.35-.41-.63s.35-.47.63-.41Z"/>
      <path id="path777" class="st3" d="M40.16,83.76l6.4-1.36c.29-.06.57.12.63.41s-.12.57-.41.63l-6.4,1.36c-.29.06-.57-.12-.63-.41-.06-.29.12-.57.41-.63Z"/>
      <path id="path779" class="st3" d="M51.12,83.07l-3.56,1.59c-.72.32-1.58,0-1.9-.73h0s1.15-.26,1.15-.26c.1.05.21.06.32,0l3.2-1.42c.27.27.53.54.8.81Z"/>
      <path id="path781" class="st3" d="M45.95,81.05l2.12-.94c.11.09.22.19.33.29.18.16.36.33.54.5l-2.55,1.14c-.1.05-.17.13-.2.23l-1.08.23c-.05-.59.27-1.18.85-1.44Z"/>
      <path id="path783" class="st3" d="M35.13,85.02c.07.08.17.14.29.14h4.74c.11,0,.22-.05.29-.14l1.15-.25h0c0,.8-.65,1.45-1.44,1.45h-4.74c-.79,0-1.44-.65-1.44-1.44h0s1.15.23,1.15.23Z"/>
      <path id="path785" class="st3" d="M35.42,82.29h4.74c.63,0,1.16.41,1.36.97l-1.08.23c-.07-.08-.17-.13-.28-.13h-4.74c-.11,0-.21.05-.28.13l-1.08-.23c.2-.56.73-.97,1.36-.97Z"/>
      <path id="path787" class="st3" d="M25.26,82.25l3.2,1.42c.1.05.22.04.32,0l1.15.25h0c-.32.74-1.18,1.06-1.9.74l-3.56-1.59c.27-.27.54-.54.8-.81Z"/>
      <path id="path789" class="st3" d="M27.51,80.11l2.12.94c.57.26.9.85.85,1.44l-1.08-.23c-.03-.1-.1-.19-.2-.23l-2.55-1.14c.18-.17.36-.34.54-.5.11-.1.22-.19.33-.29Z"/>
      <path id="path791" class="st3" d="M54.75,27.12c-.75.02-1.62-.48-2.3-1.42-.68-.94-1-2.1-.92-3.05,1.74.7,2.89,2.68,3.21,4.47Z"/>
      <path id="path793" class="st4" d="M26,14.81l6.6-1.77.12.45-6.6,1.77-.12-.45Z"/>
      <path id="path795" class="st4" d="M42.19,16.78l3.18,3.76-.34.28-3.18-3.76.33-.28Z"/>
      <path id="path797" class="st4" d="M49.58,14.81l-.12.45-6.6-1.77.12-.45,6.6,1.77Z"/>
      <path id="path799" class="st4" d="M32.8,10.3l4.99,1.62-1.17-1.61,1.17-3.63v5.24l1.17-1.61h3.81s-4.99,1.61-4.99,1.61l1.9.62,1.19,3.62-3.08-4.24v1.99l-3.08,2.25,3.08-4.24-1.9.62-3.09-2.24Z"/>
      <path id="path801" class="st4" d="M33.39,16.78l.34.28-3.18,3.76-.34-.28,3.18-3.76Z"/>
      <path id="path803" class="st0" d="M55.44,63.54c.07,0,.15,0,.23,0,.06,0,.13,0,.19,0-.26.51-.53,1-.82,1.48-.08,0-.15-.02-.23-.03-.05-.12-.09-.24-.14-.36.3-.29.56-.66.76-1.1Z"/>
      <path id="path805" class="st0" d="M52.59,68.59c-.72.9-1.49,1.74-2.29,2.51l-.05-.53c.75-.41,1.44-1.18,1.93-2.22.14.09.27.17.41.24Z"/>
      <path id="path807" class="st0" d="M53.55,67.32c-.14.2-.29.4-.44.59-.22-.09-.43-.2-.64-.32.01-.03.02-.07.03-.1.06-.18.11-.37.16-.56.29.15.58.28.88.39Z"/>
      <path id="path809" class="st0" d="M54.38,65.85c.02.05.04.11.05.16-.12.18-.23.36-.35.54-.44-.11-.86-.27-1.26-.47.03-.25.05-.5.05-.74.48.23.98.41,1.51.52Z"/>
      <path id="path811" class="st0" d="M52.52,62.71c.33.18.67.34,1.02.47.08.35.18.7.29,1.02.07.21.14.43.21.64-.42-.11-.83-.27-1.22-.46-.07-.56-.2-1.09-.4-1.55.03-.04.06-.08.1-.12Z"/>
      <path id="path813" class="st0" d="M24.12,65.26c-.06.02-.12.04-.18.07-.17-.16-.36-.28-.56-.36.04-.02.08-.05.12-.08.2.13.41.26.63.37Z"/>
      <path id="path815" class="st0" d="M42.36,75.94c-1.44.61-2.95,1.16-4.44,1.62-1.55-.47-3.15-1.03-4.7-1.65,0-.26-.07-.55-.23-.88l-.13-.27c1.47-.44,3.13-.7,4.93-.7s3.46.26,4.93.7l-.13.27c-.17.34-.24.64-.23.9Z"/>
      <path id="path817" class="st0" d="M49.49,69.3c0,.19,0,.38.02.57l.1,1.85c-.16.14-.33.28-.51.42-2.94-1.83-6.93-2.95-11.31-2.95s-8.72,1.22-11.69,3.2c-.48-.31-.92-.61-1.32-.91.12-.29.19-.63.19-.97.27-.42.46-.86.58-1.32.49.12,1,.19,1.52.19,1.29,0,2.51-.4,3.57-1.1,1.06.7,2.28,1.1,3.57,1.1s2.51-.4,3.57-1.1c1.06.7,2.28,1.1,3.57,1.1s2.51-.4,3.57-1.1c1.06.7,2.28,1.1,3.57,1.1.33,0,.66-.03.98-.08Z"/>
      <path id="path819" class="st0" d="M49.62,67.58c-.04.26-.07.52-.09.78-.33.05-.67.08-1.02.08-1.29,0-2.51-.4-3.57-1.1-1.06.7-2.28,1.1-3.57,1.1s-2.51-.4-3.57-1.1c-1.06.7-2.28,1.1-3.57,1.1s-2.51-.4-3.57-1.1c-1.06.7-2.28,1.1-3.57,1.1-.48,0-.95-.05-1.4-.16,0-.27-.02-.53-.08-.78.48.12.98.18,1.48.18,1.29,0,2.51-.4,3.57-1.1,1.06.7,2.28,1.1,3.57,1.1s2.51-.4,3.57-1.1c1.06.7,2.28,1.1,3.57,1.1s2.51-.4,3.57-1.1c1.06.7,2.28,1.1,3.57,1.1.38,0,.75-.03,1.11-.1Z"/>
      <path id="path821" class="st0" d="M50.06,65.79c-.09.27-.18.54-.25.82-.42.09-.86.14-1.3.14-1.29,0-2.51-.4-3.57-1.1-1.06.7-2.28,1.1-3.57,1.1s-2.51-.4-3.57-1.1c-1.06.7-2.28,1.1-3.57,1.1s-2.51-.4-3.57-1.1c-1.06.7-2.28,1.1-3.57,1.1-.67,0-1.33-.11-1.95-.31-.01-.02-.03-.04-.04-.05-.18-.25-.4-.46-.63-.63.1-.08.21-.15.31-.21.73.28,1.5.44,2.31.44,1.29,0,2.51-.4,3.57-1.1,1.06.7,2.28,1.1,3.57,1.1s2.51-.4,3.57-1.1c1.06.7,2.28,1.1,3.57,1.1s2.51-.4,3.57-1.1c1.06.7,2.28,1.1,3.57,1.1.53,0,1.05-.07,1.55-.19Z"/>
      <path id="path823" class="st0" d="M22.35,63.06c.4-.16.78-.37,1.14-.61,1.06.7,2.28,1.1,3.57,1.1s2.51-.4,3.57-1.1c1.06.7,2.28,1.1,3.57,1.1s2.51-.4,3.57-1.1c1.06.7,2.28,1.1,3.57,1.1s2.51-.4,3.57-1.1c1.06.7,2.28,1.1,3.57,1.1s2.51-.4,3.57-1.1c.05.03.1.07.16.1-.64.56-1.25,1.28-1.72,2.18-.64.22-1.31.33-2.01.33-1.29,0-2.51-.4-3.57-1.1-1.06.7-2.28,1.1-3.57,1.1s-2.51-.4-3.57-1.1c-1.06.7-2.28,1.1-3.57,1.1s-2.51-.4-3.57-1.1c-1.06.7-2.28,1.1-3.57,1.1s-2.51-.4-3.57-1.1c-.64.42-1.34.73-2.07.91,0,0,0,0,0,0,.48-.54.81-1.17.93-1.82Z"/>
      <path id="path825" class="st5" d="M39.2,21.66l.25.33v.78h0c-.31-.14-.94-.24-1.66-.24s-1.35.1-1.66.24h0v-.79l.25-.33.47.62.47-.62.47.62.47-.62.47.62.47-.62Z"/>
      <path id="path827" class="st5" d="M39.11,23.6l1.61,27.24-.67.66-.69-.69-.82-27.86c.28.15.49.38.57.65Z"/>
      <path id="path829" class="st5" d="M38.43,22.89l.82,27.9-.71.71-.7-.7v-28.03c.21,0,.41.05.59.13Z"/>
      <path id="path831" class="st5" d="M37.74,22.77v28.03l-.7.7-.71-.71.82-27.9c.18-.08.38-.12.59-.13Z"/>
      <path id="path833" class="st5" d="M40.81,51.01l.42.42v.86c0,.14-.16.26-.35.26h-6.19c-.19,0-.35-.12-.35-.26v-.86l.42-.42.76.75.76-.75.76.75.76-.75.76.75.76-.75.76.75.76-.75Z"/>
      <path id="path835" class="st5" d="M35.39,52.72h4.81c.26,0,.47.17.47.37v.02c0,.21-.21.37-.47.37h-4.81c-.26,0-.47-.17-.47-.37v-.02c0-.21.21-.37.47-.37Z"/>
      <path id="path837" class="st5" d="M34.35,54.27v-.32c0-.14.16-.26.35-.26h6.19c.19,0,.35.12.35.26v.32l-1.01.56-1.22-.68-1.22.68-1.22-.68-1.22.68-1.01-.56Z"/>
      <path id="path839" class="st5" d="M37.03,22.95l-.82,27.86-.69.69-.67-.66,1.61-27.24c.08-.27.29-.5.57-.65Z"/>
      <path id="path841" class="st5" d="M37.79,18.89c.65.55,1.14,1.54,1.29,2.72l-.34.45-.47-.62-.47.62-.47-.62-.47.62-.34-.45c.15-1.17.64-2.16,1.29-2.72h0Z"/>
      <path id="path843" class="st5" d="M41,54.66c.05,3.25,1.54,6.09,3.72,7.64-1.01.64-2.15,1-3.36,1-1.3,0-2.52-.41-3.57-1.13-1.06.72-2.28,1.13-3.57,1.13-1.21,0-2.36-.36-3.36-1,2.18-1.55,3.67-4.39,3.72-7.64l.8.72,1.21-.94,1.21.94,1.21-.94,1.21.94.8-.72Z"/>
      <path id="path845" class="st5" d="M55.63,55.52h0s0,0,0,0c0,0,0,0,0,0Z"/>
      <path id="path847" class="st5" d="M53.48,62.9c-.28-.1-.55-.23-.81-.37.21-.24.43-.47.66-.66.03.35.08.69.15,1.03Z"/>
      <path id="path849" class="st5" d="M19.22,31.54c.81.32.52,1.55-.06,1.93.35-.13.6-.45.63-.82.15.25.19.57.08.86-.08.21-.23.38-.41.48.22-.08.41-.23.5-.44.44.15.7.62.63,1.08-.38-.2-.88-.21-1.27-.05-.14-.43-.47-.89-.83-1.15-.44-.06-1,.05-1.39.27-.17-.39-.54-.73-.96-.84.25-.38.76-.54,1.19-.35-.07.22-.04.46.07.67-.06-.2-.06-.43.03-.64.12-.29.36-.5.64-.58-.22.29-.26.7-.09,1.03-.17-.69.45-1.78,1.27-1.46Z"/>
      <path id="path851" class="st5" d="M17.47,36.09c.93.23.79,1.59.21,2.09.36-.19.58-.57.57-.97.2.25.29.59.21.92-.06.24-.2.44-.38.58.23-.12.4-.31.48-.55.49.1.85.57.83,1.07-.44-.16-.99-.1-1.38.14-.21-.44-.63-.89-1.06-1.12-.49,0-1.07.2-1.46.49-.24-.4-.69-.7-1.16-.77.22-.45.75-.7,1.23-.56-.05.25.02.5.17.71-.09-.21-.12-.45-.06-.69.08-.33.32-.59.61-.72-.2.35-.18.79.05,1.13-.28-.72.23-1.99,1.16-1.76Z"/>
      <path id="path853" class="st5" d="M16.2,41.09c1.03.1,1.08,1.58.54,2.21.36-.26.54-.7.46-1.13.25.24.4.58.36.95-.03.26-.14.5-.32.68.23-.16.39-.4.43-.67.55.03.99.48,1.05,1.01-.5-.1-1.07.05-1.46.36-.29-.44-.81-.86-1.31-1.03-.52.08-1.12.38-1.5.76-.32-.39-.85-.64-1.36-.64.17-.51.7-.86,1.24-.79-.01.28.1.54.29.74-.13-.21-.2-.46-.17-.73.04-.37.25-.68.55-.86-.16.4-.08.87.22,1.2-.41-.72-.05-2.16.98-2.06Z"/>
      <path id="path855" class="st5" d="M15.54,46.5c1.11-.06,1.41,1.49.93,2.26.34-.33.46-.83.31-1.28.31.21.52.55.54.95.01.29-.07.56-.23.77.22-.21.35-.48.35-.78.59-.06,1.13.34,1.28.9-.55-.03-1.13.23-1.5.63-.38-.42-1.01-.77-1.56-.88-.54.17-1.13.59-1.47,1.05-.4-.36-1.01-.54-1.55-.45.09-.57.6-1.03,1.19-1.04.03.29.19.55.42.74-.17-.2-.29-.46-.3-.74-.02-.4.16-.77.44-1.01-.11.46.06.94.43,1.23-.55-.7-.4-2.29.71-2.35Z"/>
      <path id="path857" class="st5" d="M15.73,52.27c1.17-.25,1.73,1.35,1.34,2.23.3-.41.35-.96.12-1.4.36.17.64.5.72.92.06.3.01.6-.12.86.2-.26.29-.57.25-.88.61-.16,1.26.17,1.5.74-.58.06-1.16.43-1.49.91-.47-.38-1.19-.65-1.79-.67-.55.27-1.1.81-1.39,1.36-.48-.31-1.15-.41-1.71-.22,0-.62.47-1.19,1.1-1.3.08.31.29.55.57.71-.22-.18-.38-.44-.44-.74-.08-.42.04-.84.31-1.14-.04.5.21.98.65,1.23-.69-.65-.79-2.35.38-2.6Z"/>
      <path id="path859" class="st5" d="M16.7,58.36c1.17-.5,2.08,1.06,1.84,2.06.24-.49.18-1.07-.14-1.49.41.1.76.39.93.82.12.3.13.62.04.92.16-.31.2-.65.09-.97.61-.29,1.35-.07,1.72.47-.6.18-1.14.68-1.38,1.25-.57-.3-1.37-.44-2.01-.34-.52.39-1,1.07-1.2,1.7-.56-.23-1.29-.19-1.84.11-.11-.65.27-1.34.9-1.58.14.3.41.52.73.63-.26-.15-.48-.38-.6-.68-.17-.42-.12-.88.1-1.25.05.53.41.99.92,1.16-.85-.54-1.28-2.3-.11-2.8Z"/>
      <path id="path861" class="st5" d="M18.62,64.72c1.08-.82,2.41.53,2.43,1.62.12-.56-.09-1.15-.53-1.49.45,0,.89.2,1.17.59.2.28.29.61.28.93.08-.36.03-.72-.16-1.02.56-.46,1.38-.43,1.9.02-.57.35-1,1-1.1,1.65-.66-.16-1.53-.09-2.16.19-.44.54-.75,1.37-.79,2.06-.64-.08-1.38.14-1.87.6-.28-.64-.07-1.45.52-1.86.23.27.56.42.92.45-.31-.08-.59-.26-.8-.54-.28-.39-.35-.88-.22-1.31.19.53.68.9,1.25.94-1.02-.33-1.92-2.02-.83-2.84Z"/>
      <path id="path863" class="st5" d="M21.42,27.47c.7.39.29,1.46-.29,1.74.33-.07.59-.33.67-.66.11.25.11.54-.03.79-.1.18-.25.31-.43.38.21-.04.39-.16.51-.34.38.19.56.65.44,1.05-.32-.23-.77-.3-1.14-.2-.07-.4-.32-.86-.62-1.14-.39-.11-.91-.08-1.28.07-.11-.37-.4-.72-.77-.88.27-.31.75-.4,1.11-.18-.09.19-.09.41-.02.61-.03-.19,0-.39.1-.57.14-.25.38-.41.65-.44-.24.24-.32.6-.2.92-.07-.64.62-1.55,1.31-1.16Z"/>
      <path id="path865" class="st5" d="M52.1,23.23c1.19.56,1.96,1.85,2.24,3.11-.46-1.2-1.22-2.33-2.24-3.11Z"/>
      <path id="path867" class="st5" d="M56.86,25.87c.75.92.91,2.26.62,3.39.1-1.15-.09-2.36-.62-3.39Z"/>
      <path id="path869" class="st5" d="M53.27,28.64c.5.88,1.3,1.6,2.19,2.07-.95-.33-1.87-1.07-2.19-2.07Z"/>
      <path id="path871" class="st5" d="M57.1,31.09l.2-.85c.05.03.17.11.2.12l-.26,1.04c-.05-.1-.09-.21-.14-.31Z"/>
      <path id="path873" class="st5" d="M56.25,31.26s.01-.15.01-.21l.54.2c.04.1.09.19.13.29l-.68-.28Z"/>
      <path id="path875" class="st5" d="M59.08,30.1c.71,1.1.74,2.58.3,3.78.23-1.25.15-2.6-.3-3.78Z"/>
      <path id="path877" class="st5" d="M54.92,32.66c.45,1.03,1.24,1.91,2.14,2.55-1-.48-1.91-1.42-2.14-2.55Z"/>
      <path id="path879" class="st5" d="M60.9,34.89c.62,1.29.47,2.9-.15,4.15.4-1.32.49-2.8.15-4.15Z"/>
      <path id="path881" class="st5" d="M56.14,37.09c.35,1.17,1.09,2.24,1.98,3.06-1.02-.66-1.87-1.8-1.98-3.06Z"/>
      <path id="path883" class="st5" d="M62.26,40.28c.48,1.48.08,3.19-.76,4.44.62-1.36.93-2.93.76-4.44Z"/>
      <path id="path885" class="st5" d="M56.88,41.9c.21,1.31.83,2.58,1.66,3.59-1-.87-1.73-2.23-1.66-3.59Z"/>
      <path id="path887" class="st5" d="M62.78,46.2c.29,1.65-.36,3.42-1.44,4.64.85-1.37,1.4-3,1.44-4.64Z"/>
      <path id="path889" class="st5" d="M56.85,47.15c.03,1.43.51,2.87,1.26,4.08-.94-1.08-1.52-2.64-1.26-4.08Z"/>
      <path id="path891" class="st5" d="M62.55,52.73c.02,1.79-.98,3.55-2.32,4.65,1.14-1.3,2-2.93,2.32-4.65Z"/>
      <path id="path893" class="st5" d="M56.12,52.69c-.22,1.52.03,3.13.61,4.55-.8-1.32-1.13-3.07-.61-4.55Z"/>
      <path id="path895" class="st5" d="M61.09,59.7c-.31,1.89-1.68,3.54-3.3,4.45,1.44-1.15,2.64-2.71,3.3-4.45Z"/>
      <path id="path897" class="st5" d="M54.34,58.45c-.51,1.55-.55,3.29-.22,4.89-.59-1.54-.61-3.44.22-4.89Z"/>
      <path id="path899" class="st5" d="M58.25,67.37c-.85,1.84-2.72,3.15-4.63,3.61,1.79-.77,3.46-2.02,4.63-3.61Z"/>
      <path id="path901" class="st5" d="M51.65,64.15c-.96,1.44-1.49,3.21-1.6,4.94-.17-1.75.35-3.69,1.6-4.94Z"/>
      <path id="path903" class="st5" d="M32.31,76.89c-.14.07-.29.14-.45.21-1.61.7-3.14,1.6-4.41,2.67-2.04,1.71-3.77,3.82-5.88,5.59-.64.54-1.75.21-2.48-.28-.47-.32-.75-.95-1.43-1.46-.71-.53-1.34-.87-1.69-1.2-.31-.29-.4-.57-.15-.96.3.96,1.62.46,2.82-.24,1.78-1.02,3.19-2.51,4.61-3.9.55-.54,1.16-1.05,1.82-1.53.07-.05.13-.1.2-.14.67.71,1.22,1.55,1.61,2.43.4.89,1.48.36,2.61-.4.6-.41,1.2-.9,1.72-1.27.36.17.73.33,1.09.49Z"/>
      <path id="path905" class="st5" d="M32.04,75.43c.12-.05.22-.07.31-.07.36,0,.52.2.58.44-.3-.12-.6-.25-.89-.37Z"/>
      <path id="path907" class="st5" d="M42.64,75.82c.06-.25.21-.46.59-.46.09,0,.19.02.3.07-.29.13-.59.27-.89.39Z"/>
      <path id="path909" class="st5" d="M44.31,76.36c.53.38,1.16.89,1.78,1.31,1.13.77,2.21,1.3,2.61.4.39-.88.94-1.72,1.61-2.43.07.05.13.1.2.14.66.48,1.27.99,1.82,1.53,1.42,1.39,2.84,2.88,4.61,3.9,1.21.7,2.53,1.2,2.82.24.26.4.16.68-.15.96-.35.33-.98.67-1.69,1.2-.68.51-.96,1.14-1.43,1.46-.73.5-1.84.82-2.48.28-2.12-1.78-3.85-3.88-5.88-5.59-1.27-1.07-2.8-1.97-4.41-2.67-.17-.07-.33-.15-.47-.22.36-.17.72-.34,1.06-.52Z"/>
      <path id="path911" class="st5" d="M10.54,89.72c-.44-2.39-2.53-4.42-3.58-5.18-.78-.57-2.92-2.42-1.67-3.37,1.63-1.24,3.29-2.46,4.93-3.68,1.17-.87,2.55-.33,3.36.63.83.98,1.34,1.93,2.14,2.95-.2.3-.4.63-.33.98.04.23.17.42.37.6.5.47,1.3.84,1.81,1.3.36.32,1.04,1.21,1.23,1.34.67.45,1.78.86,2.58.53.15-.1.3-.22.46-.33,3.7,2.07,7.88,3.19,12.24,3.95,1.47.26,2.48.87,3.72,1.67,1.24-.8,2.25-1.41,3.72-1.67,4.36-.77,8.54-1.88,12.24-3.95.15.12.3.23.46.33.8.33,1.91-.08,2.58-.53.19-.13.87-1.01,1.23-1.34.51-.46,1.31-.83,1.81-1.3.2-.19.33-.38.37-.6.07-.35-.13-.68-.33-.98.81-1.02,1.31-1.96,2.14-2.95.81-.96,2.19-1.5,3.36-.63,1.64,1.23,3.3,2.44,4.93,3.68,1.25.95-.89,2.8-1.67,3.37-1.06.77-3.14,2.8-3.58,5.18l-.95-2.65c1.57-1.62,2.87-2.9,4.11-3.46,1.46-.67,2.18-1.7,1.8-1.98-.65-.47-2.28,1.12-2.7,1.61-7.09,8.26-17.8,13.23-29.5,13.23s-22.41-4.97-29.5-13.23c-.42-.48-2.05-2.07-2.7-1.61-.38.27.34,1.31,1.8,1.98,1.24.56,2.54,1.84,4.11,3.46l-.95,2.65Z"/>
      <path id="path913" class="st5" d="M37.79,69.49c5.28,0,10.01,1.63,12.91,4.21l.3.27c.18.16.13.58-.06.74l-.2.16c-.97.82-1.75,1.89-2.25,3.05-.33.78-1.48.21-2.63-.55-.54-.36-1.02-.75-1.43-1.06.1-.05.2-.1.29-.15.3.21.62.45.95.68,1.01.71,2,1.41,2.27.92.57-1.02-4.61-3.05-5.31-3.25-1.46-.42-3.1-.68-4.85-.68s-3.39.26-4.85.68c-.7.2-5.88,2.23-5.31,3.25.27.49,1.26-.21,2.27-.92.3-.21.6-.43.88-.63.1.05.2.1.31.14-.4.3-.86.67-1.38,1.01-1.15.77-2.3,1.33-2.63.55-.49-1.16-1.28-2.23-2.25-3.05l-.2-.16c-.19-.16-.24-.57-.06-.74l.3-.27c2.9-2.58,7.64-4.21,12.91-4.21Z"/>
      <path id="path915" class="st5" d="M24.12,65.26c-.06.02-.12.04-.18.07-.17-.16-.36-.28-.56-.36.04-.02.08-.05.12-.08.2.13.41.26.63.37Z"/>
      <path id="path917" class="st5" d="M53.65,67.18c-.32-.11-.64-.24-.95-.4.04-.18.07-.36.1-.53.38.19.77.34,1.18.46-.11.16-.22.32-.33.48Z"/>
      <path id="path919" class="st5" d="M52.69,68.46c-.15-.08-.3-.17-.45-.26.07-.15.13-.31.19-.47.19.11.39.21.59.3-.11.14-.22.28-.33.42Z"/>
      <path id="path921" class="st5" d="M54.88,65.18s.04,0,.06,0c-.01.02-.02.04-.04.06,0-.02-.02-.05-.03-.07Z"/>
      <path id="path923" class="st5" d="M54.32,65.67c-.5-.11-.98-.28-1.44-.5,0-.2-.01-.4-.03-.6.4.2.82.36,1.26.47.07.21.14.42.21.63Z"/>
      <path id="path925" class="st5" d="M49.52,68.54c-.01.2-.02.39-.02.59-.32.05-.65.08-.98.08-1.29,0-2.51-.4-3.57-1.1-1.06.7-2.28,1.1-3.57,1.1s-2.51-.4-3.57-1.1c-1.06.7-2.28,1.1-3.57,1.1s-2.51-.4-3.57-1.1c-1.06.7-2.28,1.1-3.57,1.1-.51,0-1-.06-1.48-.18.04-.19.07-.38.08-.56.46.11.93.16,1.41.16,1.29,0,2.51-.4,3.57-1.1,1.06.7,2.28,1.1,3.57,1.1s2.51-.4,3.57-1.1c1.06.7,2.28,1.1,3.57,1.1s2.51-.4,3.57-1.1c1.06.7,2.28,1.1,3.57,1.1.34,0,.67-.03,1-.08Z"/>
      <path id="path927" class="st5" d="M49.77,66.8c-.05.2-.09.4-.12.61-.37.07-.75.1-1.14.1-1.29,0-2.51-.4-3.57-1.1-1.06.7-2.28,1.1-3.57,1.1s-2.51-.4-3.57-1.1c-1.06.7-2.28,1.1-3.57,1.1s-2.51-.4-3.57-1.1c-1.06.7-2.28,1.1-3.57,1.1-.52,0-1.04-.07-1.53-.19-.07-.23-.16-.45-.28-.66.58.17,1.19.27,1.81.27,1.29,0,2.51-.4,3.57-1.1,1.06.7,2.28,1.1,3.57,1.1s2.51-.4,3.57-1.1c1.06.7,2.28,1.1,3.57,1.1s2.51-.4,3.57-1.1c1.06.7,2.28,1.1,3.57,1.1.43,0,.85-.04,1.26-.13Z"/>
      <path id="path929" class="st5" d="M50.42,64.93c-.1.21-.2.43-.29.67-.52.14-1.06.21-1.62.21-1.29,0-2.51-.4-3.57-1.1-1.06.7-2.28,1.1-3.57,1.1s-2.51-.4-3.57-1.1c-1.06.7-2.28,1.1-3.57,1.1s-2.51-.4-3.57-1.1c-1.06.7-2.28,1.1-3.57,1.1-.73,0-1.44-.13-2.11-.37.15-.07.3-.12.45-.15-.36-.11-.72-.15-1.04-.09-.3-.14-.59-.3-.87-.49-.1.07-.2.13-.3.19-.47-.13-.99-.05-1.42.24-.05-.05-.11-.1-.17-.15.67-.19,1.3-.48,1.89-.86,1.06.7,2.28,1.1,3.57,1.1s2.51-.4,3.57-1.1c1.06.7,2.28,1.1,3.57,1.1s2.51-.4,3.57-1.1c1.06.7,2.28,1.1,3.57,1.1s2.51-.4,3.57-1.1c1.06.7,2.28,1.1,3.57,1.1.66,0,1.3-.1,1.91-.3Z"/>
      <path id="path931" class="st5" d="M42.7,83.01l-.02-.12c.75-.14,1.49-.31,2.21-.51,0,.06,0,.11,0,.17l-2.2.47Z"/>
      <path id="path933" class="st5" d="M30.69,82.37c.73.2,1.46.37,2.21.51l-.02.12-2.2-.47c0-.06,0-.11,0-.17Z"/>
      <path id="path935" class="st5" d="M48.58,75.74l-.19.33-.59-.34.05-1.11-.22-.13-.3.52.24.14-.19.33-1.02-.59.19-.33.27.15.74-1.29-.27-.15.19-.33,1.17.68c.22.13.35.27.38.44.03.17,0,.32-.07.46-.13.22-.33.32-.62.29l-.02.77.25.15Z"/>
      <path id="path937" class="st5" d="M44.93,72.21l.15-.35.98.44-.15.35-.2-.09-.41.93c-.06.12-.09.22-.1.27-.01.06,0,.12.02.17.03.05.08.1.14.13.07.03.14.04.2.03.06-.01.11-.04.15-.09.04-.04.09-.14.16-.3l.4-.9-.2-.09.15-.35.82.36-.15.35-.25-.11-.46,1.03c-.06.14-.11.24-.16.29-.04.06-.11.1-.19.14-.08.04-.18.06-.3.05-.12,0-.24-.04-.37-.1-.15-.07-.27-.15-.36-.24-.09-.09-.14-.18-.16-.28-.02-.09-.02-.18,0-.26.02-.08.06-.2.14-.37l.41-.93-.24-.11Z"/>
      <path id="path939" class="st5" d="M40.72,73.02l.09-.37.28.07.36-1.44-.28-.07.09-.37,1.09.27.16,1.4.8-1.16,1.11.28-.09.37-.28-.07-.36,1.44.28.07-.09.37-1.1-.27.09-.37.26.07.36-1.44h-.05s-1.13,1.63-1.13,1.63l-.23-.06-.23-1.98h-.05s-.36,1.43-.36,1.43l.28.07-.09.37-.92-.23Z"/>
      <path id="path941" class="st5" d="M39.15,72.94l.03-.38.34.02.1-1.48-.34-.02.03-.38,1.27.09-.03.38-.34-.02-.1,1.48.34.02-.03.38-1.27-.09Z"/>
      <path id="path943" class="st5" d="M37.18,72.88v-.38s.34,0,.34,0l.03-1.49h-.34s0,.52,0,.52h-.39s.02-.91.02-.91l2.04.04-.02.9h-.38s0-.53,0-.53h-.35s-.03,1.48-.03,1.48h.34s0,.39,0,.39l-1.26-.02Z"/>
      <path id="path945" class="st5" d="M35.93,72.57l.05.38-1.09.15-.05-.38.28-.04-.16-.37-.58.08-.06.4.3-.04.05.38-.99.14-.05-.38.28-.04.23-1.53-.3.04-.05-.38,1.45-.2.05.38-.3.04.67,1.41.27-.04Z"/>
      <path id="path947" class="st5" d="M31.35,74.02l-1.16-1.61-.23.07-.11-.36.97-.3.11.36-.22.07.66.92v-1.13s-.18.06-.18.06l-.11-.36.77-.24.11.36-.2.06.67.92.02-1.14-.21.07-.11-.36.86-.26.11.36-.23.07-.04,1.98-.4.12-.64-.88-.02,1.08-.41.13Z"/>
      <path id="path949" class="st5" d="M30.3,73.96l.17.34-.98.5-.17-.34.26-.13-.27-.3-.52.26.07.4.27-.14.17.34-.89.45-.17-.34.25-.13-.29-1.52-.27.14-.17-.34,1.31-.67.17.34-.27.14,1.1,1.11.24-.12Z"/>
      <path id="path951" class="st5" d="M27.49,76.65l-.2-.35c.06-.02.12-.04.16-.06.08-.04.12-.1.13-.16,0-.06-.02-.15-.08-.26l-.9-1.56-.29.17-.19-.33,1.06-.61.19.33-.26.15.91,1.58c.12.22.16.41.12.57-.04.16-.15.3-.33.4-.09.05-.19.09-.31.13Z"/>
      <path id="path953" class="st5" d="M66.74,80.71l.44.37-1.07,1.27-.44-.37.28-.33-.55-.25-.56.67.33.51.29-.35.44.37-.96,1.14-.44-.37.27-.32-1.29-1.94-.29.34-.44-.37,1.41-1.69.44.37-.29.35,2.16.89.26-.31Z"/>
      <path id="path955" class="st5" d="M62.88,85.63l-.4-.41.34-.33-.63-.66-1.57-.32-.3.29-.4-.41,1.21-1.17.4.41-.24.23.93.25-.21-.94-.25.24-.4-.41,1.07-1.03.4.41-.3.29.29,1.56.63.66.34-.33.4.41-1.31,1.26Z"/>
      <path id="path957" class="st5" d="M59.49,88.39l-.36-.44.31-.25-1.4-1.73-.31.25-.36-.44,2.31-1.87.67.83-.5.41-.31-.39-.81.66.49.6.66-.53.36.44-.66.53.56.69.81-.66-.32-.39.5-.41.68.83-2.31,1.87Z"/>
      <path id="path959" class="st5" d="M56.29,90.39l-.31-.48.35-.23-1.22-1.87-.35.23-.31-.48,1.29-.84c.29-.19.51-.31.67-.36.16-.06.33-.06.52,0,.18.06.33.18.44.35.18.28.17.56-.02.84.42-.09.74.02.95.35.12.19.17.38.15.58-.02.2-.09.38-.23.54-.13.16-.35.33-.65.53l-1.29.84Z"/>
      <path id="path961" class="st5" d="M54.45,90.63l.24.52-1.5.7-.24-.52.39-.18-.39-.46-.79.37.08.6.41-.19.24.52-1.35.63-.24-.52.38-.18-.35-2.3-.41.19-.24-.52,1.99-.93.24.52-.41.19,1.58,1.72.36-.17Z"/>
      <path id="path963" class="st5" d="M47.9,93.76l-1.7-2.45-.34.1-.16-.55,1.46-.42.16.55-.34.1.97,1.4.05-1.7-.29.08-.16-.55,1.16-.33.16.55-.3.09.98,1.4.06-1.7-.32.09-.16-.55,1.3-.37.16.55-.35.1-.12,2.97-.61.17-.93-1.33-.06,1.62-.62.18Z"/>
      <path id="path965" class="st5" d="M46.37,93.62l.11.56-1.63.32-.11-.56.42-.08-.27-.54-.86.17-.07.6.44-.09.11.56-1.47.28-.11-.56.41-.08.22-2.32-.44.09-.11-.56,2.16-.42.11.56-.44.09,1.12,2.06.39-.08Z"/>
      <path id="path967" class="st5" d="M37.69,95.28l-.05-.57.43-.04-.19-2.22-.43.04-.05-.57,1.68-.15.91,1.9.57-2.03,1.72-.15.05.57-.43.04.19,2.22.43-.04.05.57-1.69.15-.05-.57.41-.04-.19-2.22h-.08s-.8,2.89-.8,2.89l-.36.03-1.3-2.7h-.08s.19,2.23.19,2.23l.44-.04.05.57-1.42.12Z"/>
      <path id="path969" class="st5" d="M33.96,94.95l.05-.57.51.04.19-2.22-.51-.04.05-.57,1.9.17-.05.57-.51-.04-.19,2.22.51.04-.05.57-1.9-.17Z"/>
      <path id="path971" class="st5" d="M31.72,94.64l.11-.56.38.07-.77-1.37,1.28-.8-.39-.08.11-.56,1.61.31-.11.56-.4-.08-1.11.73.84,1.49.34.07-.11.56-1.77-.34Z"/>
      <path id="path973" class="st5" d="M29.78,94.27l.11-.56.44.09.43-2.19-.44-.09.11-.56,1.72.34-.11.56-.42-.08-.43,2.19.38.07-.11.56-1.69-.33Z"/>
      <path id="path975" class="st5" d="M26.98,90.64l.16-.55,1.55.44-.16.55-.32-.09-.42,1.47c-.06.2-.09.34-.1.43,0,.09.01.17.07.25.05.08.13.13.24.16.11.03.21.03.3,0,.09-.03.15-.08.2-.16.04-.07.1-.23.17-.48l.41-1.42-.31-.09.16-.55,1.29.37-.16.55-.4-.11-.46,1.62c-.06.22-.12.38-.17.47-.05.09-.13.18-.25.25-.11.07-.26.12-.43.14-.18.02-.37,0-.57-.07-.24-.07-.43-.16-.58-.28-.15-.12-.25-.24-.3-.38-.05-.14-.07-.26-.06-.38,0-.12.05-.31.13-.57l.42-1.47-.38-.11Z"/>
      <path id="path977" class="st5" d="M23.56,92.35l.43-1.06.53.21c-.07.2-.08.36-.02.49.06.13.15.22.27.27.1.04.19.04.28,0,.09-.04.16-.1.19-.19.04-.1.04-.19,0-.28-.04-.09-.13-.21-.26-.37-.29-.32-.47-.57-.55-.76-.07-.19-.07-.39.02-.62.11-.27.28-.45.51-.53.23-.08.46-.08.67.01.25.1.4.27.46.52l.1-.26.53.21-.38.95-.53-.21c.04-.15.04-.29-.01-.4-.05-.11-.13-.19-.25-.24-.09-.04-.17-.04-.25-.02-.08.02-.13.07-.16.15-.03.06-.03.14,0,.21.03.08.14.22.33.42.19.2.33.36.42.49.09.13.14.28.16.44.02.16,0,.33-.08.5-.12.31-.31.5-.55.59-.24.08-.49.08-.73-.02-.27-.11-.44-.3-.51-.56l-.11.27-.53-.21Z"/>
      <path id="path979" class="st5" d="M22.29,90.01l.17-1.04-.7.79.53.25Z"/>
      <path id="path981" class="st5" d="M23.21,91.63l-.24.52-1.5-.7.24-.52.39.18.1-.59-.79-.37-.41.45.41.19-.24.52-1.35-.63.24-.52.38.18,1.54-1.75-.41-.19.24-.52,1.99.93-.24.52-.41-.19-.3,2.32.36.17Z"/>
      <path id="path983" class="st5" d="M18.14,88.96l.21.13c.19.12.34.18.45.17.11,0,.21-.08.3-.21.09-.14.12-.27.08-.38s-.15-.22-.33-.34l-.21-.13-.49.76Z"/>
      <path id="path985" class="st5" d="M18.95,87.72l.21.13c.14.09.26.14.36.13.1,0,.19-.07.27-.19.07-.11.09-.21.06-.3-.04-.09-.14-.19-.3-.29l-.18-.12-.41.64Z"/>
      <path id="path987" class="st5" d="M16.75,88.73l.31-.48.35.23,1.22-1.87-.35-.23.31-.48,1.29.84c.29.19.49.34.6.46.12.12.19.28.21.48.02.19-.03.38-.14.55-.18.28-.44.38-.78.32.26.35.28.68.07,1.01-.12.19-.28.31-.47.38-.19.07-.39.07-.58,0-.2-.06-.45-.19-.74-.38l-1.29-.84Z"/>
      <path id="path989" class="st5" d="M14.9,84.82l.23.19c.29.23.52.25.68.04.08-.1.11-.2.09-.31-.02-.1-.1-.2-.21-.3l-.3-.24-.5.61Z"/>
      <path id="path991" class="st5" d="M15.68,87.31l-.36.44-.8-.65.34-1.63-.3-.24-.57.7.33.27-.36.44-1.37-1.11.36-.44.36.29,1.4-1.73-.36-.29.36-.44,1.58,1.28c.3.24.45.49.46.75,0,.26-.06.48-.22.67-.24.3-.57.39-.98.28l-.22,1.14.34.27Z"/>
      <path id="path993" class="st5" d="M10.01,83.05l.4-.41.29.28,1.55-1.61-.29-.28.4-.41,2.14,2.06-.74.77-.46-.45.35-.36-.75-.73-.54.56.61.59-.4.41-.61-.59-.61.64.75.73.35-.36.46.45-.75.77-2.14-2.06Z"/>
      <path id="path995" class="st5" d="M7.6,81.7l.47-.39c.04.09.08.16.13.22.09.1.18.15.27.15.09,0,.21-.06.36-.18l2.07-1.74-.32-.38.44-.37,1.18,1.41-.44.37-.29-.35-2.1,1.76c-.29.24-.56.35-.81.33-.26-.02-.48-.15-.67-.38-.1-.12-.19-.26-.28-.43Z"/>
      <path id="path997" class="st5" d="M45.94,76.15c.99.51,2.02,1.27,1.74,1.45-.26.16-1.24-.43-1.86-.87-.35-.25-.62-.46-.84-.65l.39-.18c.18.08.38.16.57.26Z"/>
      <path id="path999" class="st5" d="M29.64,76.15c.19-.1.39-.19.57-.26l.39.18c-.21.19-.49.4-.84.65-.62.45-1.6,1.03-1.86.87-.28-.18.75-.94,1.74-1.45Z"/>
      <path id="path1001" class="st2" d="M39.2,21.66l.25.33v.78h0c-.31-.14-.94-.24-1.66-.24s-1.35.1-1.66.24h0v-.79l.25-.33.47.62.47-.62.47.62.47-.62.47.62.47-.62Z"/>
      <path id="path1003" class="st2" d="M39.11,23.6l1.61,27.24-.67.66-.69-.69-.82-27.86c.28.15.49.38.57.65Z"/>
      <path id="path1005" class="st2" d="M38.43,22.89l.82,27.9-.71.71-.7-.7v-28.03c.21,0,.41.05.59.13Z"/>
      <path id="path1007" class="st2" d="M37.74,22.77v28.03l-.7.7-.71-.71.82-27.9c.18-.08.38-.12.59-.13Z"/>
      <path id="path1009" class="st2" d="M40.81,51.01l.42.42v.86c0,.14-.16.26-.35.26h-6.19c-.19,0-.35-.12-.35-.26v-.86l.42-.42.76.75.76-.75.76.75.76-.75.76.75.76-.75.76.75.76-.75Z"/>
      <path id="path1011" class="st2" d="M35.39,52.72h4.81c.26,0,.47.17.47.37v.02c0,.21-.21.37-.47.37h-4.81c-.26,0-.47-.17-.47-.37v-.02c0-.21.21-.37.47-.37Z"/>
      <path id="path1013" class="st2" d="M34.35,54.27v-.32c0-.14.16-.26.35-.26h6.19c.19,0,.35.12.35.26v.32l-1.01.56-1.22-.68-1.22.68-1.22-.68-1.22.68-1.01-.56Z"/>
      <path id="path1015" class="st2" d="M37.03,22.95l-.82,27.86-.69.69-.67-.66,1.61-27.24c.08-.27.29-.5.57-.65Z"/>
      <path id="path1017" class="st2" d="M37.79,18.89c.65.55,1.14,1.54,1.29,2.72l-.34.45-.47-.62-.47.62-.47-.62-.47.62-.34-.45c.15-1.17.64-2.16,1.29-2.72h0Z"/>
      <path id="path1019" class="st2" d="M41,54.66c.05,3.25,1.54,6.09,3.72,7.64-1.01.64-2.15,1-3.36,1-1.3,0-2.52-.41-3.57-1.13-1.06.72-2.28,1.13-3.57,1.13-1.21,0-2.36-.36-3.36-1,2.18-1.55,3.67-4.39,3.72-7.64l.8.72,1.21-.94,1.21.94,1.21-.94,1.21.94.8-.72Z"/>
      <path id="path1021" class="st2" d="M19.22,31.54c.81.32.52,1.55-.06,1.93.35-.13.6-.45.63-.82.15.25.19.57.08.86-.08.21-.23.38-.41.48.22-.08.41-.23.5-.44.44.15.7.62.63,1.08-.38-.2-.88-.21-1.27-.05-.14-.43-.47-.89-.83-1.15-.44-.06-1,.05-1.39.27-.17-.39-.54-.73-.96-.84.25-.38.76-.54,1.19-.35-.07.22-.04.46.07.67-.06-.2-.06-.43.03-.64.12-.29.36-.5.64-.58-.22.29-.26.7-.09,1.03-.17-.69.45-1.78,1.27-1.46Z"/>
      <path id="path1023" class="st2" d="M17.47,36.09c.93.23.79,1.59.21,2.09.36-.19.58-.57.57-.97.2.25.29.59.21.92-.06.24-.2.44-.38.58.23-.12.4-.31.48-.55.49.1.85.57.83,1.07-.44-.16-.99-.1-1.38.14-.21-.44-.63-.89-1.06-1.12-.49,0-1.07.2-1.46.49-.24-.4-.69-.7-1.16-.77.22-.45.75-.7,1.23-.56-.05.25.02.5.17.71-.09-.21-.12-.45-.06-.69.08-.33.32-.59.61-.72-.2.35-.18.79.05,1.13-.28-.72.23-1.99,1.16-1.76Z"/>
      <path id="path1025" class="st2" d="M16.2,41.09c1.03.1,1.08,1.58.54,2.21.36-.26.54-.7.46-1.13.25.24.4.58.36.95-.03.26-.14.5-.32.68.23-.16.39-.4.43-.67.55.03.99.48,1.05,1.01-.5-.1-1.07.05-1.46.36-.29-.44-.81-.86-1.31-1.03-.52.08-1.12.38-1.5.76-.32-.39-.85-.64-1.36-.64.17-.51.7-.86,1.24-.79-.01.28.1.54.29.74-.13-.21-.2-.46-.17-.73.04-.37.25-.68.55-.86-.16.4-.08.87.22,1.2-.41-.72-.05-2.16.98-2.06Z"/>
      <path id="path1027" class="st2" d="M15.54,46.5c1.11-.06,1.41,1.49.93,2.26.34-.33.46-.83.31-1.28.31.21.52.55.54.95.01.29-.07.56-.23.77.22-.21.35-.48.35-.78.59-.06,1.13.34,1.28.9-.55-.03-1.13.23-1.5.63-.38-.42-1.01-.77-1.56-.88-.54.17-1.13.59-1.47,1.05-.4-.36-1.01-.54-1.55-.45.09-.57.6-1.03,1.19-1.04.03.29.19.55.42.74-.17-.2-.29-.46-.3-.74-.02-.4.16-.77.44-1.01-.11.46.06.94.43,1.23-.55-.7-.4-2.29.71-2.35Z"/>
      <path id="path1029" class="st2" d="M15.73,52.27c1.17-.25,1.73,1.35,1.34,2.23.3-.41.35-.96.12-1.4.36.17.64.5.72.92.06.3.01.6-.12.86.2-.26.29-.57.25-.88.61-.16,1.26.17,1.5.74-.58.06-1.16.43-1.49.91-.47-.38-1.19-.65-1.79-.67-.55.27-1.1.81-1.39,1.36-.48-.31-1.15-.41-1.71-.22,0-.62.47-1.19,1.1-1.3.08.31.29.55.57.71-.22-.18-.38-.44-.44-.74-.08-.42.04-.84.31-1.14-.04.5.21.98.65,1.23-.69-.65-.79-2.35.38-2.6Z"/>
      <path id="path1031" class="st2" d="M16.7,58.36c1.17-.5,2.08,1.06,1.84,2.06.24-.49.18-1.07-.14-1.49.41.1.76.39.93.82.12.3.13.62.04.92.16-.31.2-.65.09-.97.61-.29,1.35-.07,1.72.47-.6.18-1.14.68-1.38,1.25-.57-.3-1.37-.44-2.01-.34-.52.39-1,1.07-1.2,1.7-.56-.23-1.29-.19-1.84.11-.11-.65.27-1.34.9-1.58.14.3.41.52.73.63-.26-.15-.48-.38-.6-.68-.17-.42-.12-.88.1-1.25.05.53.41.99.92,1.16-.85-.54-1.28-2.3-.11-2.8Z"/>
      <path id="path1033" class="st2" d="M18.62,64.72c1.08-.82,2.41.53,2.43,1.62.12-.56-.09-1.15-.53-1.49.45,0,.89.2,1.17.59.2.28.29.61.28.93.08-.36.03-.72-.16-1.02.56-.46,1.38-.43,1.9.02-.57.35-1,1-1.1,1.65-.66-.16-1.53-.09-2.16.19-.44.54-.75,1.37-.79,2.06-.64-.08-1.38.14-1.87.6-.28-.64-.07-1.45.52-1.86.23.27.56.42.92.45-.31-.08-.59-.26-.8-.54-.28-.39-.35-.88-.22-1.31.19.53.68.9,1.25.94-1.02-.33-1.92-2.02-.83-2.84Z"/>
      <path id="path1035" class="st2" d="M21.42,27.47c.7.39.29,1.46-.29,1.74.33-.07.59-.33.67-.66.11.25.11.54-.03.79-.1.18-.25.31-.43.38.21-.04.39-.16.51-.34.38.19.56.65.44,1.05-.32-.23-.77-.3-1.14-.2-.07-.4-.32-.86-.62-1.14-.39-.11-.91-.08-1.28.07-.11-.37-.4-.72-.77-.88.27-.31.75-.4,1.11-.18-.09.19-.09.41-.02.61-.03-.19,0-.39.1-.57.14-.25.38-.41.65-.44-.24.24-.32.6-.2.92-.07-.64.62-1.55,1.31-1.16Z"/>
      <path id="path1037" class="st2" d="M32.31,76.89c-.14.07-.29.14-.45.21-1.61.7-3.14,1.6-4.41,2.67-2.04,1.71-3.77,3.82-5.88,5.59-.64.54-1.75.21-2.48-.28-.47-.32-.75-.95-1.43-1.46-.71-.53-1.34-.87-1.69-1.2-.31-.29-.4-.57-.15-.96.3.96,1.62.46,2.82-.24,1.78-1.02,3.19-2.51,4.61-3.9.55-.54,1.16-1.05,1.82-1.53.07-.05.13-.1.2-.14.67.71,1.22,1.55,1.61,2.43.4.89,1.48.36,2.61-.4.6-.41,1.2-.9,1.72-1.27.36.17.73.33,1.09.49Z"/>
      <path id="path1039" class="st2" d="M32.04,75.43c.12-.05.22-.07.31-.07.36,0,.52.2.58.44-.3-.12-.6-.25-.89-.37Z"/>
      <path id="path1041" class="st2" d="M42.64,75.82c.06-.25.21-.46.59-.46.09,0,.19.02.3.07-.29.13-.59.27-.89.39Z"/>
      <path id="path1043" class="st2" d="M44.31,76.36c.53.38,1.16.89,1.78,1.31,1.13.77,2.21,1.3,2.61.4.39-.88.94-1.72,1.61-2.43.07.05.13.1.2.14.66.48,1.27.99,1.82,1.53,1.42,1.39,2.84,2.88,4.61,3.9,1.21.7,2.53,1.2,2.82.24.26.4.16.68-.15.96-.35.33-.98.67-1.69,1.2-.68.51-.96,1.14-1.43,1.46-.73.5-1.84.82-2.48.28-2.12-1.78-3.85-3.88-5.88-5.59-1.27-1.07-2.8-1.97-4.41-2.67-.17-.07-.33-.15-.47-.22.36-.17.72-.34,1.06-.52Z"/>
      <path id="path1045" class="st2" d="M10.54,89.72c-.44-2.39-2.53-4.42-3.58-5.18-.78-.57-2.92-2.42-1.67-3.37,1.63-1.24,3.29-2.46,4.93-3.68,1.17-.87,2.55-.33,3.36.63.83.98,1.34,1.93,2.14,2.95-.2.3-.4.63-.33.98.04.23.17.42.37.6.5.47,1.3.84,1.81,1.3.36.32,1.04,1.21,1.23,1.34.67.45,1.78.86,2.58.53.15-.1.3-.22.46-.33,3.7,2.07,7.88,3.19,12.24,3.95,1.47.26,2.48.87,3.72,1.67,1.24-.8,2.25-1.41,3.72-1.67,4.36-.77,8.54-1.88,12.24-3.95.15.12.3.23.46.33.8.33,1.91-.08,2.58-.53.19-.13.87-1.01,1.23-1.34.51-.46,1.31-.83,1.81-1.3.2-.19.33-.38.37-.6.07-.35-.13-.68-.33-.98.81-1.02,1.31-1.96,2.14-2.95.81-.96,2.19-1.5,3.36-.63,1.64,1.23,3.3,2.44,4.93,3.68,1.25.95-.89,2.8-1.67,3.37-1.06.77-3.14,2.8-3.58,5.18l-.95-2.65c1.57-1.62,2.87-2.9,4.11-3.46,1.46-.67,2.18-1.7,1.8-1.98-.65-.47-2.28,1.12-2.7,1.61-7.09,8.26-17.8,13.23-29.5,13.23s-22.41-4.97-29.5-13.23c-.42-.48-2.05-2.07-2.7-1.61-.38.27.34,1.31,1.8,1.98,1.24.56,2.54,1.84,4.11,3.46l-.95,2.65Z"/>
      <path id="path1047" class="st5" d="M23.21,91.63l-.24.52-1.5-.7.24-.52.39.18.1-.59-.79-.37-.41.45.41.19-.24.52-1.35-.63.24-.52.38.18,1.54-1.75-.41-.19.24-.52,1.99.93-.24.52-.41-.19-.3,2.32.36.17ZM22.29,90.01l.17-1.04-.7.79.53.25Z"/>
      <path id="path1049" class="st5" d="M16.75,88.73l.31-.48.35.23,1.22-1.87-.35-.23.31-.48,1.29.84c.29.19.49.34.6.46.12.12.19.28.21.48.02.19-.03.38-.14.55-.18.28-.44.38-.78.32.26.35.28.68.07,1.01-.12.19-.28.31-.47.38-.19.07-.39.07-.58,0-.2-.06-.45-.19-.74-.38l-1.29-.84ZM18.95,87.72l.21.13c.14.09.26.14.36.13.1,0,.19-.07.27-.19.07-.11.09-.21.06-.3-.04-.09-.14-.19-.3-.29l-.18-.12-.41.64ZM18.14,88.96l.21.13c.19.12.34.18.45.17.11,0,.21-.08.3-.21.09-.14.12-.27.08-.38s-.15-.22-.33-.34l-.21-.13-.49.76Z"/>
      <path id="path1051" class="st5" d="M15.68,87.31l-.36.44-.8-.65.34-1.63-.3-.24-.57.7.33.27-.36.44-1.37-1.11.36-.44.36.29,1.4-1.73-.36-.29.36-.44,1.58,1.28c.3.24.45.49.46.75,0,.26-.06.48-.22.67-.24.3-.57.39-.98.28l-.22,1.14.34.27ZM14.9,84.82l.23.19c.29.23.52.25.68.04.08-.1.11-.2.09-.31-.02-.1-.1-.2-.21-.3l-.3-.24-.5.61Z"/>
      <path id="path1053" class="st2" d="M37.79,69.49c5.28,0,10.01,1.63,12.91,4.21l.3.27c.18.16.13.58-.06.74l-.2.16c-.97.82-1.75,1.89-2.25,3.05-.33.78-1.48.21-2.63-.55-.54-.36-1.02-.75-1.43-1.06.1-.05.2-.1.29-.15.3.21.62.45.95.68,1.01.71,2,1.41,2.27.92.57-1.02-4.61-3.05-5.31-3.25-1.46-.42-3.1-.68-4.85-.68s-3.39.26-4.85.68c-.7.2-5.88,2.23-5.31,3.25.27.49,1.26-.21,2.27-.92.3-.21.6-.43.88-.63.1.05.2.1.31.14-.4.3-.86.67-1.38,1.01-1.15.77-2.3,1.33-2.63.55-.49-1.16-1.28-2.23-2.25-3.05l-.2-.16c-.19-.16-.24-.57-.06-.74l.3-.27c2.9-2.58,7.64-4.21,12.91-4.21Z"/>
      <path id="path1055" class="st2" d="M53.65,67.18c-.32-.11-.64-.24-.95-.4.04-.18.07-.36.1-.53.38.19.77.34,1.18.46-.11.16-.22.32-.33.48Z"/>
      <path id="path1057" class="st2" d="M52.69,68.46c-.15-.08-.3-.17-.45-.26.07-.15.13-.31.19-.47.19.11.39.21.59.3-.11.14-.22.28-.33.42Z"/>
      <path id="path1059" class="st2" d="M54.88,65.18s.04,0,.06,0c-.01.02-.02.04-.04.06,0-.02-.02-.05-.03-.07Z"/>
      <path id="path1061" class="st2" d="M54.32,65.67c-.5-.11-.98-.28-1.44-.5,0-.2-.01-.4-.03-.6.4.2.82.36,1.26.47.07.21.14.42.21.63Z"/>
      <path id="path1063" class="st2" d="M49.52,68.54c-.01.2-.02.39-.02.59-.32.05-.65.08-.98.08-1.29,0-2.51-.4-3.57-1.1-1.06.7-2.28,1.1-3.57,1.1s-2.51-.4-3.57-1.1c-1.06.7-2.28,1.1-3.57,1.1s-2.51-.4-3.57-1.1c-1.06.7-2.28,1.1-3.57,1.1-.51,0-1-.06-1.48-.18.04-.19.07-.38.08-.56.46.11.93.16,1.41.16,1.29,0,2.51-.4,3.57-1.1,1.06.7,2.28,1.1,3.57,1.1s2.51-.4,3.57-1.1c1.06.7,2.28,1.1,3.57,1.1s2.51-.4,3.57-1.1c1.06.7,2.28,1.1,3.57,1.1.34,0,.67-.03,1-.08Z"/>
      <path id="path1065" class="st2" d="M49.77,66.8c-.05.2-.09.4-.12.61-.37.07-.75.1-1.14.1-1.29,0-2.51-.4-3.57-1.1-1.06.7-2.28,1.1-3.57,1.1s-2.51-.4-3.57-1.1c-1.06.7-2.28,1.1-3.57,1.1s-2.51-.4-3.57-1.1c-1.06.7-2.28,1.1-3.57,1.1-.52,0-1.04-.07-1.53-.19-.07-.23-.16-.45-.28-.66.58.17,1.19.27,1.81.27,1.29,0,2.51-.4,3.57-1.1,1.06.7,2.28,1.1,3.57,1.1s2.51-.4,3.57-1.1c1.06.7,2.28,1.1,3.57,1.1s2.51-.4,3.57-1.1c1.06.7,2.28,1.1,3.57,1.1.43,0,.85-.04,1.26-.13Z"/>
      <path id="path1067" class="st2" d="M50.42,64.93c-.1.21-.2.43-.29.67-.52.14-1.06.21-1.62.21-1.29,0-2.51-.4-3.57-1.1-1.06.7-2.28,1.1-3.57,1.1s-2.51-.4-3.57-1.1c-1.06.7-2.28,1.1-3.57,1.1s-2.51-.4-3.57-1.1c-1.06.7-2.28,1.1-3.57,1.1-.73,0-1.44-.13-2.11-.37.15-.07.3-.12.45-.15-.36-.11-.72-.15-1.04-.09-.3-.14-.59-.3-.87-.49-.1.07-.2.13-.3.19-.47-.13-.99-.05-1.42.24-.05-.05-.11-.1-.17-.15.67-.19,1.3-.48,1.89-.86,1.06.7,2.28,1.1,3.57,1.1s2.51-.4,3.57-1.1c1.06.7,2.28,1.1,3.57,1.1s2.51-.4,3.57-1.1c1.06.7,2.28,1.1,3.57,1.1s2.51-.4,3.57-1.1c1.06.7,2.28,1.1,3.57,1.1.66,0,1.3-.1,1.91-.3Z"/>
      <path id="path1069" class="st5" d="M66.74,80.71l.44.37-1.07,1.27-.44-.37.28-.33-.55-.25-.56.67.33.51.29-.35.44.37-.96,1.14-.44-.37.27-.32-1.29-1.94-.29.34-.44-.37,1.41-1.69.44.37-.29.35,2.16.89.26-.31ZM64.94,81.18l-.96-.44.58.89.38-.45Z"/>
      <path id="path1071" class="st5" d="M62.88,85.63l-.4-.41.34-.33-.63-.66-1.57-.32-.3.29-.4-.41,1.21-1.17.4.41-.24.23.93.25-.21-.94-.25.24-.4-.41,1.07-1.03.4.41-.3.29.29,1.56.63.66.34-.33.4.41-1.31,1.26Z"/>
      <path id="path1073" class="st5" d="M59.49,88.39l-.36-.44.31-.25-1.4-1.73-.31.25-.36-.44,2.31-1.87.67.83-.5.41-.31-.39-.81.66.49.6.66-.53.36.44-.66.53.56.69.81-.66-.32-.39.5-.41.68.83-2.31,1.87Z"/>
      <path id="path1075" class="st5" d="M56.29,90.39l-.31-.48.35-.23-1.22-1.87-.35.23-.31-.48,1.29-.84c.29-.19.51-.31.67-.36.16-.06.33-.06.52,0,.18.06.33.18.44.35.18.28.17.56-.02.84.42-.09.74.02.95.35.12.19.17.38.15.58-.02.2-.09.38-.23.54-.13.16-.35.33-.65.53l-1.29.84ZM56.26,87.97l.21-.13c.14-.09.23-.19.27-.28.04-.09.01-.2-.07-.32-.07-.11-.16-.17-.25-.17-.1,0-.23.05-.39.15l-.18.12.41.64ZM57.06,89.21l.21-.13c.19-.12.3-.24.34-.34.04-.1.01-.22-.07-.36-.09-.14-.2-.22-.32-.22-.12,0-.27.05-.44.16l-.21.13.49.76Z"/>
      <path id="path1077" class="st5" d="M54.45,90.63l.24.52-1.5.7-.24-.52.39-.18-.39-.46-.79.37.08.6.41-.19.24.52-1.35.63-.24-.52.38-.18-.35-2.3-.41.19-.24-.52,1.99-.93.24.52-.41.19,1.58,1.72.36-.17ZM52.61,90.3l-.68-.8.15,1.05.53-.25Z"/>
      <path id="path1079" class="st5" d="M47.9,93.76l-1.7-2.45-.34.1-.16-.55,1.46-.42.16.55-.34.1.97,1.4.05-1.7-.29.08-.16-.55,1.16-.33.16.55-.3.09.98,1.4.06-1.7-.32.09-.16-.55,1.3-.37.16.55-.35.1-.12,2.97-.61.17-.93-1.33-.06,1.62-.62.18Z"/>
      <path id="path1081" class="st5" d="M46.37,93.62l.11.56-1.63.32-.11-.56.42-.08-.27-.54-.86.17-.07.6.44-.09.11.56-1.47.28-.11-.56.41-.08.22-2.32-.44.09-.11-.56,2.16-.42.11.56-.44.09,1.12,2.06.39-.08ZM44.67,92.86l-.47-.94-.1,1.05.57-.11Z"/>
      <path id="path1083" class="st5" d="M37.69,95.28l-.05-.57.43-.04-.19-2.22-.43.04-.05-.57,1.68-.15.91,1.9.57-2.03,1.72-.15.05.57-.43.04.19,2.22.43-.04.05.57-1.69.15-.05-.57.41-.04-.19-2.22h-.08s-.8,2.89-.8,2.89l-.36.03-1.3-2.7h-.08s.19,2.23.19,2.23l.44-.04.05.57-1.42.12Z"/>
      <path id="path1085" class="st5" d="M33.96,94.95l.05-.57.51.04.19-2.22-.51-.04.05-.57,1.9.17-.05.57-.51-.04-.19,2.22.51.04-.05.57-1.9-.17Z"/>
      <path id="path1087" class="st5" d="M31.72,94.64l.11-.56.38.07-.77-1.37,1.28-.8-.39-.08.11-.56,1.61.31-.11.56-.4-.08-1.11.73.84,1.49.34.07-.11.56-1.77-.34Z"/>
      <path id="path1089" class="st5" d="M29.78,94.27l.11-.56.44.09.43-2.19-.44-.09.11-.56,1.72.34-.11.56-.42-.08-.43,2.19.38.07-.11.56-1.69-.33Z"/>
      <path id="path1091" class="st5" d="M26.98,90.64l.16-.55,1.55.44-.16.55-.32-.09-.42,1.47c-.06.2-.09.34-.1.43,0,.09.01.17.07.25.05.08.13.13.24.16.11.03.21.03.3,0,.09-.03.15-.08.2-.16.04-.07.1-.23.17-.48l.41-1.42-.31-.09.16-.55,1.29.37-.16.55-.4-.11-.46,1.62c-.06.22-.12.38-.17.47-.05.09-.13.18-.25.25-.11.07-.26.12-.43.14-.18.02-.37,0-.57-.07-.24-.07-.43-.16-.58-.28-.15-.12-.25-.24-.3-.38-.05-.14-.07-.26-.06-.38,0-.12.05-.31.13-.57l.42-1.47-.38-.11Z"/>
      <path id="path1093" class="st5" d="M23.56,92.35l.43-1.06.53.21c-.07.2-.08.36-.02.49.06.13.15.22.27.27.1.04.19.04.28,0,.09-.04.16-.1.19-.19.04-.1.04-.19,0-.28-.04-.09-.13-.21-.26-.37-.29-.32-.47-.57-.55-.76-.07-.19-.07-.39.02-.62.11-.27.28-.45.51-.53.23-.08.46-.08.67.01.25.1.4.27.46.52l.1-.26.53.21-.38.95-.53-.21c.04-.15.04-.29-.01-.4-.05-.11-.13-.19-.25-.24-.09-.04-.17-.04-.25-.02-.08.02-.13.07-.16.15-.03.06-.03.14,0,.21.03.08.14.22.33.42.19.2.33.36.42.49.09.13.14.28.16.44.02.16,0,.33-.08.5-.12.31-.31.5-.55.59-.24.08-.49.08-.73-.02-.27-.11-.44-.3-.51-.56l-.11.27-.53-.21Z"/>
      <path id="path1095" class="st5" d="M10.01,83.05l.4-.41.29.28,1.55-1.61-.29-.28.4-.41,2.14,2.06-.74.77-.46-.45.35-.36-.75-.73-.54.56.61.59-.4.41-.61-.59-.61.64.75.73.35-.36.46.45-.75.77-2.14-2.06Z"/>
      <path id="path1097" class="st5" d="M7.6,81.7l.47-.39c.04.09.08.16.13.22.09.1.18.15.27.15.09,0,.21-.06.36-.18l2.07-1.74-.32-.38.44-.37,1.18,1.41-.44.37-.29-.35-2.1,1.76c-.29.24-.56.35-.81.33-.26-.02-.48-.15-.67-.38-.1-.12-.19-.26-.28-.43Z"/>
      <path id="path1099" class="st5" d="M48.58,75.74l-.19.33-.59-.34.05-1.11-.22-.13-.3.52.24.14-.19.33-1.02-.59.19-.33.27.15.74-1.29-.27-.15.19-.33,1.17.68c.22.13.35.27.38.44.03.17,0,.32-.07.46-.13.22-.33.32-.62.29l-.02.77.25.15ZM47.81,74.18l.17.1c.21.12.37.11.45-.04.04-.08.05-.15.02-.21-.03-.07-.08-.12-.17-.17l-.22-.13-.26.45Z"/>
      <path id="path1101" class="st5" d="M44.93,72.21l.15-.35.98.44-.15.35-.2-.09-.41.93c-.06.12-.09.22-.1.27-.01.06,0,.12.02.17.03.05.08.1.14.13.07.03.14.04.2.03.06-.01.11-.04.15-.09.04-.04.09-.14.16-.3l.4-.9-.2-.09.15-.35.82.36-.15.35-.25-.11-.46,1.03c-.06.14-.11.24-.16.29-.04.06-.11.1-.19.14-.08.04-.18.06-.3.05-.12,0-.24-.04-.37-.1-.15-.07-.27-.15-.36-.24-.09-.09-.14-.18-.16-.28-.02-.09-.02-.18,0-.26.02-.08.06-.2.14-.37l.41-.93-.24-.11Z"/>
      <path id="path1103" class="st5" d="M40.72,73.02l.09-.37.28.07.36-1.44-.28-.07.09-.37,1.09.27.16,1.4.8-1.16,1.11.28-.09.37-.28-.07-.36,1.44.28.07-.09.37-1.1-.27.09-.37.26.07.36-1.44h-.05s-1.13,1.63-1.13,1.63l-.23-.06-.23-1.98h-.05s-.36,1.43-.36,1.43l.28.07-.09.37-.92-.23Z"/>
      <path id="path1105" class="st5" d="M39.15,72.94l.03-.38.34.02.1-1.48-.34-.02.03-.38,1.27.09-.03.38-.34-.02-.1,1.48.34.02-.03.38-1.27-.09Z"/>
      <path id="path1107" class="st5" d="M37.18,72.88v-.38s.34,0,.34,0l.03-1.49h-.34s0,.52,0,.52h-.39s.02-.91.02-.91l2.04.04-.02.9h-.38s0-.53,0-.53h-.35s-.03,1.48-.03,1.48h.34s0,.39,0,.39l-1.26-.02Z"/>
      <path id="path1109" class="st5" d="M35.93,72.57l.05.38-1.09.15-.05-.38.28-.04-.16-.37-.58.08-.06.4.3-.04.05.38-.99.14-.05-.38.28-.04.23-1.53-.3.04-.05-.38,1.45-.2.05.38-.3.04.67,1.41.27-.04ZM34.82,72l-.28-.64-.11.7.39-.05Z"/>
      <path id="path1111" class="st5" d="M31.35,74.02l-1.16-1.61-.23.07-.11-.36.97-.3.11.36-.22.07.66.92v-1.13s-.18.06-.18.06l-.11-.36.77-.24.11.36-.2.06.67.92.02-1.14-.21.07-.11-.36.86-.26.11.36-.23.07-.04,1.98-.4.12-.64-.88-.02,1.08-.41.13Z"/>
      <path id="path1113" class="st5" d="M30.3,73.96l.17.34-.98.5-.17-.34.26-.13-.27-.3-.52.26.07.4.27-.14.17.34-.89.45-.17-.34.25-.13-.29-1.52-.27.14-.17-.34,1.31-.67.17.34-.27.14,1.1,1.11.24-.12ZM29.07,73.79l-.47-.52.13.69.35-.18Z"/>
      <path id="path1115" class="st5" d="M27.49,76.65l-.2-.35c.06-.02.12-.04.16-.06.08-.04.12-.1.13-.16,0-.06-.02-.15-.08-.26l-.9-1.56-.29.17-.19-.33,1.06-.61.19.33-.26.15.91,1.58c.12.22.16.41.12.57-.04.16-.15.3-.33.4-.09.05-.19.09-.31.13Z"/>
      <path id="path1117" class="st2" d="M33.72,17.07l.33.28-3.18,3.76-.34-.28,3.18-3.76Z"/>
      <path id="path1119" class="st2" d="M42.86,13.5l6.6,1.77-.12.45-6.6-1.77.12-.45Z"/>
      <path id="path1121" class="st2" d="M41.86,17.07l3.18,3.76-.33.28-3.18-3.76.34-.28Z"/>
      <path id="path1123" class="st2" d="M32.72,13.5l.12.45-6.6,1.77-.12-.45,6.6-1.77Z"/>
      <path id="path1125" class="st2" d="M45.94,76.15c.99.51,2.02,1.27,1.74,1.45-.26.16-1.24-.43-1.86-.87-.35-.25-.62-.46-.84-.65l.39-.18c.18.08.38.16.57.26Z"/>
      <path id="path1127" class="st2" d="M29.64,76.15c.19-.1.39-.19.57-.26l.39.18c-.21.19-.49.4-.84.65-.62.45-1.6,1.03-1.86.87-.28-.18.75-.94,1.74-1.45Z"/>
    </g>
  </g>
</svg>